<?xml version="1.0" encoding="UTF-8" standalone="no"?>
<!DOCTYPE svg  PUBLIC '-//W3C//DTD SVG 1.1//EN'  'http://www.w3.org/Graphics/SVG/1.1/DTD/svg11.dtd'>
<svg xmlns="http://www.w3.org/2000/svg">
<defs>
<font id="KursivC-Regular" horiz-adv-x="1032">
<font-face underline-position="-120" font-weight="400" descent="-410" panose-1="4 2 114 0 0 0 0 0 0 0" units-per-em="2048" unicode-range="U+0020-2122" bbox="-330 -456 2248 1729" x-height="786" underline-thickness="120" font-family="KursivC" ascent="1638" cap-height="1408"/>
<missing-glyph horiz-adv-x="2048"/>
<glyph glyph-name=".notdef" horiz-adv-x="2048"/>
<glyph glyph-name=".null" horiz-adv-x="0"/>
<glyph glyph-name="nonmarkingreturn" horiz-adv-x="2048"/>
<glyph glyph-name="space" horiz-adv-x="719" unicode=" "/>
<glyph glyph-name="exclam" horiz-adv-x="832" unicode="!" d="M411 144q0 -15 -15.5 -37.5t-43.5 -46.5q-58 -49 -124 -49q-46 0 -50 23q3 18 13.5 38t30.5 46q16 20 30.5 30.5t32.5 12.5h84q24 0 33 -2.5t9 -14.5zM955 1360q0 -30 -55 -186q-60 -172 -129 -339q-72 -180 -96 -225l-101 -161q-24 -39 -37 -52q-9 -9 -17 -10h-56 q-15 0 -23 2q-8 0 -11 6q1 3 2 6.5t6 12.5l12 23l59 109l100 192q28 55 65.5 133.5t68.5 146.5q27 86 63 215.5t49 160.5l8 16l82 -37l5 -2l4 -3z"/>
<glyph glyph-name="quotedbl" horiz-adv-x="1077" unicode='&quot;' d="M652 1490l-84 -313h-74l-36 313h194zM1029 1490l-40 -343l-7 6l-62 20l-85 317h194z"/>
<glyph glyph-name="numbersign" horiz-adv-x="1876" unicode="#" d="M1406 886h-447l-124 -449h522zM1719 313h-305l-37 -283h-92l56 283h-552l-98 -283h-86l115 283h-303l58 124h289l143 449h-240l48 125h227l67 270h30l-55 -270h431l8 270h32l4 -270h229l12 -125h-241l-28 -449h286z"/>
<glyph glyph-name="dollar" horiz-adv-x="1118" unicode="$" d="M925 383q0 30 -12.5 62.5t-36.5 68.5q-11 18 -22.5 33t-28.5 35q-27 30 -81 78l-298 -524q17 -7 40 -14t44 -12q21 -3 44 -5t51 -2q134 0 217 85t83 195zM925 1271l-60 6q-53 0 -103 -27q-28 -14 -46 -31.5t-33 -46.5q-31 -56 -31 -115q0 -58 21 -113.5t80 -137.5z M1151 1139l-65 -16q-8 23 -16 37q-4 8 -16 24q-16 22 -35 36q-9 8 -24 16.5t-36 18.5l-169 -489l68 -70l78 -86q8 -9 20 -25q9 -12 21 -29l40 -64q16 -31 26.5 -62t16.5 -69q0 -93 -56 -166.5t-170 -119.5q-54 -21 -121.5 -33t-142.5 -12q-79 0 -184 21l-125 -173l-78 25 l134 171q-85 40 -137.5 82t-88.5 97l126 67q13 -23 27.5 -42t34.5 -39q40 -37 104 -72l319 538q-40 46 -73 96q-12 19 -21.5 37t-19.5 41q-25 78 -25 156q0 25 3 46.5t12.5 51t35.5 74.5q41 69 103.5 109.5t118.5 40.5l108 -10l26 136l26 -14l-26 -145q24 -10 43.5 -21 t34.5 -23q29 -22 49 -51l28 -45z"/>
<glyph glyph-name="percent" horiz-adv-x="1463" unicode="%" d="M1236 1248q-257 -446 -885 -1321l-174 40l91 111l97 113l256 291q136 156 254 308q34 44 76 103q37 52 84 121q59 87 93 139l-37 64q-35 -35 -66 -49q-33 -13 -70 -13q-11 0 -28 6l-60 30q0 -65 -12.5 -103t-37.5 -76q-44 -63 -105.5 -98.5t-123.5 -35.5q-58 0 -90 36 t-32 102q0 15 1 24t6 31q24 131 127 233q86 82 199 97l-1 -39q-77 -18 -136 -69.5t-92 -119.5q-18 -32 -28 -65l-15 -60q0 -58 18.5 -89.5t44.5 -31.5q41 0 76 16t69 51q30 33 49.5 80.5t19.5 99.5q0 35 -4 62l57 35l16 -31q50 -31 123 -31q91 0 174 98zM1490 266 q0 -32 -9 -67q-10 -33 -29 -64q-36 -62 -111.5 -105t-181.5 -43q-69 0 -123.5 21t-83.5 61.5t-29 90.5q0 22 1 32.5t8 39t21 59.5q30 61 85.5 114.5t130.5 81.5t158 28h27l11 -42q-109 -15 -180 -59q-83 -48 -121 -119q-17 -33 -27 -68.5t-10 -68.5q0 -29 12 -56 q12 -23 36 -43q39 -31 101 -31q83 0 141.5 64.5t58.5 151.5l-4 42q-3 29 -18 63l96 35q23 -25 34 -70q6 -24 6 -48z"/>
<glyph glyph-name="ampersand" horiz-adv-x="1549" unicode="&amp;" d="M1003 230q-22 27 -36 46q-18 24 -30 43l-46 77l-38 78l-35 88q-29 78 -55 207q-193 -90 -296 -190q-98 -96 -120 -212l-4 -49q0 -93 60.5 -158t194.5 -65q37 0 51 1.5t41 6.5q47 8 103 28t99 39.5t111 59.5zM1056 1174q0 29 -8 45q-6 18 -23 35q-29 30 -66 30 q-25 0 -46.5 -15t-41.5 -52q-32 -55 -32 -172l3 -56l15 -97q54 35 87.5 65.5t59.5 70.5q52 75 52 146zM1669 48q-22 -6 -46.5 -12t-53.5 -10.5t-56 -6.5t-65 -2q-109 0 -202 24q-44 9 -84.5 32.5t-84.5 67.5q-32 -17 -60 -31q-20 -9 -63 -28q-31 -12 -81 -29q-18 -6 -56 -18 q-147 -38 -272 -38q-178 0 -283 69.5t-105 191.5l3 39q1 10 2.5 19.5t5.5 22.5q9 42 28 80.5t49 77.5q56 75 172 158q67 46 140 87q90 51 200 102l-10 52l-2 57l2 75q0 52 13 100q7 27 14.5 47.5t20.5 46.5q38 79 96 125q52 40 105 40q25 0 53.5 -22.5t51.5 -64.5 q11 -21 18 -48l12 -54q0 -189 -261 -368q38 -154 99 -284q57 -123 150 -254q104 70 176 153q67 79 110 181l101 -40l-15 -34l-19 -39l-41 -64q-25 -36 -55 -72.5t-73 -75.5q-49 -46 -112 -90q63 -65 127.5 -92.5t144.5 -27.5q79 0 147 31z"/>
<glyph glyph-name="quotesingle" horiz-adv-x="676" unicode="&apos;" d="M639 1404l-61 -313h-70l-61 313h192z"/>
<glyph glyph-name="parenleft" horiz-adv-x="1090" unicode="(" d="M1199 1319q-127 -150 -257 -330q-67 -94 -128 -189t-113 -189q-16 -28 -53 -99q-31 -59 -51 -99q-46 -96 -85 -197q-17 -45 -34 -95q-13 -39 -28 -91q-22 -80 -35 -172q-6 -45 -6 -90l5 -86l-197 -52l-2 23v17q0 22 1 42.5t4 40.5l19 95q21 113 61 227q19 54 43 112.5 t52 113.5q60 121 116 213q29 49 61.5 100t68.5 102q131 187 336 442l178 220z"/>
<glyph glyph-name="parenright" horiz-adv-x="1090" unicode=")" d="M914 971q0 -263 -140 -516t-367 -465q-107 -98 -226 -191q-111 -85 -245 -167l-56 65q216 138 388 295q184 171 306 349.5t184.5 360.5t62.5 353q0 55 -6 104t-15 91l-21 98l57 34q18 -49 34 -111l24 -109q10 -48 15 -93.5t5 -97.5z"/>
<glyph glyph-name="asterisk" horiz-adv-x="815" unicode="*" d="M589 1276q7 -2 17 -7l37 -22q27 -20 49 -31l31 -11q9 3 14 8q14 11 22 33l2 40l2 39l-12 78l2 11l74 -6q-3 -5 -3 -13l-2 -14l-5 -22l-15 -48l-4 -29l-2 -35q0 -44 44 -50q31 0 74 17l19 7l25 11l19 14l4 4l2 4l3 5l29 -97l1 -5h-16l-66 4q-35 0 -66 -9t-37 -21 q0 -15 9.5 -33t33.5 -38l56 -45q16 -12 19 -27l-6 -3l-77 -53l-6 -3l-2 -2l-1 5q1 5 1.5 14t1.5 16q0 13 -2 23t-7 31q-3 22 -9.5 39.5t-22 29.5t-47.5 12q-17 0 -30 -8q-13 -6 -23 -23l-27 -60l-25 -55l-3 -4l-10 2l-74 46l1 3q0 15 20 29l68 41q24 14 36.5 32t14.5 35 q0 13 -9 25t-31 21l-24 4l-29 2l-39 2l-25 1q-9 0 -11 2l18 41zM589 1276v1h-5q2 0 5 -1zM1016 1157v-5l1 5h-1z"/>
<glyph glyph-name="plus" horiz-adv-x="1377" unicode="+" d="M1365 632h-461l10 -458h-79l10 458h-461l11 55h454l11 459h30l10 -459h454z"/>
<glyph glyph-name="comma" horiz-adv-x="717" unicode="," d="M449 154q0 -31 -50 -106q-21 -31 -54 -71q-27 -32 -60 -64q-58 -53 -80 -53q-14 0 -27 10q-7 6 -13 17v9q9 21 31 43l30 31l27 31q13 17 30.5 48t37.5 72q15 40 22 45t26 5l57 -6q20 -3 23 -11z"/>
<glyph glyph-name="hyphen" horiz-adv-x="832" unicode="-" d="M769 512l-4 7v-8q2 1 4 1zM765 511q-1 -43 -9 -65q-8 -26 -32 -36q-56 -27 -171 -27h-184h-88l-17 -3h-4q-7 0 -7 3l5 8l59 77q12 14 17 16l19 2h14l50 -1l52 -1q74 0 293 27h3z"/>
<glyph glyph-name="period" horiz-adv-x="717" unicode="." d="M660 141q0 -39 -41 -86q-19 -21 -42 -33q-10 -5 -21 -8t-23 -3q-42 0 -42 26q0 35 27 85l20 29q8 8 21 10h68q33 0 33 -20z"/>
<glyph glyph-name="slash" d="M1041 1354q-48 -103 -90 -186q-49 -95 -111 -202q-45 -78 -78 -132q-10 -16 -59 -93q-88 -140 -151 -234l-163 -230q-37 -52 -83 -113q-49 -65 -91 -120l-114 -147l-118 -147l-122 -146l-163 51l175 180l153 159l129 139q84 93 176 200q37 44 80 97l75 95 q66 86 138.5 192t134 211t118.5 212l127 246z" unicode="/"/>
<glyph glyph-name="zero" d="M1121 807q0 -131 -60 -274q-31 -74 -71 -138t-94 -125q-103 -116 -232.5 -189.5t-255.5 -73.5q-273 0 -273 208q0 19 2 36.5t8 47.5t14.5 62.5t19.5 66t22.5 63t29.5 64.5q30 65 66 126q24 41 78 124q75 107 154 202l83 -91l-65 -82l-67 -93q-15 -22 -42 -67 q-15 -24 -29 -47q-21 -36 -34 -61q-5 -9 -31 -60q-60 -125 -75 -233q0 -192 176 -192q53 0 106.5 25t107.5 76q92 92 176 246q14 26 36 73q18 38 32 71q28 68 51 141t36 144q5 28 8 57.5t3 54.5q0 20 -4.5 38.5t-13.5 40.5q-12 35 -33 60q-44 53 -98 53q-87 0 -181 -118 l-24 83q105 120 213 120q81 0 149.5 -88.5t101.5 -251.5q4 -22 7 -48.5t3 -50.5z" unicode="0"/>
<glyph glyph-name="one" horiz-adv-x="1030" unicode="1" d="M1134 1213l-43 -112q-38 -96 -76 -174q-63 -138 -137 -266l-84 -142l-110 -178q-58 -95 -108 -175q-58 -92 -98 -153l-148 38l159 226l74 100l84 112q86 112 154 217l73 111l89 145l-38 38q-79 -48 -132 -72l-47 -20l-56 -20l-15 52q96 35 200 110.5t204 206.5z"/>
<glyph glyph-name="two" d="M1103 1028q0 -115 -105 -253.5t-278 -270.5q-95 -70 -186.5 -123.5t-242.5 -124.5l99 -33q23 -8 49.5 -18.5t54.5 -22.5l110 -42q33 -12 80 -12q58 0 118 36t120 111l109 -77q-75 -82 -153 -125t-161 -43q-122 0 -284.5 75t-231.5 75q-20 0 -44 -9t-63 -31l-83 71 q53 47 67.5 53t73.5 17q33 5 70 20q50 19 56 21q27 13 40 19q131 65 262 165q126 95 219 194q47 47 85 94.5t66 95t42.5 92t14.5 79.5q-27 135 -118 135q-57 0 -122.5 -66.5t-133.5 -201.5l-73 61q32 61 65.5 110.5t75 92.5t89.5 65t101 22q92 0 140.5 -63.5t65.5 -137.5 q6 -24 6 -50z" unicode="2"/>
<glyph glyph-name="three" horiz-adv-x="1030" unicode="3" d="M1062 483q0 -38 -12 -75t-38 -76q-23 -39 -63 -79q-36 -36 -90 -76q-94 -68 -250 -116q-74 -21 -161 -33q-40 -5 -84.5 -8t-88.5 -3q-71 0 -137.5 8t-140.5 26l44 67q95 -21 180 -21q74 0 140 9t130 28t117 43t101 58q97 64 144 140q54 78 54 160q-17 136 -167 136 l-31 -1q-16 0 -29 -5l-27 -9l-42 -16l-51 -19l-32 72q54 22 104 49t92 58q95 69 145 143t50 151q-8 49 -31 72q-27 32 -67 32q-35 0 -66 -17q-33 -15 -70 -52.5t-134 -152.5l-60 69q10 12 36 41q21 23 33 36q17 18 30.5 30.5t29 25t30 24t29.5 21.5t26.5 16.5t23.5 10.5 l49 15q26 6 46 6q68 0 120 -47t73 -138q6 -24 6 -45q0 -95 -68 -159q-32 -31 -79 -62q-42 -28 -95 -52l4 -73h21h3q6 2 15 2q35 0 71 -9t77 -28q65 -29 86 -135z"/>
<glyph glyph-name="four" d="M1155 1151q-24 -61 -51 -122.5t-59 -128.5l-70 -151l-72 -147q-37 -79 -71 -148q-39 -81 -63 -126l-150 -294l-145 40l75 120l91 142l124 188l173 252l-66 30q-32 -35 -66 -58q-29 -20 -79 -40q-93 -35 -148 -35q-63 0 -97.5 32t-34.5 88l4 35q12 70 60 182 q24 54 58.5 121.5t78.5 143.5l67 -44q-131 -245 -142 -340q0 -28 6 -53t19 -41t33 -26q10 -4 21.5 -6t28.5 -2q100 0 183 81t135 187q24 46 40 86l35 90z" unicode="4"/>
<glyph glyph-name="five" d="M1131 1229q-47 -97 -195 -97h-13h-12q-20 0 -42 1t-45 4q-31 0 -74.5 7.5t-62.5 10.5q-72 -169 -86 -197l-70 -161l35 -40l77 32l45 15l42 9l46 3q95 0 157 -63q32 -34 52 -78q9 -20 15.5 -43.5t10.5 -53.5l4 -49q0 -32 -7 -65t-22 -65q-29 -63 -85 -124 q-113 -119 -312 -196q-95 -34 -205 -56q-102 -18 -210 -18q-15 0 -45.5 1t-45.5 1l-131 6l21 71l83 -4l92 -3q212 0 376.5 74.5t246.5 190.5q87 120 87 248q0 34 -11 57q-10 26 -33 48q-41 42 -111 42q-118 0 -228 -74l-70 44q72 147 132 284q57 129 108 261 q56 -8 115.5 -12t138.5 -4q93 0 141 70z" unicode="5"/>
<glyph glyph-name="six" d="M882 469q0 25 -5.5 40.5t-9 22.5t-12.5 19q-20 32 -61.5 49.5t-92.5 17.5q-19 0 -38.5 -3t-41.5 -10q-40 -12 -87 -39q-85 -48 -154 -130q-65 -79 -76 -165q0 -207 194 -207q98 0 187 62q44 29 80 67q32 33 62 84q25 45 40 96t15 96zM1046 1223q-165 -93 -310 -241 t-277 -367l71 -22q132 106 244 106q111 0 180 -62q34 -33 54.5 -76t28.5 -102l2 -37q0 -105 -75 -204q-39 -51 -90 -90t-116 -69q-124 -62 -270 -62q-181 0 -275 58q-86 53 -86 146q0 18 6 45q14 76 55 166.5t106 192.5q132 207 329 401q46 46 90 84.5t95 77.5 q96 74 194 130z" unicode="6"/>
<glyph glyph-name="seven" horiz-adv-x="1034" unicode="7" d="M1111 1174l-389 -608q107 0 165 -11q61 -9 110 -34l-26 -59q-84 21 -190 21q-52 0 -121 -10l-69 -79l-59 -70l-57 -71l-71 -92l-127 -164l-159 54l34 37l152 158l144 148q-12 24 -20 53q-3 16 -4 26.5t-1 31.5q0 5 6 10l20 12l35 15l42 12l44 9l50 7l206 255l228 285 l-40 59q-83 -53 -160.5 -79t-146.5 -26q-99 0 -158 46q-26 18 -41 54q-13 36 -13 79q3 23 12 46l74 -13q0 -57 48.5 -89.5t146.5 -32.5q34 0 69 6t78 21q64 21 122 55z"/>
<glyph glyph-name="eight" horiz-adv-x="1030" unicode="8" d="M716 309q0 39 -12 75l-12 35l-16 38l-47 103l-217 -113q-53 -27 -112 -82q-27 -25 -45 -57q-8 -15 -13 -28t-10 -32q0 -69 52 -108q22 -17 55 -27t69 -10q72 0 138 24q35 10 65 27.5t53 40.5q52 49 52 114zM1154 989q0 -27 -11.5 -55t-33 -54t-55.5 -56q-18 -15 -35 -28 t-38 -28t-71.5 -46t-59.5 -36l-122 -72q60 -116 88.5 -190t28.5 -121q0 -74 -54.5 -141t-161 -109t-236.5 -42q-160 0 -259 54q-40 23 -65 57q-22 35 -22 75v13q0 10 5 26q18 96 137 193q62 51 156.5 105t245.5 122l-36 103l-21 73q-14 54 -14 112q12 122 81 215 q31 40 66 73q31 29 73 58l43 -82q-71 -56 -109 -105q-48 -60 -48 -152q0 -62 13.5 -119.5t45.5 -121.5q62 29 111 62q30 18 56 35.5t58 41.5q130 97 130 192q-9 56 -47 81q-32 24 -75 24h-19l-11 90l32 2q82 0 147 -63q62 -60 83 -147z"/>
<glyph glyph-name="nine" d="M985 1022q-4 45 -18 81q-13 38 -35 63q-46 58 -117 58q-76 0 -144 -68q-64 -65 -105 -158q-23 -53 -35 -94.5t-12 -77.5q0 -78 51 -120q49 -35 112 -35q76 0 147 55q66 49 112 133q17 35 32 82q12 44 12 81zM1097 951q0 -115 -60 -253q-28 -68 -73 -134 q-23 -35 -48 -66.5t-59 -68.5q-119 -132 -306 -250q-169 -108 -402 -190l-35 71q273 90 470.5 238.5t336.5 376.5l-71 23q-64 -54 -125.5 -81.5t-120.5 -27.5q-111 0 -161 57.5t-50 136.5q0 18 4 41q9 71 45 151q8 20 17.5 38t22.5 40q23 38 54.5 77.5t61 67t65.5 50 t72 34.5q16 5 35 8t39 3q66 0 121.5 -25.5t97.5 -82.5t60 -152q9 -35 9 -82z" unicode="9"/>
<glyph glyph-name="colon" horiz-adv-x="717" unicode=":" d="M456 142q0 -24 -21.5 -55t-61.5 -54q-16 -10 -33.5 -16t-36.5 -6q-47 0 -47 23q5 42 35 87q25 40 53 40h74q38 0 38 -19zM683 713q0 -45 -35 -89q-14 -17 -31.5 -28t-34.5 -11q-38 0 -38 28q0 35 22 85q9 20 14.5 28t15.5 8h60q27 0 27 -21z"/>
<glyph glyph-name="semicolon" horiz-adv-x="717" unicode=";" d="M460 156q0 -14 -14 -36q-12 -23 -41 -59q-59 -80 -131 -144q-68 -57 -102 -57q-19 0 -34 11l-8 7l-6 10l1 3q2 5 14 16l17 17q32 28 71 72l38 51l46 72l17 29l12 17l11 4l20 2l64 -6q11 0 17 -2q7 0 8 -7zM667 711q0 -49 -32 -88q-27 -38 -62 -38t-35 27q0 8 1 19.5 t4.5 29t11.5 37.5l8 22q7 12 19 14h57q24 0 28 -23z"/>
<glyph glyph-name="less" horiz-adv-x="1321" unicode="&lt;" d="M1398 177l-35 -71l-1005 519l18 86l788 519l44 -69l-756 -493z"/>
<glyph glyph-name="equal" horiz-adv-x="1377" unicode="=" d="M1400 460h-1050l11 55h1028zM1330 804h-911l11 55h889z"/>
<glyph glyph-name="greater" horiz-adv-x="1321" unicode="&gt;" d="M1373 625l-1004 -519l-36 71l948 491l-757 493l44 69l787 -519z"/>
<glyph glyph-name="question" horiz-adv-x="889" unicode="?" d="M402 145q-3 -21 -28.5 -52.5t-71.5 -57.5q-36 -24 -85 -24q-46 0 -50 23q6 36 45 84q15 18 32.5 30.5t34.5 12.5h84q20 0 29 -3q7 -1 10 -13zM1074 1080q0 -49 -11 -83.5t-37 -62.5l-74 -68l-115 -92q-31 -24 -65 -52q-28 -23 -57 -50q-51 -48 -85 -91l-43 -54l-42 -63 q-19 -33 -28 -48q-12 -20 -19 -27h-4h-19t-23 -2l-28 -2q-12 0 -15 7q2 15 11 35l27 55q43 73 97 142t121 132l88 81l65 61l50 52q23 25 43 54t33 54q32 61 32 130q-9 68 -45 100q-18 16 -37 24t-42 8q-43 0 -70 -12q-23 -12 -37 -33q-10 -21 -18 -48q-6 -26 -6 -62 q0 -27 -5.5 -47t-16.5 -37q-6 -11 -25 -15l-45 -4l-13 9l-63 47q-6 4 -7 13l2 13q3 20 19 46q9 18 39 58q47 67 116 118q61 46 118 46q47 0 94 -33q24 -17 46 -42q17 -20 36 -53.5t33 -70.5q11 -29 18 -66.5t7 -66.5z"/>
<glyph glyph-name="at" horiz-adv-x="1696" unicode="@" d="M1101 920q-15 17 -30 29t-29 19q-27 15 -57 15q-42 0 -83 -12t-89.5 -39.5t-88.5 -61.5t-72 -76q-69 -87 -78 -188q0 -134 112 -134q48 0 116.5 45.5t129.5 105t83 100.5zM1539 619q0 -126 -98 -198.5t-249 -72.5q-97 0 -160 41q-29 18 -44.5 42.5t-15.5 56.5q0 4 1 14.5 t4 25.5l9 55l-52 12q-222 -227 -391 -227q-37 0 -71 43t-34 107v18l4 25q6 38 21.5 77t41 80.5t55 77.5t69.5 73q75 69 161 109q42 20 82 30.5t74 10.5q39 0 75.5 -20.5t84.5 -74.5l16 56l73 -39l-105 -292q-7 -19 -12.5 -52.5t-5.5 -78.5q0 -23 9 -44q10 -19 28 -39 q35 -33 91 -33q67 0 126 24q64 27 102 83q42 60 42 149q0 30 -2 52t-8 48q-13 57 -31.5 105.5t-48.5 101.5q-51 101 -128.5 183t-183.5 133q-22 10 -47 18t-58 17q-60 13 -113 13q-144 0 -274.5 -88.5t-222.5 -235.5q-42 -68 -77 -148q-15 -37 -27.5 -75.5t-24.5 -86.5 q-8 -37 -12 -71.5t-4 -76.5q0 -166 89.5 -277t234.5 -164.5t318 -53.5q103 0 192.5 20t164.5 59l44 -52q-55 -25 -102 -40l-68 -16l-69 -12l-77 -7l-85 -3q-127 0 -223 16q-51 9 -94 21t-86 32q-159 66 -235.5 180.5t-76.5 255.5q0 87 24 174q30 107 71.5 194t96.5 168 q28 40 56.5 74.5t62.5 67.5q63 62 130.5 104t136.5 65q33 10 68 16t69 6q78 0 144.5 -19.5t135.5 -62.5t128.5 -100.5t110.5 -132.5q48 -69 89 -159q38 -84 66 -180q15 -59 15 -102z"/>
<glyph glyph-name="A" horiz-adv-x="1366" unicode="A" d="M1378 1220l-73 37q-38 -95 -90 -186l-60 -98l-100 -153l-148 -219h307l57 201l22 76l31 111zM1461 597l-14 -61l-118 4l-139 -519l-191 32l188 487l-341 -4q-476 -519 -827 -519q-43 0 -69.5 6t-47.5 24q-32 26 -32 66q0 15 9 45q5 17 15 37q7 15 14 26q18 31 51 73 q27 35 48 56q20 18 37 20l113 -64l4 1l-2 -4q-2 -6 -8 -12l-21 -26l-26 -36l-13 -28q0 -31 18 -50t59 -19q31 0 64.5 9t68.5 31q31 16 73 45q21 15 40 29q23 17 45 36q36 27 67 55q50 42 91 80l129 117q-47 0 -97 -7t-70 -10q-63 -8 -114 -19l47 72l11 17h16l262 16 q151 193 244 326l81 121l64 106l43 78l96 178l112 -60l-98 -755h118z"/>
<glyph glyph-name="B" horiz-adv-x="1274" unicode="B" d="M1406 1073q0 -75 -48.5 -148t-131.5 -125q-39 -26 -91 -49q-43 -19 -116 -41l8 -68h40q202 0 241 -189q0 -32 -11.5 -70t-32.5 -77q-43 -79 -135 -155q-43 -35 -98 -66t-127 -56q-66 -22 -144 -34t-164 -12q-128 0 -219 28l51 62q68 -13 123 -13q156 0 288.5 57.5 t214.5 149.5t82 188q0 86 -45.5 130.5t-125.5 44.5q-56 0 -105 -10l-17 65q96 35 184 84q47 26 83.5 51.5t63.5 53.5q60 57 90 117t30 121q-18 92 -94 92q-29 0 -63 -17q-32 -14 -77 -51q-32 -27 -77 -70q-19 -19 -37 -37.5t-39 -42.5l-73 -81l-63 -76q-46 -53 -107 -130 l-141 -186l-181 -241q-82 -108 -198 -246l-154 33l419 557l105 146l87 124l70 102l77 123l53 95q35 67 70 160l67 -66l-107 -256l53 -43q62 80 118 142q50 56 94 96q18 16 38.5 30t39.5 23q36 18 73 18q19 0 37.5 -8.5t41.5 -28.5q45 -39 69 -126q11 -41 11 -74z"/>
<glyph glyph-name="C" horiz-adv-x="1088" unicode="C" d="M1293 1151q0 -136 -152 -261l-92 56q46 43 95 112q60 89 60 163q-3 24 -13 42q-8 18 -23 35q-33 35 -82 35q-124 0 -285 -156q-75 -76 -144 -168q-64 -87 -131 -203q-123 -225 -150 -400q-6 -36 -6 -72q0 -113 74 -172t222 -59q62 0 145 18l79 23q21 6 39 12t42 17l31 12 l49 24l-18 -60l-45 -25l-53 -23l-76 -28l-51 -16l-63 -15l-75 -14q-31 -5 -64 -8t-61 -3q-93 0 -171.5 30.5t-124 93t-45.5 154.5l3 48q3 27 4 31q5 14 6 20q18 80 50.5 167t83.5 179.5t106 174.5q27 39 57.5 79.5t61.5 76.5q65 76 130.5 135.5t134.5 107.5q128 86 236 86 q71 0 130 -54t80 -145q6 -24 6 -50z"/>
<glyph glyph-name="D" horiz-adv-x="1303" unicode="D" d="M1406 692q0 -61 -12.5 -126.5t-34.5 -124.5q-45 -118 -132 -217q-43 -47 -95.5 -85.5t-113 -65.5t-128 -41.5t-136.5 -14.5q-68 0 -124 12q-40 6 -62 13l-57 18l-167 58q-189 -90 -301 -90h-26t-24 -2l-41 -4q-12 0 -12 6l-13 77q3 21 52 46q65 32 157 48.5t149 16.5 q36 0 42 -2l2 -2q29 0 62.5 22.5t81.5 75.5q85 94 126 158l53 89l70 126q29 54 35 65q17 30 36 61l62 104l55 86q27 41 66 90l70 -44l-73 -130l-87 -176q-54 -119 -92 -187q-19 -36 -55 -92l-41 -63q-52 -67 -96 -109q-13 -14 -24 -24q-17 -16 -27 -23l-20 -12l-13 -6 q-15 -6 -22 -17l-10 -22q0 -11 21 -29q26 -20 72 -34q75 -22 142 -22q152 0 280.5 108t202 268t73.5 314q0 53 -10 102q-16 81 -40.5 145t-63.5 129q-79 133 -210 133q-86 0 -170 -75q-69 -63 -154 -204l-83 71q106 150 198 222.5t194 72.5q74 0 158.5 -56.5t159.5 -172.5 q38 -59 70 -130q28 -63 56 -155q12 -48 18 -88.5t6 -90.5z"/>
<glyph glyph-name="E" horiz-adv-x="1112" unicode="E" d="M1234 1155q0 -61 -25 -111l-96 70l13 42q14 42 14 70q-9 51 -35 80q-27 35 -68 35q-29 0 -62.5 -13t-71.5 -41q-62 -43 -136 -126q-16 -19 -40 -50q-16 -21 -22 -29q-13 -18 -25.5 -37.5t-23.5 -40t-19.5 -39t-16.5 -38.5q-13 -37 -13 -63q0 -51 35 -77q30 -24 77 -24 q23 0 39.5 2t40.5 9q40 10 89 37l37 -63l-169 -97q-49 -27 -98 -58t-91 -60t-81 -64q-34 -30 -70 -70q-64 -76 -79 -159q0 -151 149 -151q103 0 215 50q55 25 107 55q25 14 49.5 30t50.5 35q39 28 78 61l69 60l106 -93q-93 -76 -188 -132q-51 -32 -109 -58 q-24 -11 -52 -21.5t-64 -22.5q-122 -36 -242 -36q-177 0 -269 62q-84 57 -84 136l4 31q9 54 55 128q20 33 57 69q21 20 40 36t50 41q52 38 127 75.5t175 74.5l8 67h-50q-32 0 -78 27t-46 121q15 106 73.5 202t140.5 169q33 30 82 65q23 16 40.5 26.5t47.5 26.5q83 40 143 40 q43 0 84.5 -23.5t76.5 -69.5q16 -23 28 -52q4 -9 10 -28t9 -32z"/>
<glyph glyph-name="F" horiz-adv-x="1084" unicode="F" d="M1326 1369l-2 -81l-42 1l-75 1q-23 0 -40 -3.5t-30 -11.5q-24 -13 -56 -64q-24 -41 -61 -149q-33 -96 -103 -328l90 8l60 2q54 0 100 -4t84 -13l-45 -102q-101 46 -233 46l-46 -1q-17 0 -24 -1q-17 -5 -26 -6q-100 -185 -214 -324q-29 -35 -58 -65.5t-65 -62.5 q-65 -57 -143 -103q-147 -91 -321 -91q-16 0 -32 1t-36 5t-50 15q-49 18 -78 49q-20 21 -24 38l5 6l6 5l134 98l12 5q3 -1 6 -3t7 -6l15 -15q33 -32 64.5 -54.5t93.5 -22.5q100 0 195 76q42 35 84.5 78.5t75.5 91.5q53 77 93 142l76 130q-68 -17 -79 -20q-33 -9 -60 -18 q-43 -14 -92 -33l-30 63l53 19l57 15l79 18l113 20q51 118 80 168l55 103l51 93l97 199q-38 -6 -71.5 -13t-59.5 -16q-50 -15 -112 -45q-98 -47 -230 -149l-42 102q104 77 210 125q99 43 220 65q59 9 126.5 14t144.5 5z"/>
<glyph glyph-name="G" horiz-adv-x="1170" unicode="G" d="M1260 1139q0 -82 -38 -142l-85 59q44 70 44 165q-3 23 -12 43q-6 18 -22 34q-29 35 -78 35q-110 0 -256 -145q-133 -133 -242 -343q-54 -103 -86 -193t-44 -179l-4 -49q0 -94 48 -152t148 -58q117 0 218.5 60t164.5 164q51 86 65 198l115 -4q0 -68 -12.5 -148t-34.5 -160 q-40 -177 -136 -338q-47 -80 -108 -145t-137 -113q-153 -100 -364 -100q-66 0 -119.5 9t-95.5 32q-40 18 -70.5 40t-51.5 49q-27 34 -35 63l11 3l154 66l16 7l4 -1l46 -1q14 -2 23.5 -8t11.5 -22l-2 -27l-2 -31v-4q0 -45 45 -72t134 -27q53 0 100.5 12t91.5 37 q79 45 173 165q42 57 97 142q29 45 61.5 99t69.5 117l-74 35q-54 -58 -93.5 -89t-86.5 -54q-78 -39 -179 -39q-166 0 -253.5 69t-87.5 185l3 36l8 44q7 39 17 75.5t26 80.5q31 84 73.5 167t89.5 156.5t109 152.5q112 137 233 224q114 81 206 81q41 0 79 -25q37 -20 70 -67 t46 -108l6 -28z"/>
<glyph glyph-name="H" horiz-adv-x="1309" unicode="H" d="M1441 1297l-22 -84l-29 -101l-19 -66l-25 -80l-63 -199l98 -10l-14 -64l-81 3q-16 0 -39 -26q-26 -30 -53 -89q-39 -96 -74.5 -216t-35.5 -150q5 -37 26 -57q11 -10 26 -15t38 -5q46 0 138 38l84 38l-21 -79q-66 -31 -182 -70q-128 -35 -181 -35q-54 0 -95 29 q-37 28 -37 78q0 23 4 40l9 38l16 49l24 55l44 98l39 81l100 204q-254 0 -431 -33l-272 -383q-55 -76 -212 -260l-163 41l146 163l175 195l32 37l31 39l35 47l71 105q-30 -5 -67.5 -11.5t-58.5 -11.5q-34 -6 -56 -15l-47 -15l-24 -13q-11 -5 -20 -8l54 87q12 17 54.5 33.5 t228.5 42.5l111 200l41 80l40 80l73 152l61 135l76 -52q-44 -112 -106 -250q-30 -68 -72 -158q-36 -79 -85 -178q88 10 156 15t127 5l90 -4q21 0 33 6t18 19l9 19l7 20l23 58l83 234l79 236zM255 579q-13 -5 -21 -6l2 -7l9 -4z"/>
<glyph glyph-name="I" horiz-adv-x="889" unicode="I" d="M1093 1257q-23 -35 -44 -74q-11 -17 -20 -37t-18 -41q-22 -51 -33 -88l-27 -92l-43 -178l-19 -80l-24 -81q-26 -63 -50 -110q-13 -22 -29 -52t-28 -49q-61 -99 -148 -183q-41 -42 -88 -74t-106 -58q-116 -51 -244 -51q-98 0 -191 33l-63 22q-12 6 -12 13l139 130l3 7h4 q8 -1 17 -10l19 -18l35 -32l37 -25q21 -12 49 -18t64 -6q69 0 133 37t116 108q103 135 192 344l167 393q40 95 73 146q38 58 84 92l-41 63q-47 -15 -79 -21t-60 -6q-26 0 -61 9l-68 21q-24 7 -39 7q-32 0 -60 -12t-49 -31l-51 100q36 35 56 41t25 7t19 2l39 3l32 -2l26 -6 l93 -33q114 -39 167 -39q13 0 25 2t22 5z"/>
<glyph glyph-name="J" horiz-adv-x="889" unicode="J" d="M1023 1256l-30 -64l-25 -65l-50 -174l-63 -264l-41 -165q-20 -79 -23 -91q-11 -41 -24 -83q-50 -113 -103.5 -209t-112.5 -179q-108 -154 -257 -244t-345 -90q-74 0 -141 16q-35 6 -60 16q-19 6 -26.5 9t-23.5 11l-28 15l73 63l76 66l5 7l4 2q20 -3 43 -30 q15 -17 30.5 -31t33.5 -25t49.5 -17t75.5 -6q109 0 204 81q44 37 83.5 83t78.5 107q66 107 140 268l101 225l127 396q24 74 44.5 129t36.5 88t38.5 61t65.5 62l-37 66q-27 -10 -36.5 -13t-36.5 -9.5t-54 -6.5q-22 0 -55 9q-76 28 -98 28q-57 0 -98 -41l-49 100q27 30 53 39 l28 8l39 4q16 0 26 -2q13 0 26 -5l84 -34q101 -39 155 -39q19 0 40 6z"/>
<glyph glyph-name="K" horiz-adv-x="1252" unicode="K" d="M1435 1322q-5 -33 -12 -63.5t-20 -69.5q-21 -73 -66.5 -154t-111 -146.5t-157.5 -114.5q-53 -25 -120 -41l-61 -18q-19 -6 -33 -15t-24 -28t-10 -48q0 -96 25 -208q15 -60 33 -109.5t45 -91.5q60 -93 140 -93q71 0 166 45l45 22l48 26l-16 -69q-88 -58 -164 -87t-138 -29 q-105 0 -178 64.5t-107 169.5q-15 53 -24 109.5t-9 110.5v34q0 20 2 29q0 39 7 84q3 25 18 98l-49 22l-534 -740l-166 44l880 1269l83 -62l-252 -496l46 -31q32 32 55 32h29l23 -4h55q57 0 113 32.5t111 96.5q96 115 162 268l44 119q9 26 15.5 48.5t12.5 50.5z"/>
<glyph glyph-name="L" horiz-adv-x="1049" unicode="L" d="M1155 172q-27 -59 -91 -110q-72 -63 -222 -63q-50 0 -109.5 8t-146.5 27q-164 35 -277 35l-94 -3q-18 0 -43 -3.5t-60 -9.5q-64 -10 -189 -40l-12 64q70 21 132 61q70 46 133 116q15 16 31 36t31 39l62 89q51 76 140 230l108 251q17 42 34.5 83.5t34.5 79.5q33 72 60 123 q14 27 27 48t29 43q30 40 67 76q65 60 144 60q104 0 171 -91l-40 -45q-43 55 -118 55q-45 0 -84.5 -27.5t-72.5 -84.5q-17 -32 -32 -61t-37 -75q-36 -78 -87 -204q-27 -67 -49 -118q-25 -58 -45 -101q-47 -104 -94.5 -187.5t-105 -155.5t-138.5 -141l38 -54q161 47 242 47 q92 0 172 -21l61 -13l68 -14l57 -3q128 0 182 106z"/>
<glyph glyph-name="M" horiz-adv-x="1800" unicode="M" d="M1946 202l-8 -59q-43 -40 -128 -81q-46 -21 -90.5 -33t-80.5 -12q-54 0 -97 34q-18 15 -31 41q-10 25 -16 64q0 54 10 90q8 40 34 100l22 54l21 46l-60 36q-157 -162 -253 -247.5t-165 -133.5q-59 -42 -115.5 -63t-97.5 -21q-57 0 -86 29.5t-29 74.5q0 25 11.5 58.5 t35 82.5t54 104.5t77.5 133.5l-67 20l-57 -46q-42 -34 -69 -61l-41 -41l-41 -35q-21 -18 -78 -57l-77 -53q-168 -102 -307.5 -156t-241.5 -54q-74 0 -111 18t-37 62q0 14 1 21t8.5 27t22.5 43l42 53l48 51q9 9 24 21.5t27 21.5l40 28q17 9 30 9l88 -67l-19 -14 q-27 -18 -46 -40q-15 -19 -26 -44q0 -83 75 -83q149 0 327 130q168 122 338 325q77 92 157 205q73 105 141 216q116 197 178 367l86 -60l-201 -476l-147 -348q-37 -94 -51 -143q-19 -60 -19 -101q0 -46 17.5 -66t51.5 -20q99 0 379 296l95 128q44 63 67.5 107t43.5 95.5 t39 122.5l36 149l49 224l117 -72q-6 -33 -9.5 -50t-13.5 -60l-45 -188l-56 -230l-39 -171q-15 -71 -23 -130.5t-8 -109.5v-18l4 -30q9 -38 36 -61q27 -21 74 -21q28 0 91 22q39 12 89 46zM158 305l4 -3l-1 5z"/>
<glyph glyph-name="N" horiz-adv-x="1231" unicode="N" d="M1554 1436q-81 -114 -144.5 -255t-115.5 -297l-35 -113l-43 -144l-53 -175q-77 -261 -132 -426l-186 17l-1 142l-1 192l2 318q4 48 7 103t3 93l5 131l-75 20q-45 -130 -83 -213q-19 -43 -42.5 -91.5t-49.5 -96.5q-98 -176 -226 -317q-124 -136 -279 -227 q-134 -80 -298 -110l-27 116q129 24 237 73t197 127q186 159 321 411q130 239 309 676l87 -15q0 -40 2.5 -101.5t2.5 -70.5l12 -157l7 -98l12 -190l9 -155l10 -240l81 -10q186 810 375 1137z"/>
<glyph glyph-name="O" horiz-adv-x="1252" unicode="O" d="M1324 842q0 -150 -57.5 -299t-161.5 -266.5t-251 -190.5q-141 -69 -303 -69q-152 0 -253 78q-92 74 -92 208q0 26 3 51.5t11 58.5q15 64 45 139t78.5 165t102.5 173q50 74 118 158q65 79 125 136q65 60 133 108q127 89 233 89q69 0 124.5 -35.5t120.5 -104.5l-42 -64 q-24 30 -58 64q-30 30 -63.5 45.5t-69.5 15.5q-81 0 -195 -90q-106 -85 -214 -225.5t-188 -304.5q-36 -77 -65 -160q-23 -72 -37 -148l-5 -56q0 -114 71 -165.5t150 -51.5q44 0 94 12q23 6 50 16t55 25q107 50 201 149q48 51 87 108t70 128q61 142 61 311q0 46 -1.5 66 t-6.5 55l-12 82l130 -80l8 -57z"/>
<glyph glyph-name="P" horiz-adv-x="1233" unicode="P" d="M1398 967q0 -62 -34 -130q-16 -30 -45 -61q-13 -13 -38 -33q-14 -12 -28 -23q-68 -46 -174 -71l-45 55q27 10 49 21t48 29q38 25 64.5 50t46.5 57q42 66 42 139v12q0 8 -2 16q0 10 -7 27q-9 40 -21.5 71.5t-34 67t-48 57t-74.5 41.5q-34 -60 -54 -100l-35 -78l-88 -247 q-60 -175 -118 -314q-47 -94 -107 -179q-65 -92 -152.5 -171.5t-205 -131t-257.5 -51.5q-94 0 -167 32l-34 15q-24 12 -27 27l8 11l115 92l11 10l3 -5l8 -11q81 -75 186 -75q159 0 291 154q60 71 131 184q33 53 68.5 117.5t69.5 133.5q17 45 31 79q18 44 28 65q19 47 22 53 q7 17 28 59q40 92 71 140l125 203q-144 0 -274 -82q-123 -77 -260 -250l-56 65q72 92 145 159q37 34 76 60q18 13 38 25q10 6 37 22q34 18 73 34q11 4 32 10.5t35 9.5q70 16 140 16q46 0 84.5 -11t72.5 -35q70 -47 121 -126q22 -31 44 -79q5 -11 12 -28t19 -53q3 -9 4.5 -18 t3.5 -18zM-14 207l1 1l2 2v11l-10 4l4 -11z"/>
<glyph glyph-name="Q" horiz-adv-x="1252" unicode="Q" d="M1291 799q0 -111 -23 -197q-10 -52 -26 -90q-14 -40 -39 -91q-48 -90 -113 -161q-34 -38 -77.5 -71.5t-105.5 -73.5q95 -101 162 -192q63 -87 124 -194l-140 -70q-7 18 -18.5 43t-22.5 47q-24 47 -55 100q-42 68 -74 114t-80 106q-63 -26 -120 -39t-115 -13 q-141 0 -230 75.5t-89 206.5q0 57 14 107q15 69 45 151q16 44 33.5 82.5t40.5 83.5q50 97 96 171t108 154q112 148 237 245q116 90 211 90q60 0 112 -34q13 -10 26 -20.5t28 -26.5q15 -13 28.5 -27t29.5 -33l-36 -61q-43 59 -90 92q-22 15 -42.5 23t-40.5 8 q-52 0 -112 -36.5t-135 -116t-135.5 -166.5t-120.5 -199q-118 -221 -148 -411l-4 -57q0 -111 66 -163t140 -52q38 0 69.5 6t85.5 31l-50 56q-13 14 -20 21q-2 2 -15 12l-61 42l55 67q45 -26 92 -66q44 -36 96 -93q71 56 127.5 121.5t103.5 143.5q94 161 94 396l-1 57 q0 21 -1 33.5t-6 42.5l-11 78l115 -75l13 -88q4 -44 4.5 -58t0.5 -31z"/>
<glyph glyph-name="R" horiz-adv-x="1520" unicode="R" d="M1660 203l-8 -72q-165 -114 -280 -114q-180 0 -255 190q-38 100 -61 220q-10 56 -16 119t-6 125q176 33 263 109q46 40 70.5 89t24.5 104q0 27 -6 57q-20 82 -74 154q-29 38 -71 63t-108 43q-64 -112 -90 -174l-89 -244q-19 -53 -29 -81q-14 -37 -33.5 -86t-35.5 -89 q-3 -6 -28 -65l-49 -88l-60 -90q-33 -46 -69.5 -87t-83.5 -84q-91 -82 -209 -132q-58 -24 -125 -38.5t-133 -14.5t-126 16l-47 18q-21 9 -33 21q-15 11 -20 22q0 6 5 9l117 94q12 12 19 13l33 3l20 3q6 0 6 -5l-2 -8l-4 -25q0 -23 33 -44q33 -18 101 -18q81 0 163 46 q38 24 71.5 51.5t70.5 69.5l64 82l65 98l80 143l53 99l44 101l42 90q23 51 38 80q10 20 37 72l55 97l98 159q-141 0 -269.5 -80t-265.5 -252l-54 67q70 85 139 147t140 105q137 82 299 82q131 0 253 -96q60 -48 103 -109q40 -56 65 -133q12 -45 12 -80q0 -72 -45 -128.5 t-117 -96.5q-39 -19 -83 -34q-34 -11 -101 -26q24 -169 52 -275q14 -56 35 -103t54 -94q62 -88 164 -88q56 0 197 93z"/>
<glyph glyph-name="S" horiz-adv-x="987" unicode="S" d="M1136 1160l-85 -43q-3 33 -14 59q-5 15 -10.5 27t-16.5 32q-45 83 -137 83q-101 0 -165 -83.5t-64 -214.5q0 -82 44 -151q19 -30 47 -65q24 -31 60 -70l93 -96l22 -26l25 -31l23 -34l19 -36q18 -35 25 -83q0 -101 -64.5 -194.5t-197 -155t-326.5 -61.5q-54 0 -99 6 t-95 18q-82 18 -147 76q-26 23 -48 56t-37 73l174 81q13 -42 33.5 -74t51.5 -59q38 -35 96 -54.5t136 -19.5q104 0 187 37q86 43 131.5 108t45.5 141q0 35 -11 65t-34 62q-36 51 -104 122q-49 56 -83 103q-29 40 -49 101.5t-20 129.5q0 55 13 104.5t39 105.5 q22 53 46.5 86.5t63.5 68.5q65 54 142 54q73 0 129.5 -33.5t100.5 -95.5q37 -50 60 -119z"/>
<glyph glyph-name="T" horiz-adv-x="1026" unicode="T" d="M1326 1369l-2 -81l-42 1l-75 1q-24 0 -41.5 -3.5t-30.5 -11.5q-9 -5 -23 -21.5t-26 -41.5q-20 -37 -39 -98l-98 -295q-83 -170 -164 -298q-40 -64 -88.5 -128t-102.5 -124q-105 -114 -236.5 -183t-281.5 -69q-16 0 -32 1t-36 5t-50 15q-49 18 -78 49q-20 21 -24 38l5 6 l6 5l134 98l12 5q3 -1 6 -3t7 -6l15 -15q33 -32 64.5 -54.5t93.5 -22.5q27 0 51 5t52 17q51 23 100 67q26 23 49 48t48 54q46 55 95 128q21 32 47 75t52 89q54 93 115 209l242 453q-39 -6 -73.5 -13t-60.5 -16q-50 -15 -112 -45q-98 -47 -230 -149l-42 102q104 77 210 125 q99 43 220 65q59 9 126.5 14t144.5 5z"/>
<glyph glyph-name="U" horiz-adv-x="1258" unicode="U" d="M1393 1223q-24 -72 -108 -285q-108 -274 -171 -454q-69 -192 -69 -265q0 -83 102 -83q79 0 187 65l-16 -56q-68 -64 -143.5 -96t-154.5 -32q-152 0 -152 114q0 56 32 135q18 44 41 89t60 106l-53 42q-170 -140 -299 -234q-66 -47 -122.5 -84t-101.5 -63q-92 -51 -166 -78 t-124 -27q-99 0 -99 67q0 13 7 41q11 37 45 101q12 24 48 81l72 117l98 156l128 200l383 598l79 -65l-324 -611q-137 -182 -205.5 -292t-74.5 -150q0 -33 17 -53q18 -18 56 -18q18 0 36 5t46.5 18t55.5 28.5t64 41t61.5 43t70.5 51.5l128 100q32 29 44 40q17 16 46 46l70 75 q30 36 58 77t55 88q46 83 98 210l46 127l54 153z"/>
<glyph glyph-name="V" horiz-adv-x="871" unicode="V" d="M1224 1307l-205 -320l-191 -297l-250 -387l-188 -289l-145 35l117 391l96 341l96 356l66 257l92 -34q-45 -242 -88 -414l-55 -220l-85 -322l75 -18l95 151l79 130l127 219l142 250l137 240z"/>
<glyph glyph-name="W" horiz-adv-x="1493" unicode="W" d="M1773 1305l-163 -267l-214 -357l-63 -112l-64 -115l-64 -118l-84 -161l-78 -160l-155 36l71 282q10 48 21 96q15 55 23 87l31 155l32 191l-58 28l-216 -261l-114 -132l-83 -100q-73 -89 -145 -185l-70 -98l-64 -101l-151 36l51 117l58 141l88 228l57 144l48 131l50 134 l50 136l59 170l48 144l83 -35l-66 -212l-41 -131l-63 -182l-152 -424l69 -22l188 245l81 104l75 96l70 88l91 113l82 99l17 191l76 -16l20 16l87 -76l-119 -167l-34 -333q-12 -120 -24 -189q-2 -16 -7 -39.5t-10 -42.5l-18 -68l78 -23l140 268l144 270l133 253l49 99l50 100 z"/>
<glyph glyph-name="X" horiz-adv-x="1321" unicode="X" d="M1545 1225l-113 -137l-61 -69l-54 -59l-154 -165l-206 -226q0 -81 7 -137q0 -149 63 -232q59 -76 161 -76q67 0 144 38l37 18l34 20l-16 -61q-142 -109 -279 -109q-147 0 -207 106q-32 53 -53 128q-10 36 -16.5 75t-12.5 98l-129 -97q-95 -70 -182 -130q-66 -43 -147 -90 t-153 -79q-155 -73 -261 -73q-53 0 -96 22q-34 19 -34 59q0 13 1 20.5t7 27.5q14 34 51.5 86.5t79.5 90.5q35 32 48 32q6 0 11 -4l87 -57l6 -5l-21 -21q-15 -15 -24 -33q-8 -13 -13 -30q0 -40 11 -54q13 -25 56 -25q70 0 322 164q242 159 382 283q0 86 9 173l18 146l17 138 q5 37 9.5 67t13.5 75q21 127 56 268l87 -47l-39 -219q-17 -109 -28 -233q0 -47 -2 -88q-7 -143 -7 -163l94 104l88 102l65 80l39 52l46 63l43 63l123 180z"/>
<glyph glyph-name="Y" horiz-adv-x="1108" unicode="Y" d="M1279 1248q-40 -127 -62 -233l-45 -193q-8 -39 -9.5 -46.5t-12.5 -40.5l-33 -94q-18 -48 -44 -106t-69 -146q-8 -14 -20 -33t-24 -34l-52 -64q-12 -13 -27 -27.5t-33 -31.5q-36 -31 -74 -58q-77 -52 -178 -88q-47 -15 -103.5 -24t-113.5 -9q-110 0 -184 37t-114 89 q-29 41 -34 69l11 1l150 68l13 4q4 -5 7 -14l8 -26l24 -46l14 -24l21 -25q25 -23 61 -40q37 -14 93 -14q111 0 200 62q18 13 37 30t40 39q35 37 71 88q56 85 154 273q47 91 82 158q40 75 58 107l-58 52q-18 -27 -34.5 -47t-39.5 -43q-31 -34 -73 -68q-78 -66 -161 -103 q-43 -20 -79.5 -29.5t-73.5 -9.5q-29 0 -48 6t-29 23q-22 36 -22 99q6 45 28 118t86 215q31 71 67 144q20 43 41 87q13 27 48 96l76 -56l-61 -126q-53 -114 -101 -236q-20 -52 -33 -96t-13 -75q0 -89 81 -89q37 0 72 16t83 55q42 33 87.5 87t89.5 121q81 124 154 309z M221 288h2l-4 2z"/>
<glyph glyph-name="Z" horiz-adv-x="1106" unicode="Z" d="M1249 172q-12 -28 -36 -56.5t-55 -54.5q-35 -30 -92 -46t-134 -16q-31 0 -48 1t-48.5 5t-50 7t-37.5 8l-64 14l-112 21q-107 14 -174 14q-107 0 -183 -14l-92 -18l-120 -27l-37 73q100 50 175 105l81 62q41 32 77 65l282 264l-5 24l-3 28q0 50 34 82.5t127 32.5l83 121 l64 91l49 67l42 55l63 76l28 29l44 42l-41 59q-72 -47 -139 -74q-63 -23 -118 -23q-88 0 -129 48t-41 117q0 24 4 40t6 23t8 22l74 -13l-1 -17q0 -61 42.5 -93.5t128.5 -32.5q65 0 128 35q29 12 59 36q26 20 63 56q0 -17 20 -48q7 -12 13 -20.5t20 -26.5 q-146 -230 -336 -571h126q118 0 123 -27q0 -20 -2.5 -33.5t-10.5 -28t-22 -14.5l-46 3l-35 5q-33 4 -56.5 6t-47.5 2q-42 0 -113 -6q-33 -40 -72 -81.5t-84 -85.5l-92 -83l-96 -78q-91 -70 -215 -143l44 -58q159 51 266 51q23 0 47 -1t57.5 -4.5t92.5 -17.5l67 -16l65 -13 l68 -5q130 0 191 109zM1151 1410q6 6 13 12q-11 0 -13 -12v0z"/>
<glyph glyph-name="bracketleft" d="M1147 1390l-16 -92q-6 2 -20.5 5.5t-28.5 5.5l-54 3l-34 -1l-41 -3l-588 -1495l-8 -13q-11 -21 -12 -34q0 -48 36 -78t109 -30h59l86 3l-26 -47q-135 -14 -269 -14q-51 0 -85 5t-60 18q-48 21 -48 75q6 37 45 91l722 1529l-52 -18l-11 61q69 43 138 43q50 0 87.5 -3 t70.5 -11z" unicode="["/>
<glyph glyph-name="backslash" horiz-adv-x="1436" unicode="\" d="M1560 -42l-104 -43l-848 1634l50 32z"/>
<glyph glyph-name="bracketright" horiz-adv-x="1147" unicode="]" d="M894 1200l-432 -1498l55 7l23 -61q-164 -48 -331 -48q-221 0 -341 13l95 99q99 -21 213 -21l129 2l520 1503l2 45q-12 94 -104 104h-31l-32 -1l9 47q52 13 107 13q50 0 77.5 -30.5t36.5 -76.5z"/>
<glyph glyph-name="asciicircum" horiz-adv-x="1395" unicode="^" d="M1470 950h-161l-408 454h167zM901 1404l-403 -454h-163l400 454h166z"/>
<glyph glyph-name="underscore" horiz-adv-x="1080" unicode="_" d="M1054 -372h-1029l12 55h1006z"/>
<glyph glyph-name="grave" horiz-adv-x="631" unicode="`" d="M707 991q-29 0 -73.5 41t-84.5 103q-35 53 -35 76q2 15 18 15l73 6q17 0 21 -4l8 -15l13 -33l17 -41l20 -37q21 -36 45 -69l19 -32q0 -11 -20 -11z"/>
<glyph glyph-name="a" horiz-adv-x="983" unicode="a" d="M823 646q-31 34 -61.5 50t-60.5 16t-62.5 -11.5t-73.5 -37.5q-70 -46 -142 -122q-33 -33 -63 -72l-55 -78q-48 -81 -56 -139q0 -120 85 -120q28 0 60 13t80 43l85 60q39 30 76 67q76 73 97 116zM1020 214l-11 -69l-57 -36l-72 -39q-15 -8 -32.5 -15t-39.5 -14 q-36 -11 -60 -11q-44 0 -73.5 21t-29.5 48q0 18 5 37l22 53l36 79l-58 14l-108 -88q-25 -20 -36 -28.5t-54 -39.5q-20 -14 -42 -27q-12 -7 -45 -26q-81 -43 -162 -43q-51 0 -90 33q-36 33 -36 95q0 26 4.5 56t35.5 86.5t83 124.5q107 140 236.5 238t221.5 98q43 0 80 -23 q38 -20 89 -79l20 59l88 -48l-115 -326q-39 -98 -39 -136q12 -66 61 -66q13 0 19.5 1.5t22.5 6.5q24 8 62 27z"/>
<glyph glyph-name="b" horiz-adv-x="885" unicode="b" d="M811 565q0 26 -8 43t-23 34q-29 31 -71 31q-34 0 -74.5 -17t-83.5 -49q-38 -27 -89 -75q-45 -43 -92.5 -98t-94.5 -118t-98 -140q19 -27 42 -47q20 -15 42 -24q37 -14 96 -14q92 0 202 79q101 75 176 185q38 60 57 112.5t19 97.5zM947 555q0 -84 -54.5 -179.5 t-150.5 -177.5t-209.5 -129t-206.5 -47q-56 0 -95 24t-78 92l-89 -108l-112 25q31 45 66.5 100t70.5 112l85 150l88 164l83 164q40 81 79 172l65 151l55 143l74 -33l-234 -598l63 -32q206 237 329 237q50 0 99 -42t68 -140z"/>
<glyph glyph-name="c" horiz-adv-x="719" unicode="c" d="M789 652q0 -74 -39 -128l-86 50q13 36 13 61q-3 17 -8 25t-17 18q-6 5 -14 9q-14 7 -32 7q-26 0 -59 -19.5t-81 -64.5q-79 -80 -144 -187q-33 -57 -52 -107.5t-19 -94.5q0 -43 27.5 -75t88.5 -32q59 0 151 25.5t221 77.5l-17 -66l-142 -53l-118 -37q-57 -15 -108 -24 q-24 -3 -48.5 -5t-47.5 -2q-88 0 -132.5 29.5t-44.5 92.5l5 39q17 116 116 254t239 240q64 46 123 70t112 24q50 0 75 -34q15 -21 24 -45q5 -12 7 -18.5t7 -29.5z"/>
<glyph glyph-name="d" horiz-adv-x="1022" unicode="d" d="M845 647q-32 35 -62.5 50t-63.5 15q-21 0 -38.5 -4t-43.5 -16q-44 -18 -109 -63q-110 -73 -210.5 -187t-113.5 -208q0 -50 25.5 -76t79.5 -26q102 0 219 87q105 81 194 202q43 60 72.5 113.5t50.5 112.5zM1091 1178l-37 -154q-18 -72 -39 -135l-53 -166l-74 -226 q-86 -260 -86 -298q0 -28 16 -45q18 -16 52 -16q31 0 213 78l-13 -69q-69 -33 -177 -76l-95 -31q-43 -10 -63 -10q-43 0 -73 23q-23 20 -23 46q0 31 14.5 63.5t57.5 88.5l-62 37q-144 -133 -266 -195.5t-235 -62.5q-56 0 -96.5 30.5t-40.5 89.5q0 15 9 51q18 87 95 183 t187 185q51 43 108 79q48 31 109 62q52 26 97 40q18 5 40.5 9t38.5 4q37 0 72 -22q18 -11 41 -30.5t52 -49.5q54 168 87 296q12 48 30 130q14 66 26 125z"/>
<glyph glyph-name="e" horiz-adv-x="707" unicode="e" d="M688 625q-6 65 -65 65q-28 0 -58.5 -13t-64.5 -41q-62 -49 -124 -125q-36 -47 -54 -76q-28 -45 -63 -118q101 27 169.5 55t132.5 68t95.5 87t31.5 98zM798 656q0 -69 -39.5 -132.5t-155.5 -129.5q-56 -29 -150 -65q-77 -27 -213 -59l-6 -39q0 -126 157 -126q36 0 83 9 q27 5 49 11t56 18q76 24 141 59l-13 -53q-37 -22 -93 -45l-110 -38q-135 -36 -233 -36q-102 0 -146 41q-21 23 -32.5 42t-11.5 41v72l-56 -30l22 42l55 32q24 58 60 114.5t86 114.5q98 116 210.5 189t207.5 73q55 0 92 -31q17 -15 26 -33t14 -41z"/>
<glyph glyph-name="f" horiz-adv-x="504" unicode="f" d="M817 1011l-70 -4v9v23l-2 28q-4 45 -26 65q-20 21 -53 21q-52 0 -76 -50l-34 -122l-43 -163h103h34q17 -3 24 -4l61 -9l-28 -68q-31 8 -64 12l-67 4l-35 -1l-41 -3q-48 -118 -107.5 -244.5t-153.5 -305.5l-91 -176q-44 -86 -48 -93q-23 -44 -44 -81q-6 -12 -40 -75 q-26 -49 -43 -78l-86 -152l-175 27l53 69l44 62q59 85 187 302l431 751q-26 0 -47 -2.5t-77 -12.5q-48 -6 -93 -18l16 57l104 22q54 9 105 9l52 169q13 58 26 90q11 36 30 76q22 53 50.5 76t70.5 23q45 0 85 -46t59 -129q6 -26 9 -58z"/>
<glyph glyph-name="g" horiz-adv-x="920" unicode="g" d="M806 627q-22 42 -47.5 60.5t-55.5 18.5q-74 0 -176 -89q-93 -82 -168 -196.5t-75 -184.5q0 -51 20 -75.5t57 -24.5q45 0 107 34q59 29 121.5 88.5t122.5 152.5q15 24 26.5 46.5t24.5 51.5q23 52 43 118zM908 666l-219 -656q-58 -113 -106.5 -188.5t-116 -139.5 t-162.5 -100t-216 -36q-66 0 -144 21q-15 4 -28.5 9t-26.5 11q-27 10 -51 25l97 97q78 -69 190 -69q113 0 193.5 54.5t130.5 125t112 184.5q38 65 58 96q25 40 60 82l-62 47q-117 -102 -205 -150.5t-162 -48.5q-132 0 -132 138q17 103 79.5 204t157.5 194q47 45 90 81 q49 40 89 63q20 11 39.5 20.5t38.5 16.5q34 14 60 14q29 0 50 -14q14 -8 43 -36l50 -52l18 52z"/>
<glyph glyph-name="h" horiz-adv-x="875" unicode="h" d="M948 221l-15 -72q-229 -119 -300 -119q-41 0 -76 23q-29 15 -29 58q0 16 3 32t11 37t30 61l31 59l58 104q35 75 35 100q0 24 -14.5 38.5t-44.5 14.5q-14 0 -31.5 -5.5t-36.5 -20.5l-38 -30l-46 -43l-98 -97l-92 -96l-237 -243l-104 30l114 175q25 39 49 80q29 49 47 81 q96 165 160 296l57 125l52 126l34 90l69 186l73 -33l-323 -774l56 -44l125 140l36 39l62 63l49 42l51 35q44 29 84 29q39 0 66.5 -30.5t35.5 -77.5q0 -17 -5 -33l-13 -38l-83 -181q-20 -37 -33.5 -75.5t-13.5 -55.5q17 -52 63 -52q38 0 182 56z"/>
<glyph glyph-name="i" horiz-adv-x="488" unicode="i" d="M507 744l-248 -445q-9 -13 -16.5 -26t-15.5 -28q-9 -23 -9 -40q0 -25 14.5 -40t46.5 -15q43 0 97 20l126 47l-24 -66q-69 -31 -189 -78q-58 -22 -100 -33q-18 -4 -37 -7t-33 -3q-95 0 -95 89q3 24 10 41l14 29l36 63l25 42l140 219l175 275zM638 1162q0 -24 -12 -57 t-36 -60q-19 -19 -41 -19t-25 10l-2 19q9 68 27 98l10 17l9 4h53q14 0 17 -12z"/>
<glyph glyph-name="j" horiz-adv-x="375" unicode="j" d="M468 742l-61 -131l-52 -108l-187 -394l-159 -341l-50 -109l-39 -94l-183 23q37 73 114 199q54 92 131.5 215.5t173.5 268.5l105 199l30 62l34 73l72 177zM544 1133q0 -40 -20 -77q-12 -30 -40 -30q-24 0 -30 37q0 46 11 86l3 14q1 10 7 11h47q12 0 16 -13z"/>
<glyph glyph-name="k" horiz-adv-x="824" unicode="k" d="M915 672q-246 -125 -445 -295l28 -48l69 6q42 0 42 -44l-2 -7l-10 -21l-7 -15l-3 -12l-15 -56v-22q6 -29 28.5 -46t59.5 -17q60 0 151 55l66 42l-12 -48q-143 -137 -293 -137q-138 0 -138 90q0 43 12 88l1 14l-3 17q-2 9 -8 15h24q0 35 -11.5 50t-34.5 15 q-17 0 -42.5 -14t-64.5 -44q-68 -52 -145 -123q-66 -57 -102 -98l-108 34q92 129 232 384q153 273 357 777l73 -34l-383 -874l71 -14q49 51 98 97q42 40 97 88l98 82l102 80l82 62l78 54z"/>
<glyph glyph-name="l" horiz-adv-x="461" unicode="l" d="M587 1179l-60 -153q-19 -49 -24 -63q-11 -27 -32 -78l-52 -129q-38 -94 -68 -166q-38 -91 -63 -146l-69 -165q-19 -49 -19 -78q0 -61 60 -61q34 0 84 19l46 16l52 22l39 18l-19 -64q-262 -121 -345 -121q-93 0 -93 85q2 17 4.5 31.5t6.5 24.5l15 36l101 204l85 171 q18 37 43 90.5t44 97.5l56 131l60 148l63 165z"/>
<glyph glyph-name="m" horiz-adv-x="1139" unicode="m" d="M1333 220l-7 -73q-69 -36 -123 -62t-90 -41q-66 -27 -113 -27q-63 0 -82 41q-5 23 -5 56l5 26q2 6 5 14t6 14l15 31l21 34l17 30l13 24l30 66q5 14 7.5 22t3.5 16q-9 41 -51 47q-19 0 -47.5 -16t-76.5 -52q-76 -64 -166 -162l-82 -91l-80 -98l-110 28l240 396l6 15l2 13 q0 24 -11 35.5t-27 11.5q-13 0 -47.5 -20t-89.5 -64l-103 -88l-114 -108l-110 -113q-25 -26 -61 -67q-22 -25 -36 -41l-110 30l493 728l66 -43l-175 -303l58 -41q15 12 22 18q25 20 43 36l86 81l81 78l66 56q51 40 91 40q30 0 48 -18q15 -17 20 -44q0 -42 -34 -107l-40 -67 q-13 -20 -26.5 -38t-32.5 -40l75 -40q77 88 125 136t86 75q68 43 103 43q15 0 38 -15q18 -10 26 -42l4 -33q0 -15 -2 -26.5t-9 -30.5q-10 -37 -32 -85l-39 -81l-25 -51l-6 -21l-2 -23q6 -43 51 -49q17 0 49 12l83 33z"/>
<glyph glyph-name="n" horiz-adv-x="903" unicode="n" d="M939 219l-12 -72q-102 -56 -174 -88q-67 -29 -101 -29q-36 0 -69 23q-26 15 -26 58q0 21 2 31l11 38q12 36 57 125l50 99q15 39 23 63.5t8 36.5q0 21 -17 39q-12 8 -32 14q-26 0 -48 -13l-16 -12l-19 -16l-30 -29q-9 -8 -22.5 -20.5t-31.5 -32.5l-51 -52l-133 -137 l-124 -125l-100 -98l-94 29l435 727l62 -36l-160 -336l56 -48q58 76 104 128q21 24 51 55t59 59q51 50 91.5 76.5t67.5 26.5q28 0 54 -26q26 -29 35 -78q0 -12 -2 -23t-4 -19l-12 -39q-16 -50 -70 -172q-41 -93 -41 -125q0 -16 11 -34q8 -9 20 -15.5t27 -6.5q34 0 165 54z "/>
<glyph glyph-name="o" horiz-adv-x="774" unicode="o" d="M781 531q0 -129 -69.5 -245.5t-181 -186t-245.5 -69.5q-202 0 -202 146l5 41q4 31 7 44.5t13 40.5q14 42 39 87q47 87 125.5 167.5t180.5 149.5q13 8 54 33q24 14 34 19.5t45 23.5q27 13 50 24l21 -61q-46 -18 -95 -49q-42 -27 -93 -69q-100 -87 -167 -190 q-31 -51 -51.5 -103t-20.5 -90q0 -141 123 -141q69 0 146 59q36 30 65 67.5t54 94.5q45 102 45 233l-5 58l108 33l6 -30l5 -26l3 -32z"/>
<glyph glyph-name="p" horiz-adv-x="862" unicode="p" d="M878 217l-9 -72l-58 -35l-72 -39q-37 -18 -75 -31q-37 -10 -60 -10q-90 0 -90 71q0 17 4 39.5t13 47.5q18 55 50 114l47 98l22 50q1 4 4 16.5t4 16.5l-3 17q-15 50 -61 50q-37 0 -76 -29l-18 -14q-15 -12 -24 -21l-23 -25l-65 -86l-41 -56q-100 -118 -168 -219.5 t-181 -283.5l-169 -270l-122 25l113 186l109 185l76 134l72 130l67 126l94 181l89 181l48 104l44 97l42 96l50 -32l-211 -545l61 -38q123 143 181 204q63 66 96.5 88.5t58.5 22.5q20 0 44 -24l20 -30q7 -12 10 -31q0 -76 -19 -145q-28 -89 -55 -150q-32 -78 -32 -102 q0 -56 58 -56l25 3l33 12l73 37z"/>
<glyph glyph-name="q" horiz-adv-x="920" unicode="q" d="M823 625q-21 42 -46.5 61.5t-55.5 19.5q-37 0 -80 -20q-42 -18 -95 -62q-43 -36 -89 -86q-41 -43 -83 -102q-78 -112 -88 -200q0 -51 19.5 -75.5t55.5 -24.5q46 0 108 34q57 30 125 92q18 17 32 32t30 35t30 39t31 44q27 40 56 97q23 46 50 116zM925 668l-88 -209 l-79 -185l-73 -169q-108 -247 -173 -380q-25 -54 -45.5 -97t-35.5 -73l-168 45l82 120l68 96l133 186l74 103l41 59q6 9 21 36q10 18 14 26l-52 25q-28 -20 -48 -36q-9 -7 -36 -32l-58 -46l-36 -28l-48 -30l-56 -26q-34 -12 -61 -18q-25 -4 -38 -4.5t-21 -0.5q-27 0 -47 5.5 t-45 21.5q-34 20 -34 74l4 37q8 50 29 98q11 26 24.5 51t31.5 53t35.5 52t38.5 49q37 46 86.5 94t95 83t91.5 61q19 11 38 20t41 18q37 14 61 14q30 0 57 -20.5t78 -82.5l25 54z"/>
<glyph glyph-name="r" horiz-adv-x="674" unicode="r" d="M855 699l-49 -131q-38 27 -79 27q-37 0 -88 -26t-109 -80q-113 -100 -212 -214l-91 -107l-79 -99l-40 -49l-118 31l411 726l65 -33l-147 -326l63 -26l111 130q50 58 74 82q52 55 106 87.5t112 32.5q39 0 70 -25z"/>
<glyph glyph-name="s" horiz-adv-x="584" unicode="s" d="M707 643l-59 -32q-42 77 -115 77q-49 0 -82 -34q-16 -17 -24 -33.5t-8 -36.5q0 -26 15 -55l18 -31l29 -43l40 -63q24 -39 36.5 -72.5t12.5 -61.5q0 -89 -81 -169q-39 -39 -103 -59.5t-146 -20.5q-102 0 -155 24t-53 81l7 29q2 8 4.5 15.5t6.5 14.5l119 13l-2 -20 q0 -91 104 -91q36 0 66.5 12t53.5 34q47 49 47 102q0 27 -9 48q-4 14 -7.5 22.5t-12.5 23.5l-24 44l-45 73q-18 35 -31 72q-10 35 -10 55q0 58 34 108q16 25 35 43q10 9 20.5 17t27.5 18q53 28 119 28q62 0 106 -38t66 -94z"/>
<glyph glyph-name="t" horiz-adv-x="553" unicode="t" d="M786 810l-28 -73l-36 7l-52 5h-76l-77 -4q-50 -99 -126 -238q-83 -156 -109 -209t-31 -93q0 -65 63 -65q31 0 75 16l56 21l39 17l40 18l-21 -61q-124 -59 -209 -90t-126 -31q-87 0 -87 87q7 49 59 147.5t124 213.5l161 259q-72 0 -121 -7q-25 -3 -77 -15l21 56l111 20 l93 11l82 172l37 80l64 -28l-91 -212l70 1l21 1h72q37 0 79 -6z"/>
<glyph glyph-name="u" horiz-adv-x="901" unicode="u" d="M931 216l-13 -68q-58 -34 -149 -72q-50 -22 -87.5 -34t-58.5 -12q-27 0 -50 15q-19 15 -25 39v29q0 31 28 77q9 19 34 55l61 92l-40 49l-152 -121l-83 -69l-71 -56q-53 -39 -127 -80q-13 -7 -25.5 -12t-31.5 -11q-14 -3 -26 -5t-25 -2q-56 0 -56 70q6 33 34 86 q35 69 118 201l240 399l69 -42l-230 -425l-14 -24l-15 -29v-16q0 -54 53 -54q32 0 75 25t104 81q47 44 103 105q25 28 51 59q22 27 53 65q76 98 115 168l80 -43l-150 -391q-12 -24 -12 -54q14 -61 66 -61q28 0 51 11l65 34z"/>
<glyph glyph-name="v" horiz-adv-x="781" unicode="v" d="M945 669l-126 -53l7 -48q0 -33 -15.5 -69.5t-46.5 -84.5q-61 -94 -159 -182q-92 -82 -205 -146q-49 -27 -96 -41.5t-81 -14.5q-29 0 -56 9.5t-50 29.5q-42 35 -42 111q0 23 6 56q15 81 59 176t122 213q67 96 146 191l73 -52q-242 -311 -265 -498q0 -55 15 -81 q9 -15 26 -25q20 -10 42 -10q60 0 160 82q88 75 166 172q39 49 62 97q20 42 29 101l-51 -14l-40 -9h-21l-13 67l41 43l20 17q20 14 53 14q26 0 47 -14q22 -12 49 -47l144 65v-55z"/>
<glyph glyph-name="w" horiz-adv-x="1307" unicode="w" d="M1447 668l-119 -53l8 -42l2 -20q0 -46 -22.5 -96t-69.5 -115q-94 -129 -230 -222q-126 -90 -221 -90q-65 0 -119 48q-27 26 -39 66q-11 42 -11 128l-113 -92l-71 -50q-66 -45 -133 -72.5t-129 -27.5q-55 0 -96 31q-35 29 -35 91q0 35 12 82q16 55 53.5 128t89.5 151 l58 81q12 16 31.5 41t34.5 42l60 70l64 69l63 -50q-273 -308 -317 -496l-5 -42q0 -82 86 -82q33 0 78 22q25 13 50 29t59 42q65 49 104 83q46 40 81 82q0 145 52 220t145 75q27 0 27 -41q0 -29 -9 -59l-16 -41l-13 -26l-33 -61q-51 -92 -51 -205q0 -120 99 -120 q25 0 60.5 19.5t82.5 60.5q40 33 82 78q19 21 37 44q13 17 34 46q41 58 57 98q21 51 21 115l-58 -22l-29 -6h-23l-18 71l23 30q12 15 24 24q18 16 53 16q28 0 50 -14q22 -11 53 -48l140 66z"/>
<glyph glyph-name="x" horiz-adv-x="821" unicode="x" d="M866 717l-32 -31l-83 -80l-56 -56l-100 -104l-72 -75q18 -115 62 -172q39 -53 101 -53q41 0 114 35l52 26l-13 -64l-51 -40l-55 -36q-60 -37 -108 -37q-55 0 -102 50q-27 29 -44 79.5t-39 168.5l-109 -112q-43 -44 -71 -68q-52 -46 -124 -86q-61 -32 -130 -32 q-36 0 -74 17q-25 11 -25 54l4 26q6 36 21 66l116 48l-2 -8q0 -46 18.5 -70.5t54.5 -24.5q23 0 51.5 14.5t66.5 45.5q10 9 34 30.5t44 40.5l113 109q-9 86 -14 170.5t-5 169.5l4 104l73 -43l2 -51l2 -68l19 -228l177 187l48 55l65 79z"/>
<glyph glyph-name="y" horiz-adv-x="785" unicode="y" d="M810 654q-34 -92 -99 -244q-60 -141 -144 -323l-143 -316l-50 -111l-39 -91l-149 27q21 51 52 104l76 127l118 184l169 267l-64 33q-56 -59 -116 -112q-53 -47 -112 -90q-107 -77 -182 -77q-13 0 -32 16q-18 21 -18 71q9 63 83.5 207t175.5 312l90 158l61 -41l-155 -324 q-92 -161 -98 -197q0 -30 13.5 -45.5t37.5 -15.5h17q33 0 91 44q54 40 112 107t125 173q48 80 107 200z"/>
<glyph glyph-name="z" horiz-adv-x="740" unicode="z" d="M761 697l-21 -116q-73 -39 -163 -107q-53 -37 -98 -73.5t-91 -79.5q-13 -12 -32 -30q-26 -25 -51 -51q-9 -10 -27 -31q-25 -30 -53 -65q64 -21 122 -35q55 -10 81 -10q85 0 189 20q35 6 67 15q14 3 31 8.5t39 13.5l-14 -56l-91 -28l-107 -21q-117 -21 -206 -21 q-72 0 -122 6t-93 18q-58 21 -87 36l33 85q72 84 193.5 177.5t448.5 280.5q-72 27 -121.5 41.5t-93.5 22.5l-81 10l-96 4l51 113q67 0 178 -36q105 -33 215 -91z"/>
<glyph glyph-name="braceleft" horiz-adv-x="1080" unicode="{" d="M1107 -290q-191 0 -291 86.5t-100 244.5l3 48l6 67q4 43 6 70.5t2 50.5q0 171 -66 243q-51 57 -121 75l11 91q80 17 132 85q29 38 46.5 98t17.5 137v119v114q0 178 63 259q43 56 102 71l7 -62q-53 -26 -73 -86.5t-20 -138.5l6 -59l5 -57l8 -64l4 -61q0 -145 -50 -229 q-23 -40 -67.5 -75.5t-113.5 -67.5v-56q74 -31 122 -67.5t80 -81.5t49 -102t17 -122v-123l-2 -117q0 -93 52.5 -149.5t158.5 -83.5z"/>
<glyph glyph-name="bar" horiz-adv-x="754" unicode="|" d="M640 -372h-116l53 2097h10z"/>
<glyph glyph-name="braceright" horiz-adv-x="1080" unicode="}" d="M943 595q-73 -15 -127 -84q-26 -34 -42.5 -95.5t-16.5 -138.5l1 -53q0 -19 7 -68l8 -115q0 -156 -100 -243.5t-291 -87.5l7 57q106 24 159.5 82t53.5 151v19v16v12v11q0 39 -4 59v121q0 69 16.5 125t46.5 100t78 80t127 70v56q-70 30 -112.5 65t-69.5 78q-50 82 -50 229 l3 55l10 68l8 118q0 86 -18.5 141.5t-71.5 83.5l6 62q55 -12 101 -71q29 -38 46.5 -104t17.5 -155v-114v-119q0 -82 18 -144t53 -98q57 -61 126 -78z"/>
<glyph glyph-name="asciitilde" horiz-adv-x="1237" unicode="~" d="M1194 748q-18 -91 -57.5 -133t-114.5 -42q-53 0 -110 12l-68 16l-84 23q-78 27 -147 27q-76 0 -119 -64h-109q20 45 53 83q41 44 86 65q11 5 17 7t27.5 7.5t38.5 5.5q14 0 29.5 -1t42.5 -5t77 -19l107 -32l37 -12l35 -9l48 -4q76 0 106 75h105z"/>
<glyph glyph-name="nonbreakingspace" horiz-adv-x="631" unicode="ย"/>
<glyph glyph-name="exclamdown" horiz-adv-x="1110" unicode="ยก" d="M1283 1248l-30 -97l-41 -140l-49 -195q-19 -84 -59 -174q-18 -45 -49 -109l-71 -144q-32 -48 -70 -92q-33 -40 -79 -83q-20 -18 -46 -38t-52 -37q-51 -31 -119 -62q-61 -26 -137.5 -41.5t-152.5 -15.5q-113 0 -196 39q-75 33 -117 87q-33 45 -36 70h11l153 67l11 3l9 2 q3 -6 6 -16l12 -26l24 -45q4 -11 7.5 -16t12.5 -15l16 -18q22 -21 59 -37t100 -16q57 0 108 15t95.5 45t83 67.5t75.5 89.5q67 97 164 273l64 117q36 64 54 95q6 9 35 55l-65 48q-20 -26 -38 -46q-21 -24 -39 -42q-33 -34 -76 -67q-84 -64 -172.5 -102.5t-159.5 -38.5 q-33 0 -53.5 6t-30.5 23q-24 38 -24 99q6 45 24.5 100.5t51.5 130.5q23 56 51 114l71 143q27 55 46 90q29 53 46 84l85 -57l-71 -140q-56 -105 -103 -217q-13 -30 -21 -52t-17 -51q-12 -42 -12 -74q0 -89 84 -89q37 0 75 17q20 8 41 21t46 32q86 65 187 207q44 63 88 142 q17 31 39.5 78t43.5 93zM1203 1634q-18 -66 -71 -119q-26 -26 -57 -39.5t-67 -13.5q-69 0 -105 52q-18 26 -31 60q-4 14 -7 32t-3 35v13l55 2l1 -6q12 -60 41 -92q34 -37 82 -37q26 0 50.5 14.5t48.5 48.5t40 72zM163 288h1l-4 4q2 -1 3 -4z"/>
<glyph glyph-name="cent" horiz-adv-x="959" unicode="ยข" d="M850 656l-64 -140l-69 -139l-221 -425l-81 -155l-65 -127l-51 -101l-162 27l64 109l42 67l38 55l136 188l93 129l93 136l-64 29q-75 -67 -131 -112q-33 -26 -58 -44q-13 -10 -62 -42q-61 -40 -110.5 -59.5t-89.5 -19.5q-18 0 -42 15q-9 6 -12.5 15.5t-3.5 27.5l4 27 q14 69 95 202q28 48 43 73t48 77l108 168l105 159l68 -43l-179 -321q-104 -161 -110 -198q0 -30 12.5 -45.5t37.5 -15.5h19q47 4 133 71t186 192q41 52 86 121q21 32 42 67.5t42 75.5zM905 1164l-62 -101q-8 -14 -25 -29l-34 -24q-35 -19 -87 -19q-79 0 -103 51 q-29 64 -29 124v15l57 4q9 -68 39 -104q31 -34 77 -34q15 0 34.5 9.5t44.5 31.5q30 26 68 97z"/>
<glyph glyph-name="sterling" horiz-adv-x="889" unicode="ยฃ" d="M1023 1256l-30 -64l-25 -65l-50 -174l-63 -264l-41 -165q-20 -79 -23 -91q-11 -41 -24 -83q-50 -113 -103.5 -209t-112.5 -179q-108 -154 -257 -244t-345 -90q-74 0 -141 16q-35 6 -60 16q-19 6 -26.5 9t-23.5 11l-28 15l73 63l76 66l5 7l4 2q20 -3 43 -30 q15 -17 30.5 -31t33.5 -25t49.5 -17t75.5 -6q109 0 204 81q44 37 83.5 83t78.5 107q66 107 140 268l101 225l127 396q24 74 44.5 129t36.5 88t38.5 61t65.5 62l-37 66q-27 -10 -36.5 -13t-36.5 -9.5t-54 -6.5q-22 0 -55 9q-76 28 -98 28q-57 0 -98 -41l-49 100q27 30 53 39 l28 8l39 4q16 0 26 -2q13 0 26 -5l84 -34q101 -39 155 -39q19 0 40 6z"/>
<glyph glyph-name="currency" horiz-adv-x="1585" unicode="ยค" d="M1488 604q0 41 -6 80q-12 69 -37 128q-22 59 -60 117q-73 112 -176.5 181t-214.5 69q-104 0 -210.5 -68t-182.5 -182q-33 -51 -59 -116q-21 -57 -37 -129q-6 -36 -6 -80q0 -118 64 -216.5t179.5 -154.5t251.5 -56q138 0 251 56.5t179 153.5q14 21 26 47.5t21 54.5 q17 57 17 115zM1738 107l-38 -38l-280 205q-93 -71 -196.5 -105t-229.5 -34q-49 0 -97.5 6t-88.5 16l-72 21q-14 5 -29 11.5t-35 16.5l-50 29q-22 14 -52 39l-283 -205l-38 38l283 203q-50 65 -72 125.5t-22 132.5q0 47 12.5 106.5t31 105.5t48.5 96l55 82q14 19 30.5 38.5 t37.5 42.5l-125 202l36 36l125 -202q41 38 73.5 62t71.5 46q71 39 160 39q76 0 147 -34q36 -16 76.5 -44.5t83.5 -68.5l122 202l37 -37l-124 -201q71 -80 120 -161q57 -94 81 -206q12 -54 12 -104q0 -69 -20.5 -130.5t-71.5 -127.5z"/>
<glyph glyph-name="yen" horiz-adv-x="1028" unicode="ยฅ" d="M1476 1535l-1 -19l-4 -48l-4 -49l-2 -53l2 -87l-105 5h-208q-23 -41 -67 -126.5t-114 -224.5q-66 -133 -135 -253q-62 -108 -130 -212q-64 -96 -134.5 -172.5t-163.5 -147.5q-172 -131 -383 -131q-59 0 -121 21q-50 20 -78 49q-17 18 -23 38l12 11l141 98l13 5q3 -1 6 -3 t8 -6l14 -15q33 -32 64 -54.5t95 -22.5q114 0 236 112q60 56 114 121q27 33 53 68t55 77q17 25 55 84q51 80 61 96q63 101 135 225l85 146l69 116l63 100q-83 -12 -145 -30q-27 -8 -54 -18t-62 -26q-55 -26 -116.5 -62.5t-129.5 -86.5l-39 100q292 205 601 205l257 -8v47.5 t4 54.5q0 21 2.5 37.5t8.5 38.5h65z"/>
<glyph glyph-name="brokenbar" horiz-adv-x="717" unicode="ยฆ" d="M456 142q0 -24 -21.5 -55t-61.5 -54q-16 -10 -33.5 -16t-36.5 -6q-47 0 -47 23q5 42 35 87q25 40 53 40h74q38 0 38 -19zM683 713q0 -45 -35 -89q-14 -17 -31.5 -28t-34.5 -11q-38 0 -38 28q0 35 22 85q9 20 14.5 28t15.5 8h60q27 0 27 -21z"/>
<glyph glyph-name="section" horiz-adv-x="1176" unicode="ยง" d="M1193 1095l-77 2l-2 34q-11 53 -38 90q-30 44 -74 44q-51 0 -81.5 -49t-30.5 -149q0 -22 1 -33t6 -36t11 -48q3 -11 12 -38l36 -113l41 -127q15 -54 24 -111l4 -67q0 -98 -41 -189.5t-130 -154.5q-44 -30 -107 -49q-26 -8 -64 -14.5t-80 -11.5q0 -137 -56 -217 q-60 -87 -163 -132.5t-226 -45.5q-115 0 -174 53q-59 47 -59 123q0 14 1 21.5t7 30.5l7 25h199l-3 -19q0 -70 20 -103q23 -46 86 -46q66 0 123.5 48t68.5 132l4 76v12l-1 30l-3 33l-14 119q-11 97 -11 148l4 74q5 32 10 61t13.5 59.5t17 53.5t23.5 54q47 105 114 174 q48 48 100 70l17 -68q-69 -39 -109 -127q-21 -47 -32 -105t-11 -128v-23l2 -29l13 -95l11 -83l19 -115q85 0 136.5 28.5t89.5 85.5q61 102 61 268q0 48 -39 219l-34 192q-11 82 -11 130q0 66 26 137q13 33 29 59.5t38 47t47 33.5q25 11 50 11q32 0 71 -24q21 -15 36.5 -30.5 t33.5 -41.5t30 -55q6 -13 10 -24.5t10 -34.5z"/>
<glyph glyph-name="dieresis" horiz-adv-x="1112" unicode="ยจ" d="M1265 1159q0 -22 -1 -32.5t-7 -28.5q-6 -25 -25 -56l-102 72q17 35 24 61q3 14 5 26.5t2 23.5q-9 53 -36 81q-32 35 -70 35t-86 -21.5t-102 -66.5q-98 -81 -181 -195q-20 -29 -36 -55.5t-29 -53.5q-22 -50 -22 -85q0 -48 36 -77q35 -24 80 -24q24 0 41.5 2t40 8.5 t46 15.5t50.5 23l40 -64l-177 -96q-106 -56 -198 -118q-87 -59 -161 -136q-32 -35 -55 -76q-19 -38 -28 -80q0 -153 155 -153q53 0 109 12.5t114 36.5q62 27 113 55.5t103 65.5q82 56 155 121l110 -93q-98 -74 -199 -133q-49 -27 -113 -56q-58 -26 -121 -44.5t-122.5 -27.5 t-127.5 -9q-183 0 -281 63q-43 30 -66 63q-21 33 -21 72q0 8 0.5 12.5t4.5 18.5q12 57 58 128q22 35 60 70t92 74t129.5 75t186.5 77l8 67h-52q-34 0 -89 29q-20 11 -32 42q-9 29 -9 77q17 106 77.5 200.5t150 170.5t180 117t154.5 41q73 0 135.5 -54.5t81.5 -152.5l5 -27z M955 1641q0 -29 -12.5 -63t-33.5 -58q-15 -15 -32 -17h-14q-5 1 -7 9v20l9 39l14 48q2 7 3.5 11.5t5 11.5t11.5 10l43 -2q11 0 13 -9zM1195 1610q0 -24 -3.5 -36.5t-7.5 -22.5t-11 -20q-16 -28 -38 -28l-17 3q-5 3 -10 12l-3 16q0 115 23 118l44 -2q16 0 19 -11z"/>
<glyph glyph-name="copyright" horiz-adv-x="1721" unicode="ยฉ" d="M1275 946q0 -94 -21 -147l-52 18q10 23 16 44.5t6 41.5q0 19 -6.5 33t-19.5 29q-26 28 -65 28q-58 0 -129 -66q-34 -32 -60.5 -68.5t-55 -93t-41.5 -98.5q-17 -56 -17 -106q0 -79 44 -122q46 -41 96 -41q43 0 100 22q32 13 63.5 28.5t77.5 42.5l29 -40q-54 -39 -135 -75 q-94 -43 -173 -43q-87 0 -149 46q-54 42 -54 129q0 30 2 37q18 138 93 257q40 64 80.5 109t89.5 84q90 69 159 69q44 0 80 -29q36 -27 42 -89zM1706 576l-3 55q-2 15 -3 30q-5 22 -7 33q-33 136 -95 242q-33 60 -67.5 107t-80.5 93q-40 40 -90 77q-43 31 -94.5 56t-103.5 38 t-101 13q-131 0 -266 -84q-66 -42 -122 -98q-28 -29 -53.5 -59.5t-51.5 -68.5q-49 -74 -83.5 -151.5t-55.5 -164.5q-14 -75 -14 -118q0 -148 83.5 -268t233 -186t329.5 -66t329 66q74 35 131 79.5t100 106.5q85 124 85 268zM1770 535q0 -59 -12 -110q-5 -24 -14 -48t-23 -51 q-51 -100 -145 -171t-227 -114q-67 -19 -138 -30q-30 -4 -71.5 -7t-78.5 -3q-158 0 -290.5 41t-225.5 113t-144 169q-23 47 -36 100.5t-13 108.5q0 41 4 73t16 74q27 99 67 183t98 166q54 78 116.5 140.5t137.5 114.5q138 91 270 91t269 -91q34 -23 67.5 -50.5t65.5 -59.5 q65 -64 120 -141.5t98 -170.5q35 -77 68 -182q21 -77 21 -145z"/>
<glyph glyph-name="ordfeminine" horiz-adv-x="1088" unicode="ยช" d="M1293 1149q0 -77 -43 -142l-92 57q46 67 46 159q-5 23 -14 40q-7 17 -22 35q-29 35 -82 35q-34 0 -73 -16t-87 -50q-23 -15 -43.5 -31.5t-46.5 -42.5q-31 -31 -46 -47t-50 -57q-46 -54 -100 -135q-57 -87 -126 -208q53 20 103 36t93 26q81 18 157 18q29 0 48.5 -4 t42.5 -16q14 -7 21 -16.5t9 -23.5q0 -11 -6 -23l-39 -73l-10 4l-26 15l-45 23l-44 19q-12 5 -19 7t-30 7l-58 4q-77 0 -224 -49q-90 -156 -111 -294q-6 -36 -6 -72q0 -113 74 -172t222 -59q80 0 164 25q8 2 33 9.5t49 16.5q36 13 79 36l24 12l40 24l-22 -75q-25 -15 -64 -34 l-75 -31q-18 -7 -39 -13q-2 -1 -46 -13l-91 -21q-44 -9 -86.5 -14t-86.5 -5q-97 0 -174.5 30.5t-122 93t-44.5 153.5l3 46q3 26 4 30q5 15 6 21q18 80 50.5 167t83.5 179.5t106 174.5q27 39 57.5 79.5t61.5 76.5q65 76 130.5 135.5t134.5 107.5q128 86 236 86q71 0 130 -54 t80 -145q6 -24 6 -52zM943 670l-2 -4l5 3q-2 0 -3 1z"/>
<glyph glyph-name="guillemotleft" horiz-adv-x="1004" unicode="ยซ" d="M589 650l-63 -62l-56 -52l-83 -74q-16 -16 -24 -28.5t-10 -21.5q0 -10 1.5 -15.5t6.5 -17t11.5 -23t17.5 -26.5l142 -197l-83 -52l-48 87l-52 87l-76 129l-10 23l15 18l29 28l125 117q62 59 117 123zM900 625q-51 -64 -85 -98l-27 -27l-44 -38l-26 -25q-10 -12 -15 -24 q0 -22 183 -222l-71 -50l-43 58l-51 68l-84 114l-10 17l-5 12q3 7 5 10l9 11l28 31l41 42l93 97l22 24l34 42z"/>
<glyph glyph-name="logicalnot" horiz-adv-x="1377" unicode="ยฌ" d="M1394 409h-69l-43 285h-869l11 54h900z"/>
<glyph glyph-name="minus" horiz-adv-x="832" unicode="ยญ" d="M769 512l-4 7v-8q2 1 4 1zM765 511q-1 -43 -9 -65q-8 -26 -32 -36q-56 -27 -171 -27h-184h-88l-17 -3h-4q-7 0 -7 3l5 8l59 77q12 14 17 16l19 2h14l50 -1l52 -1q74 0 293 27h3z"/>
<glyph glyph-name="registered" horiz-adv-x="1721" unicode="ยฎ" d="M1403 411l-41 -24l-34 -16l-29 -9l-33 -4q-64 0 -94 83q-15 48 -24 111q-4 31 -6 60.5t-2 65.5l1 30l1 6q70 15 122 45q69 44 69 132q0 44 -38 85q-16 19 -41 31t-55 12q-63 -70 -96 -140q-11 -20 -19 -37q-1 -3 -22 -48l-49 -118q-43 -99 -87 -171q-36 -63 -95.5 -109 t-129.5 -46l-30 1l-2 53q53 0 98.5 24t90.5 88.5t112 192.5l37 83l49 95q16 28 41 55q33 36 97 94q-89 0 -140 -16q-40 -12 -86 -46q-60 -46 -107 -99l-38 37q18 20 28 31q20 20 47 43q35 29 74 47q41 21 89 31q21 4 50 7t55 3q55 0 104 -23q23 -11 43 -28.5t38 -39.5 q32 -44 39 -94q0 -94 -50 -141q-27 -25 -60 -42q-28 -14 -83 -26l4 -71l6 -59q3 -31 12 -60t26 -47q17 -15 41 -23l21 -1q5 0 25 9l41 22zM1706 576l-3 55q-2 15 -3 30q-5 22 -7 33q-33 136 -95 242q-33 60 -67.5 107t-80.5 93q-40 40 -90 77q-43 31 -94.5 56t-103.5 38 t-101 13q-131 0 -266 -84q-66 -42 -122 -98q-28 -29 -53.5 -59.5t-51.5 -68.5q-49 -74 -83.5 -151.5t-55.5 -164.5q-14 -75 -14 -118q0 -148 83.5 -268t233 -186t329.5 -66t329 66q74 35 131 79.5t100 106.5q85 124 85 268zM1770 535q0 -59 -12 -110q-5 -24 -14 -48t-23 -51 q-51 -100 -145 -171t-227 -114q-67 -19 -138 -30q-30 -4 -71.5 -7t-78.5 -3q-158 0 -290.5 41t-225.5 113t-144 169q-23 47 -36 100.5t-13 108.5q0 41 4 73t16 74q27 99 67 183t98 166q54 78 116.5 140.5t137.5 114.5q138 91 270 91t269 -91q34 -23 67.5 -50.5t65.5 -59.5 q65 -64 120 -141.5t98 -170.5q35 -77 68 -182q21 -77 21 -145z"/>
<glyph glyph-name="macron" horiz-adv-x="889" unicode="ยฏ" d="M1148 1258q-52 -72 -94 -152t-61 -136l-56 -180q-42 -136 -70 -204q-10 -21 -20 -41q-19 -38 -33 -62q-28 -51 -67 -105t-78 -98t-86 -86q-93 -82 -213 -134t-259 -51q-65 0 -138 17l-58 15q-12 4 -26 10t-24 11l-18 10q-7 4 -10 7l144 127l12 8q7 -2 15 -10l20 -18 q20 -19 40 -33t39 -24q47 -24 114 -24q145 0 266 142q117 138 214 338l196 392q55 104 89 152q42 58 93 92l-35 67q-52 -15 -87 -21t-66 -6q-30 0 -66 9l-34 10l-23 8l-19 6l-38 4q-69 0 -120 -45l-52 101q22 19 37 27q17 12 32 16q39 11 87 11q38 0 66 -7l98 -34 q120 -39 180 -39q14 0 26 2t24 5zM1013 1713q0 -23 -4 -39l-8 -38q-12 -39 -32 -62q-15 -18 -37 -18q-18 0 -24 14l-1 26q0 21 8 50l13 50l6 22q3 9 10 9h50q15 0 19 -14zM1217 1669q1 -49 -17 -81t-43 -32q-22 0 -31 21l-4 21l-1 42v38q0 51 17 51l50 -2q19 0 24 -18t5 -40 zM-163 79q-2 2 -2 5l-2 -8z"/>
<glyph glyph-name="degree" horiz-adv-x="652" unicode="ยฐ" d="M904 1172q0 -126 -74.5 -205t-186.5 -79q-88 0 -138.5 50t-50.5 124q8 72 49 144t106 119.5t139 47.5l72 -2l-8 -54l-40 1q-95 0 -165 -79q-34 -38 -56 -81q-18 -39 -18 -81q0 -66 37 -97q36 -33 84 -33q39 0 78 21t64 66.5t25 102.5l-3 30l-7 34l78 27z"/>
<glyph glyph-name="plusminus" horiz-adv-x="1377" unicode="ยฑ" d="M1468 145h-1205l25 55h1169zM1349 737h-447l8 -348h-71l8 348h-446l11 54h439l9 429h30l8 -429h440z"/>
<glyph glyph-name="twosuperior" horiz-adv-x="889" unicode="ยฒ" d="M1093 1257q-23 -35 -44 -74q-11 -17 -20 -37t-18 -41q-22 -51 -33 -88l-27 -92l-43 -178l-19 -80l-24 -81q-26 -63 -50 -110q-13 -22 -29 -52t-28 -49q-61 -99 -148 -183q-41 -42 -88 -74t-106 -58q-116 -51 -244 -51q-98 0 -191 33l-63 22q-12 6 -12 13l139 130l3 7h4 q8 -1 17 -10l19 -18l35 -32l37 -25q21 -12 49 -18t64 -6q69 0 133 37t116 108q103 135 192 344l167 393q40 95 73 146q38 58 84 92l-41 63q-47 -15 -79 -21t-60 -6q-26 0 -61 9l-68 21q-24 7 -39 7q-32 0 -60 -12t-49 -31l-51 100q36 35 56 41t25 7t19 2l39 3l32 -2l26 -6 l93 -33q114 -39 167 -39q13 0 25 2t22 5z"/>
<glyph glyph-name="threesuperior" horiz-adv-x="488" unicode="ยณ" d="M507 744l-248 -445q-9 -13 -16.5 -26t-15.5 -28q-9 -23 -9 -40q0 -25 14.5 -40t46.5 -15q43 0 97 20l126 47l-24 -66q-69 -31 -189 -78q-58 -22 -100 -33q-18 -4 -37 -7t-33 -3q-95 0 -95 89q3 24 10 41l14 29l36 63l25 42l140 219l175 275zM638 1162q0 -24 -12 -57 t-36 -60q-19 -19 -41 -19t-25 10l-2 19q9 68 27 98l10 17l9 4h53q14 0 17 -12z"/>
<glyph glyph-name="acute" horiz-adv-x="678" unicode="ยด" d="M888 882q0 -48 -6.5 -91t-18.5 -92q-91 -13 -148 -13q-73 0 -101.5 1.5t-82.5 6.5l-377 -675l-125 35l427 648l-92 1l33 64l76 -3l105 -7q109 0 214 16l20 109h76z"/>
<glyph glyph-name="mu" horiz-adv-x="1014" unicode="ยต" d="M1015 212l-6 -66l-58 -33l-77 -38q-43 -21 -77 -33t-54 -12q-27 0 -40 5.5t-22 20.5q-8 19 -12 33.5t-4 31.5q0 32 16.5 69t55.5 87l-59 48q-127 -148 -208.5 -221.5t-127.5 -73.5q-20 0 -37 18t-17 54q0 8 5 22q2 8 7 21.5t13 32.5h-83l-47 -88l-44 -74 q-13 -22 -24.5 -39t-25.5 -36l-56 -80l-66 -87l-84 -107l-124 52q42 38 104 105q72 75 187 222q44 56 109 151t119 180q27 42 56.5 92t59.5 102l114 213l63 -40l-179 -414q-11 -21 -19 -43q-3 -12 -4 -18t-1 -19q0 -75 68 -75q32 0 72.5 25.5t86.5 77.5t83 105q17 24 38 58 q25 40 42 68l53 101q23 47 37 88l77 -42l-113 -394q-6 -29 -6 -51q14 -61 67 -61q10 0 16 1.5t22 7.5t24.5 10t27.5 15z"/>
<glyph glyph-name="paragraph" horiz-adv-x="1077" unicode="ยถ" d="M518 -324h-175l296 1149q-53 0 -77 14l-42 33q-27 20 -44 40.5t-33 55.5q-13 32 -21 63q-3 16 -5 32.5t-2 34.5q0 41 4 57q15 85 52.5 160t92.5 126q27 23 55 36t55 13h79zM949 -324h-174l130 1814h46z"/>
<glyph glyph-name="cedilla" horiz-adv-x="705" unicode="ยธ" d="M708 623q0 67 -65 67q-29 0 -60 -12t-76 -43q-66 -46 -137 -123q-35 -38 -63 -77t-70 -116q84 20 133.5 35t98.5 37t88 45.5t75 52.5q76 64 76 134zM835 656q0 -128 -153 -223q-149 -91 -462 -161q-15 -33 -15 -49l-1 -18q0 -45 40.5 -72.5t124.5 -27.5q38 0 89 9 q29 5 52.5 11t58.5 18q87 25 162 61l-17 -55q-63 -30 -139 -58l-67 -20l-121 -26q-81 -15 -151 -15q-90 0 -147 41q-26 19 -41 53q-12 33 -12 101l-59 -29l25 42l55 31q34 61 74.5 116.5t93.5 111.5t116 105q55 44 126 86q123 73 230 73q64 0 99 -32t39 -73zM658 1166 q0 -55 -35 -99q-17 -21 -32 -31t-32 -10h-15q-5 0 -8 8v21q9 65 31 97l10 15q6 6 13 7h53q15 0 15 -8zM927 1162q0 -58 -28 -101q-20 -35 -49 -35q-24 0 -30 15l-1 17q0 14 1 28t5 34t12 35l5 12q3 6 10 7h53q20 0 22 -12z"/>
<glyph glyph-name="onesuperior" horiz-adv-x="1950" unicode="ยน" d="M1539 1355q-71 -92 -124 -199q-30 -59 -61 -133l-19.5 -48t-36.5 -99l-39 -116l-47 -149l-56 -184l-125 -412l-186 24l-3 174l-5 193l-2 184l-1 199l-1 173l-75 20q-76 -217 -149 -363q-38 -76 -77 -139.5t-83 -121.5q-160 -209 -309 -289q-63 -35 -128 -57t-129 -34 l-34 107q170 24 308 114q74 48 141 114q30 29 61 66t64 81q57 80 110 174q50 89 102 201q41 88 92 218q48 120 96 255l83 -18q0 -82 13 -225q6 -68 6 -97l18 -244l15 -191l-1 -118q0 -20 -1 -57.5t-1 -54.5l80 -10q15 65 48 181l48 168q44 164 92 295q19 58 28 83l22 55 q26 70 54 136q16 37 19 43q16 36 32 67t23.5 45t25.5 42zM1877 136l-20 -93l-268 -11h-281l37 82l195 -2q170 0 337 24zM1953 490q0 -51 -36 -98q-16 -20 -42 -41q-22 -16 -53.5 -30.5t-61.5 -21.5t-64 -7q-77 0 -144 42t-80 119q-6 29 -6 63q0 85 32.5 158.5t91.5 117.5 q54 39 116 45l31 -58q-75 -18 -124 -76q-62 -71 -62 -181l4 -49q0 -25 11 -46q5 -13 8.5 -21t11.5 -18q5 -7 14 -16t20 -17q41 -30 86 -30q68 0 106.5 52t38.5 125q0 26 -3 47.5t-11 44.5q-3 8 -4 12q-4 11 -13 25q-6 12 -11.5 22t-14.5 23l60 39q13 -14 23 -29 q7 -10 21 -34q10 -19 20 -40.5t22 -51.5l7 -28q6 -21 6 -42z"/>
<glyph glyph-name="ordmasculine" horiz-adv-x="717" unicode="ยบ" d="M787 651q0 -32 -4 -49l-110 7l2 24q-6 61 -64 61q-18 0 -41.5 -9.5t-58.5 -33.5q-60 -40 -111 -94q-28 -30 -41.5 -63t-13.5 -83l83 26q14 4 25 6t22 2q89 0 126 -23l-62 -68q-64 35 -137 35l-47 -3q-19 -3 -26 -4.5t-35 -9.5q-43 -86 -43 -151q0 -51 28 -80 q29 -27 88 -27q57 0 150 26t220 78l-15 -67l-142 -53l-118 -37q-57 -15 -108 -24q-24 -3 -48.5 -5t-47.5 -2q-89 0 -133 29.5t-44 94.5l5 37q18 114 117 253t239 240q131 95 234 95q43 0 71.5 -33t39.5 -95z"/>
<glyph glyph-name="guillemotright" horiz-adv-x="1004" unicode="ยป" d="M523 367q0 -6 -11 -16l-16 -15q-31 -30 -71 -60l-66 -53l-92 -78l-44 -39l-43 42q63 60 113 96q17 13 49 35l45 30t40 35q12 13 13 23l-3 15q-1 9 -10 20l-43 62l-25 37l-57 81l65 51l58 -103l40 -64q58 -90 58 -99zM890 366l-9 -9l-63 -64q-22 -19 -26 -23 q-21 -19 -37 -36l-42 -43l-102 -110l-59 48l93 84l85 73l48 42q18 20 18 39q0 12 -5 23q-3 12 -17 29l-83 113l-84 114l55 46l55 -87l42 -62l88 -119z"/>
<glyph glyph-name="onequarter" horiz-adv-x="375" unicode="ยผ" d="M468 742l-61 -131l-52 -108l-187 -394l-159 -341l-50 -109l-39 -94l-183 23q37 73 114 199q54 92 131.5 215.5t173.5 268.5l105 199l30 62l34 73l72 177zM544 1133q0 -40 -20 -77q-12 -30 -40 -30q-24 0 -30 37q0 46 11 86l3 14q1 10 7 11h47q12 0 16 -13z"/>
<glyph glyph-name="onehalf" horiz-adv-x="987" unicode="ยฝ" d="M1136 1160l-85 -43q-3 33 -14 59q-5 15 -10.5 27t-16.5 32q-45 83 -137 83q-101 0 -165 -83.5t-64 -214.5q0 -82 44 -151q19 -30 47 -65q24 -31 60 -70l93 -96l22 -26l25 -31l23 -34l19 -36q18 -35 25 -83q0 -101 -64.5 -194.5t-197 -155t-326.5 -61.5q-54 0 -99 6 t-95 18q-82 18 -147 76q-26 23 -48 56t-37 73l174 81q13 -42 33.5 -74t51.5 -59q38 -35 96 -54.5t136 -19.5q104 0 187 37q86 43 131.5 108t45.5 141q0 35 -11 65t-34 62q-36 51 -104 122q-49 56 -83 103q-29 40 -49 101.5t-20 129.5q0 55 13 104.5t39 105.5 q22 53 46.5 86.5t63.5 68.5q65 54 142 54q73 0 129.5 -33.5t100.5 -95.5q37 -50 60 -119z"/>
<glyph glyph-name="threequarters" horiz-adv-x="584" unicode="ยพ" d="M707 643l-59 -32q-42 77 -115 77q-49 0 -82 -34q-16 -17 -24 -33.5t-8 -36.5q0 -26 15 -55l18 -31l29 -43l40 -63q24 -39 36.5 -72.5t12.5 -61.5q0 -89 -81 -169q-39 -39 -103 -59.5t-146 -20.5q-102 0 -155 24t-53 81l7 29q2 8 4.5 15.5t6.5 14.5l119 13l-2 -20 q0 -91 104 -91q36 0 66.5 12t53.5 34q47 49 47 102q0 27 -9 48q-4 14 -7.5 22.5t-12.5 23.5l-24 44l-45 73q-18 35 -31 72q-10 35 -10 55q0 58 34 108q16 25 35 43q10 9 20.5 17t27.5 18q53 28 119 28q62 0 106 -38t66 -94z"/>
<glyph glyph-name="questiondown" horiz-adv-x="527" unicode="ยฟ" d="M531 744l-258 -444q-8 -13 -16.5 -27.5t-13.5 -25.5q-10 -22 -13 -42q0 -25 14.5 -40t46.5 -15q41 0 95 19l127 47l-25 -65q-70 -33 -189 -78q-62 -22 -101 -33q-17 -4 -37 -7t-34 -3q-93 0 -93 87l10 34q5 13 9 22.5t10.5 22t12.5 23.5t14 23l30 47l146 222l181 277z M538 1166q0 -48 -34 -94t-70 -46h-11q-8 0 -10 6v21q10 63 34 95l12 17q6 9 12 9h54q12 0 13 -8zM744 1163q0 -42 -16 -73q-14 -32 -33.5 -47t-36.5 -17q-23 0 -29 10l-1 21q9 65 26 97l9 14q2 3 4.5 4t4.5 2h53q18 0 19 -11z"/>
<glyph glyph-name="Agrave" horiz-adv-x="1366" unicode="ร" d="M1378 1220l-73 37q-38 -95 -90 -186l-60 -98l-100 -153l-148 -219h307l57 201l22 76l31 111zM1461 597l-14 -61l-118 4l-139 -519l-191 32l188 487l-341 -4q-476 -519 -827 -519q-43 0 -69.5 6t-47.5 24q-32 26 -32 66q0 15 9 45q5 17 15 37q7 15 14 26q18 31 51 73 q27 35 48 56q20 18 37 20l113 -64l4 1l-2 -4q-2 -6 -8 -12l-21 -26l-26 -36l-13 -28q0 -31 18 -50t59 -19q31 0 64.5 9t68.5 31q31 16 73 45q21 15 40 29q23 17 45 36q36 27 67 55q50 42 91 80l129 117q-47 0 -97 -7t-70 -10q-63 -8 -114 -19l47 72l11 17h16l262 16 q151 193 244 326l81 121l64 106l43 78l96 178l112 -60l-98 -755h118z"/>
<glyph glyph-name="Agrave" horiz-adv-x="1366" unicode="ะ" d="M1378 1220l-73 37q-38 -95 -90 -186l-60 -98l-100 -153l-148 -219h307l57 201l22 76l31 111zM1461 597l-14 -61l-118 4l-139 -519l-191 32l188 487l-341 -4q-476 -519 -827 -519q-43 0 -69.5 6t-47.5 24q-32 26 -32 66q0 15 9 45q5 17 15 37q7 15 14 26q18 31 51 73 q27 35 48 56q20 18 37 20l113 -64l4 1l-2 -4q-2 -6 -8 -12l-21 -26l-26 -36l-13 -28q0 -31 18 -50t59 -19q31 0 64.5 9t68.5 31q31 16 73 45q21 15 40 29q23 17 45 36q36 27 67 55q50 42 91 80l129 117q-47 0 -97 -7t-70 -10q-63 -8 -114 -19l47 72l11 17h16l262 16 q151 193 244 326l81 121l64 106l43 78l96 178l112 -60l-98 -755h118z"/>
<glyph glyph-name="Aacute" horiz-adv-x="1295" unicode="ร" d="M1568 1305l-9 -106q-160 35 -262 35h-219l-35 -64l-40 -66l-103 -165l-122 -192l-49 -79l-40 -63l61 -40q49 41 102 76q25 16 49.5 29.5t51.5 26.5q103 47 198 47q77 0 122 -58q21 -27 38 -75q13 -38 23 -97q0 -54 -14 -99q-12 -44 -41 -91.5t-70 -93.5q-37 -40 -90 -82 q-98 -71 -233.5 -117t-272.5 -46l-106 3q-24 0 -38.5 1t-61.5 7l58 66l57 -4l56 -2q56 0 107.5 10t103.5 32q27 9 52.5 20t50.5 26q46 26 95 65q45 35 80.5 71.5t61.5 78t42 86.5q14 44 14 82q0 67 -36.5 101.5t-99.5 34.5q-121 0 -332 -160.5t-510 -485.5l-141 54l139 147 l126 138l124 142q30 35 58 69q21 25 49 61l124 160l79 105l253 345q-57 -11 -115.5 -25t-113.5 -31q-102 -31 -216 -74l-6 84l73 32l82 29l70 19l108 24l91 16l83 11q28 0 79.5 3.5t67.5 3.5q138 0 347 -25z"/>
<glyph glyph-name="Aacute" horiz-adv-x="1295" unicode="ะ" d="M1568 1305l-9 -106q-160 35 -262 35h-219l-35 -64l-40 -66l-103 -165l-122 -192l-49 -79l-40 -63l61 -40q49 41 102 76q25 16 49.5 29.5t51.5 26.5q103 47 198 47q77 0 122 -58q21 -27 38 -75q13 -38 23 -97q0 -54 -14 -99q-12 -44 -41 -91.5t-70 -93.5q-37 -40 -90 -82 q-98 -71 -233.5 -117t-272.5 -46l-106 3q-24 0 -38.5 1t-61.5 7l58 66l57 -4l56 -2q56 0 107.5 10t103.5 32q27 9 52.5 20t50.5 26q46 26 95 65q45 35 80.5 71.5t61.5 78t42 86.5q14 44 14 82q0 67 -36.5 101.5t-99.5 34.5q-121 0 -332 -160.5t-510 -485.5l-141 54l139 147 l126 138l124 142q30 35 58 69q21 25 49 61l124 160l79 105l253 345q-57 -11 -115.5 -25t-113.5 -31q-102 -31 -216 -74l-6 84l73 32l82 29l70 19l108 24l91 16l83 11q28 0 79.5 3.5t67.5 3.5q138 0 347 -25z"/>
<glyph glyph-name="Acircumflex" horiz-adv-x="1274" unicode="ร" d="M1406 1073q0 -75 -48.5 -148t-131.5 -125q-39 -26 -91 -49q-43 -19 -116 -41l8 -68h40q202 0 241 -189q0 -32 -11.5 -70t-32.5 -77q-43 -79 -135 -155q-43 -35 -98 -66t-127 -56q-66 -22 -144 -34t-164 -12q-128 0 -219 28l51 62q68 -13 123 -13q156 0 288.5 57.5 t214.5 149.5t82 188q0 86 -45.5 130.5t-125.5 44.5q-56 0 -105 -10l-17 65q96 35 184 84q47 26 83.5 51.5t63.5 53.5q60 57 90 117t30 121q-18 92 -94 92q-29 0 -63 -17q-32 -14 -77 -51q-32 -27 -77 -70q-19 -19 -37 -37.5t-39 -42.5l-73 -81l-63 -76q-46 -53 -107 -130 l-141 -186l-181 -241q-82 -108 -198 -246l-154 33l419 557l105 146l87 124l70 102l77 123l53 95q35 67 70 160l67 -66l-107 -256l53 -43q62 80 118 142q50 56 94 96q18 16 38.5 30t39.5 23q36 18 73 18q19 0 37.5 -8.5t41.5 -28.5q45 -39 69 -126q11 -41 11 -74z"/>
<glyph glyph-name="Acircumflex" horiz-adv-x="1274" unicode="ะ" d="M1406 1073q0 -75 -48.5 -148t-131.5 -125q-39 -26 -91 -49q-43 -19 -116 -41l8 -68h40q202 0 241 -189q0 -32 -11.5 -70t-32.5 -77q-43 -79 -135 -155q-43 -35 -98 -66t-127 -56q-66 -22 -144 -34t-164 -12q-128 0 -219 28l51 62q68 -13 123 -13q156 0 288.5 57.5 t214.5 149.5t82 188q0 86 -45.5 130.5t-125.5 44.5q-56 0 -105 -10l-17 65q96 35 184 84q47 26 83.5 51.5t63.5 53.5q60 57 90 117t30 121q-18 92 -94 92q-29 0 -63 -17q-32 -14 -77 -51q-32 -27 -77 -70q-19 -19 -37 -37.5t-39 -42.5l-73 -81l-63 -76q-46 -53 -107 -130 l-141 -186l-181 -241q-82 -108 -198 -246l-154 33l419 557l105 146l87 124l70 102l77 123l53 95q35 67 70 160l67 -66l-107 -256l53 -43q62 80 118 142q50 56 94 96q18 16 38.5 30t39.5 23q36 18 73 18q19 0 37.5 -8.5t41.5 -28.5q45 -39 69 -126q11 -41 11 -74z"/>
<glyph glyph-name="Atilde" horiz-adv-x="1026" unicode="ร" d="M1326 1369l-2 -81l-42 1l-75 1q-24 0 -41.5 -3.5t-30.5 -11.5q-9 -5 -23 -21.5t-26 -41.5q-20 -37 -39 -98l-98 -295q-83 -170 -164 -298q-40 -64 -88.5 -128t-102.5 -124q-105 -114 -236.5 -183t-281.5 -69q-16 0 -32 1t-36 5t-50 15q-49 18 -78 49q-20 21 -24 38l5 6 l6 5l134 98l12 5q3 -1 6 -3t7 -6l15 -15q33 -32 64.5 -54.5t93.5 -22.5q27 0 51 5t52 17q51 23 100 67q26 23 49 48t48 54q46 55 95 128q21 32 47 75t52 89q54 93 115 209l242 453q-39 -6 -73.5 -13t-60.5 -16q-50 -15 -112 -45q-98 -47 -230 -149l-42 102q104 77 210 125 q99 43 220 65q59 9 126.5 14t144.5 5z"/>
<glyph glyph-name="Atilde" horiz-adv-x="1026" unicode="ะ" d="M1326 1369l-2 -81l-42 1l-75 1q-24 0 -41.5 -3.5t-30.5 -11.5q-9 -5 -23 -21.5t-26 -41.5q-20 -37 -39 -98l-98 -295q-83 -170 -164 -298q-40 -64 -88.5 -128t-102.5 -124q-105 -114 -236.5 -183t-281.5 -69q-16 0 -32 1t-36 5t-50 15q-49 18 -78 49q-20 21 -24 38l5 6 l6 5l134 98l12 5q3 -1 6 -3t7 -6l15 -15q33 -32 64.5 -54.5t93.5 -22.5q27 0 51 5t52 17q51 23 100 67q26 23 49 48t48 54q46 55 95 128q21 32 47 75t52 89q54 93 115 209l242 453q-39 -6 -73.5 -13t-60.5 -16q-50 -15 -112 -45q-98 -47 -230 -149l-42 102q104 77 210 125 q99 43 220 65q59 9 126.5 14t144.5 5z"/>
<glyph glyph-name="Adieresis" horiz-adv-x="1379" unicode="ร" d="M1480 707q0 -128 -53 -252q-26 -63 -62 -117t-87 -105q-95 -95 -235.5 -154t-298.5 -59h-36q-20 0 -38 2q-14 0 -52 10q-69 11 -102 23q-24 7 -47 14.5t-40 14.5l-93 34q-192 -90 -303 -90l-46 -3l-47 -4q-9 0 -11 6l-10 77q0 6 7.5 14t22.5 18q32 20 97 43l61 15l64 12 q67 10 108 10q36 0 42 -2l2 -2q27 0 62.5 23.5t82.5 73.5q73 82 128 159l55 90l48 83l98 172l85 134l34 52l65 90l71 -44q-49 -76 -82 -141l-88 -176l-91 -176l-32 -54l-66 -101l-52 -62l-44 -47q-34 -31 -57 -48l-31 -18q-15 -6 -21.5 -16t-9.5 -23q0 -12 20 -29 q25 -21 72 -35l74 -14q39 -6 69 -6q128 0 246 63t206 169q39 48 77 109q30 51 59 118q48 119 48 237q0 50 -10 96q-33 141 -94 232.5t-137 131.5q-33 20 -72.5 31.5t-74.5 11.5q-89 0 -172 -75q-66 -60 -156 -204l-81 71q50 69 96.5 120.5t98.5 96.5q93 78 201 78 q90 0 185.5 -56t184.5 -175q86 -116 139 -283q4 -14 11 -54q3 -15 7.5 -41.5t4.5 -68.5z"/>
<glyph glyph-name="Adieresis" horiz-adv-x="1379" unicode="ะ" d="M1480 707q0 -128 -53 -252q-26 -63 -62 -117t-87 -105q-95 -95 -235.5 -154t-298.5 -59h-36q-20 0 -38 2q-14 0 -52 10q-69 11 -102 23q-24 7 -47 14.5t-40 14.5l-93 34q-192 -90 -303 -90l-46 -3l-47 -4q-9 0 -11 6l-10 77q0 6 7.5 14t22.5 18q32 20 97 43l61 15l64 12 q67 10 108 10q36 0 42 -2l2 -2q27 0 62.5 23.5t82.5 73.5q73 82 128 159l55 90l48 83l98 172l85 134l34 52l65 90l71 -44q-49 -76 -82 -141l-88 -176l-91 -176l-32 -54l-66 -101l-52 -62l-44 -47q-34 -31 -57 -48l-31 -18q-15 -6 -21.5 -16t-9.5 -23q0 -12 20 -29 q25 -21 72 -35l74 -14q39 -6 69 -6q128 0 246 63t206 169q39 48 77 109q30 51 59 118q48 119 48 237q0 50 -10 96q-33 141 -94 232.5t-137 131.5q-33 20 -72.5 31.5t-74.5 11.5q-89 0 -172 -75q-66 -60 -156 -204l-81 71q50 69 96.5 120.5t98.5 96.5q93 78 201 78 q90 0 185.5 -56t184.5 -175q86 -116 139 -283q4 -14 11 -54q3 -15 7.5 -41.5t4.5 -68.5z"/>
<glyph glyph-name="Aring" horiz-adv-x="1112" unicode="ร" d="M1234 1155q0 -61 -25 -111l-96 70l13 42q14 42 14 70q-9 51 -35 80q-27 35 -68 35q-29 0 -62.5 -13t-71.5 -41q-62 -43 -136 -126q-16 -19 -40 -50q-16 -21 -22 -29q-13 -18 -25.5 -37.5t-23.5 -40t-19.5 -39t-16.5 -38.5q-13 -37 -13 -63q0 -51 35 -77q30 -24 77 -24 q23 0 39.5 2t40.5 9q40 10 89 37l37 -63l-169 -97q-49 -27 -98 -58t-91 -60t-81 -64q-34 -30 -70 -70q-64 -76 -79 -159q0 -151 149 -151q103 0 215 50q55 25 107 55q25 14 49.5 30t50.5 35q39 28 78 61l69 60l106 -93q-93 -76 -188 -132q-51 -32 -109 -58 q-24 -11 -52 -21.5t-64 -22.5q-122 -36 -242 -36q-177 0 -269 62q-84 57 -84 136l4 31q9 54 55 128q20 33 57 69q21 20 40 36t50 41q52 38 127 75.5t175 74.5l8 67h-50q-32 0 -78 27t-46 121q15 106 73.5 202t140.5 169q33 30 82 65q23 16 40.5 26.5t47.5 26.5q83 40 143 40 q43 0 84.5 -23.5t76.5 -69.5q16 -23 28 -52q4 -9 10 -28t9 -32z"/>
<glyph glyph-name="Aring" horiz-adv-x="1112" unicode="ะ" d="M1234 1155q0 -61 -25 -111l-96 70l13 42q14 42 14 70q-9 51 -35 80q-27 35 -68 35q-29 0 -62.5 -13t-71.5 -41q-62 -43 -136 -126q-16 -19 -40 -50q-16 -21 -22 -29q-13 -18 -25.5 -37.5t-23.5 -40t-19.5 -39t-16.5 -38.5q-13 -37 -13 -63q0 -51 35 -77q30 -24 77 -24 q23 0 39.5 2t40.5 9q40 10 89 37l37 -63l-169 -97q-49 -27 -98 -58t-91 -60t-81 -64q-34 -30 -70 -70q-64 -76 -79 -159q0 -151 149 -151q103 0 215 50q55 25 107 55q25 14 49.5 30t50.5 35q39 28 78 61l69 60l106 -93q-93 -76 -188 -132q-51 -32 -109 -58 q-24 -11 -52 -21.5t-64 -22.5q-122 -36 -242 -36q-177 0 -269 62q-84 57 -84 136l4 31q9 54 55 128q20 33 57 69q21 20 40 36t50 41q52 38 127 75.5t175 74.5l8 67h-50q-32 0 -78 27t-46 121q15 106 73.5 202t140.5 169q33 30 82 65q23 16 40.5 26.5t47.5 26.5q83 40 143 40 q43 0 84.5 -23.5t76.5 -69.5q16 -23 28 -52q4 -9 10 -28t9 -32z"/>
<glyph glyph-name="AE" horiz-adv-x="1821" unicode="ร" d="M802 606l-42 47l-164 -97l-121 -74q-25 -15 -47 -29t-34 -23q-317 -196 -346 -270q0 -37 18 -61q19 -22 47 -22q35 0 85.5 23t120.5 69.5t120 82.5t81 64l90 80l70 63l19 20l20 24l28 33zM1950 200l-6 -56q-44 -41 -126 -77.5t-157 -36.5q-91 0 -166 47q-69 42 -76 124 q0 91 37 209l-54 37l-121 -100l-162 -139l-109 -95l-131 -118l-123 38l69 109l112 177l109 179l111 183l114 195l-44 54l-136 -104l-87 -60q-36 -67 -85 -135.5t-111 -137.5q-129 -141 -276 -252q-76 -56 -152 -103q-72 -44 -149 -80q-67 -31 -135.5 -49t-126.5 -18 q-21 0 -37 1t-28 4q-25 3 -40 17q-25 19 -25 45l4 18q12 33 57 78t116 100q153 116 376 244q108 62 230 127q110 58 250 127l59 117l29 70l27 69q28 78 28 113q0 74 -32 109q-31 37 -75 37q-26 0 -52.5 -15.5t-63.5 -52.5l-41 -47l-41 -53l-53 76q20 22 34 37q7 7 35 34 q36 33 70 57q74 50 136 50q71 0 111 -61q45 -69 45 -169q0 -62 -10 -111l-9 -48l-13 -44l40 -40q99 76 164 137t117 127l62 -38l-90 -203l-69 -150q-55 -120 -102 -218q-53 -111 -100 -205l69 -38q35 33 108 104q11 10 78 74q37 35 48 45l43 37q34 29 85 65q21 65 45 125 t52.5 123t57 117.5t60.5 101.5q54 89 105 150l106 -107q-100 -112 -173.5 -220t-120.5 -213q-94 -218 -94 -368v-24l4 -33q13 -71 61.5 -112t112.5 -41q30 0 66 10.5t79.5 30.5t79.5 43z"/>
<glyph glyph-name="AE" horiz-adv-x="1821" unicode="ะ" d="M802 606l-42 47l-164 -97l-121 -74q-25 -15 -47 -29t-34 -23q-317 -196 -346 -270q0 -37 18 -61q19 -22 47 -22q35 0 85.5 23t120.5 69.5t120 82.5t81 64l90 80l70 63l19 20l20 24l28 33zM1950 200l-6 -56q-44 -41 -126 -77.5t-157 -36.5q-91 0 -166 47q-69 42 -76 124 q0 91 37 209l-54 37l-121 -100l-162 -139l-109 -95l-131 -118l-123 38l69 109l112 177l109 179l111 183l114 195l-44 54l-136 -104l-87 -60q-36 -67 -85 -135.5t-111 -137.5q-129 -141 -276 -252q-76 -56 -152 -103q-72 -44 -149 -80q-67 -31 -135.5 -49t-126.5 -18 q-21 0 -37 1t-28 4q-25 3 -40 17q-25 19 -25 45l4 18q12 33 57 78t116 100q153 116 376 244q108 62 230 127q110 58 250 127l59 117l29 70l27 69q28 78 28 113q0 74 -32 109q-31 37 -75 37q-26 0 -52.5 -15.5t-63.5 -52.5l-41 -47l-41 -53l-53 76q20 22 34 37q7 7 35 34 q36 33 70 57q74 50 136 50q71 0 111 -61q45 -69 45 -169q0 -62 -10 -111l-9 -48l-13 -44l40 -40q99 76 164 137t117 127l62 -38l-90 -203l-69 -150q-55 -120 -102 -218q-53 -111 -100 -205l69 -38q35 33 108 104q11 10 78 74q37 35 48 45l43 37q34 29 85 65q21 65 45 125 t52.5 123t57 117.5t60.5 101.5q54 89 105 150l106 -107q-100 -112 -173.5 -220t-120.5 -213q-94 -218 -94 -368v-24l4 -33q13 -71 61.5 -112t112.5 -41q30 0 66 10.5t79.5 30.5t79.5 43z"/>
<glyph glyph-name="Ccedilla" horiz-adv-x="1041" unicode="ร" d="M1107 1133q0 -94 -77 -186q-39 -45 -102 -87t-161 -86v-64h54q49 0 90 -16q40 -14 77 -45q66 -56 86 -178l4 -39q0 -85 -55.5 -159.5t-160.5 -137.5q-51 -31 -109 -55q-48 -19 -122 -38q-134 -35 -260 -35q-108 0 -195 30t-139 76q-35 28 -41 52l14 10l135 88q9 6 17 6 q7 -6 10 -11l50 -68q33 -45 90 -75q30 -14 64.5 -21t80.5 -7q93 0 195 45q25 11 50 25t46 31q42 32 82 78q77 89 77 211q0 53 -17 88q-15 38 -46 66q-53 53 -121 53q-69 0 -130 -17l-24 68q152 68 286 177q148 124 148 290q-9 69 -45 96q-33 27 -67 27q-42 0 -92 -28 q-41 -23 -97 -87l-48 -57l-57 -75l-64 77q105 147 199 196q48 23 88.5 36t66.5 13q29 0 51.5 -6.5t44.5 -21t40 -35.5l34 -45q8 -11 13 -21t13 -30q12 -27 18 -52.5t6 -55.5z"/>
<glyph glyph-name="Ccedilla" horiz-adv-x="1041" unicode="ะ" d="M1107 1133q0 -94 -77 -186q-39 -45 -102 -87t-161 -86v-64h54q49 0 90 -16q40 -14 77 -45q66 -56 86 -178l4 -39q0 -85 -55.5 -159.5t-160.5 -137.5q-51 -31 -109 -55q-48 -19 -122 -38q-134 -35 -260 -35q-108 0 -195 30t-139 76q-35 28 -41 52l14 10l135 88q9 6 17 6 q7 -6 10 -11l50 -68q33 -45 90 -75q30 -14 64.5 -21t80.5 -7q93 0 195 45q25 11 50 25t46 31q42 32 82 78q77 89 77 211q0 53 -17 88q-15 38 -46 66q-53 53 -121 53q-69 0 -130 -17l-24 68q152 68 286 177q148 124 148 290q-9 69 -45 96q-33 27 -67 27q-42 0 -92 -28 q-41 -23 -97 -87l-48 -57l-57 -75l-64 77q105 147 199 196q48 23 88.5 36t66.5 13q29 0 51.5 -6.5t44.5 -21t40 -35.5l34 -45q8 -11 13 -21t13 -30q12 -27 18 -52.5t6 -55.5z"/>
<glyph glyph-name="Egrave" horiz-adv-x="1258" unicode="ร" d="M1393 1223q-24 -72 -108 -285q-108 -274 -171 -454q-69 -192 -69 -265q0 -83 102 -83q79 0 187 65l-16 -56q-68 -64 -143.5 -96t-154.5 -32q-152 0 -152 114q0 56 32 135q18 44 41 89t60 106l-53 42q-170 -140 -299 -234q-66 -47 -122.5 -84t-101.5 -63q-92 -51 -166 -78 t-124 -27q-99 0 -99 67q0 13 7 41q11 37 45 101q12 24 48 81l72 117l98 156l128 200l383 598l79 -65l-324 -611q-137 -182 -205.5 -292t-74.5 -150q0 -33 17 -53q18 -18 56 -18q18 0 36 5t46.5 18t55.5 28.5t64 41t61.5 43t70.5 51.5l128 100q32 29 44 40q17 16 46 46l70 75 q30 36 58 77t55 88q46 83 98 210l46 127l54 153z"/>
<glyph glyph-name="Egrave" horiz-adv-x="1258" unicode="ะ" d="M1393 1223q-24 -72 -108 -285q-108 -274 -171 -454q-69 -192 -69 -265q0 -83 102 -83q79 0 187 65l-16 -56q-68 -64 -143.5 -96t-154.5 -32q-152 0 -152 114q0 56 32 135q18 44 41 89t60 106l-53 42q-170 -140 -299 -234q-66 -47 -122.5 -84t-101.5 -63q-92 -51 -166 -78 t-124 -27q-99 0 -99 67q0 13 7 41q11 37 45 101q12 24 48 81l72 117l98 156l128 200l383 598l79 -65l-324 -611q-137 -182 -205.5 -292t-74.5 -150q0 -33 17 -53q18 -18 56 -18q18 0 36 5t46.5 18t55.5 28.5t64 41t61.5 43t70.5 51.5l128 100q32 29 44 40q17 16 46 46l70 75 q30 36 58 77t55 88q46 83 98 210l46 127l54 153z"/>
<glyph glyph-name="Eacute" horiz-adv-x="1258" unicode="ร" d="M1434 1224q-12 -33 -40 -101t-80 -185l-105 -248l-84 -209q-33 -89 -53 -157t-20 -105q0 -83 105 -83q40 0 89 16t107 49l-17 -54q-145 -130 -316 -130q-77 0 -119 27q-39 27 -39 87q0 55 33 132t109 197l-51 43q-137 -107 -229 -173t-179 -123q-20 -12 -78 -47 q-46 -28 -72 -42q-34 -18 -49 -25q-30 -15 -75 -34q-104 -42 -172 -42q-104 0 -104 67q0 20 6 41q12 38 46 100q17 32 49 81l81 125l66 101l76 115l88 130l410 605l87 -67l-348 -613q-139 -178 -215 -293q-72 -111 -78 -149q0 -71 75 -71q109 0 483 287q51 44 95 86 q19 18 41 40q15 15 33 35q35 38 62 74t59 87q52 90 105 212t113 285zM1347 1633q-24 -75 -71 -119q-52 -52 -123 -52q-68 0 -105 52q-23 32 -33 61t-10 66l-1 13l55 2l1 -6q26 -129 124 -129q40 0 76 33t62 102z"/>
<glyph glyph-name="Eacute" horiz-adv-x="1258" unicode="ะ" d="M1434 1224q-12 -33 -40 -101t-80 -185l-105 -248l-84 -209q-33 -89 -53 -157t-20 -105q0 -83 105 -83q40 0 89 16t107 49l-17 -54q-145 -130 -316 -130q-77 0 -119 27q-39 27 -39 87q0 55 33 132t109 197l-51 43q-137 -107 -229 -173t-179 -123q-20 -12 -78 -47 q-46 -28 -72 -42q-34 -18 -49 -25q-30 -15 -75 -34q-104 -42 -172 -42q-104 0 -104 67q0 20 6 41q12 38 46 100q17 32 49 81l81 125l66 101l76 115l88 130l410 605l87 -67l-348 -613q-139 -178 -215 -293q-72 -111 -78 -149q0 -71 75 -71q109 0 483 287q51 44 95 86 q19 18 41 40q15 15 33 35q35 38 62 74t59 87q52 90 105 212t113 285zM1347 1633q-24 -75 -71 -119q-52 -52 -123 -52q-68 0 -105 52q-23 32 -33 61t-10 66l-1 13l55 2l1 -6q26 -129 124 -129q40 0 76 33t62 102z"/>
<glyph glyph-name="Ecircumflex" horiz-adv-x="1252" unicode="ร" d="M1435 1322q-5 -33 -12 -63.5t-20 -69.5q-21 -73 -66.5 -154t-111 -146.5t-157.5 -114.5q-53 -25 -120 -41l-61 -18q-19 -6 -33 -15t-24 -28t-10 -48q0 -96 25 -208q15 -60 33 -109.5t45 -91.5q60 -93 140 -93q71 0 166 45l45 22l48 26l-16 -69q-88 -58 -164 -87t-138 -29 q-105 0 -178 64.5t-107 169.5q-15 53 -24 109.5t-9 110.5v34q0 20 2 29q0 39 7 84q3 25 18 98l-49 22l-534 -740l-166 44l880 1269l83 -62l-252 -496l46 -31q32 32 55 32h29l23 -4h55q57 0 113 32.5t111 96.5q96 115 162 268l44 119q9 26 15.5 48.5t12.5 50.5z"/>
<glyph glyph-name="Ecircumflex" horiz-adv-x="1252" unicode="ะ" d="M1435 1322q-5 -33 -12 -63.5t-20 -69.5q-21 -73 -66.5 -154t-111 -146.5t-157.5 -114.5q-53 -25 -120 -41l-61 -18q-19 -6 -33 -15t-24 -28t-10 -48q0 -96 25 -208q15 -60 33 -109.5t45 -91.5q60 -93 140 -93q71 0 166 45l45 22l48 26l-16 -69q-88 -58 -164 -87t-138 -29 q-105 0 -178 64.5t-107 169.5q-15 53 -24 109.5t-9 110.5v34q0 20 2 29q0 39 7 84q3 25 18 98l-49 22l-534 -740l-166 44l880 1269l83 -62l-252 -496l46 -31q32 32 55 32h29l23 -4h55q57 0 113 32.5t111 96.5q96 115 162 268l44 119q9 26 15.5 48.5t12.5 50.5z"/>
<glyph glyph-name="Edieresis" horiz-adv-x="1252" unicode="ร" d="M1340 201l-12 -55q-10 -6 -39 -24q-17 -10 -40 -23q-40 -22 -89 -42q-21 -9 -43 -17t-45 -15q-15 -4 -36 -7t-36 -3q-61 0 -106 33.5t-45 88.5q0 35 11 77t31 96q40 103 171 367l-62 35l-58 -76l-98 -116l-82 -86l-75 -75q-58 -49 -124 -100q-59 -45 -116 -85l-98 -61 q-45 -27 -83 -43q-66 -31 -124 -44l-48 -8l-49 -3q-29 0 -55 5t-57 18q-43 17 -43 65q0 17 5.5 36.5t16.5 40.5l27 49q13 23 33 50l38 47q30 33 46 33l116 -63l3 1l-2 -5q-3 -9 -25 -34l-22 -29q-13 -20 -16 -38q0 -30 18.5 -47.5t58.5 -17.5q43 0 100 24q28 12 59.5 30.5 t67.5 43.5q128 90 311 258q110 120 193.5 232t139.5 219q51 92 90 199t68 225l108 -68l-73 -282q-15 -57 -36 -134q-17 -62 -43 -151l-111 -388q-10 -43 -16 -80t-6 -59q3 -33 26.5 -51t67.5 -18q52 0 137 38l36 18z"/>
<glyph glyph-name="Edieresis" horiz-adv-x="1252" unicode="ะ" d="M1340 201l-12 -55q-10 -6 -39 -24q-17 -10 -40 -23q-40 -22 -89 -42q-21 -9 -43 -17t-45 -15q-15 -4 -36 -7t-36 -3q-61 0 -106 33.5t-45 88.5q0 35 11 77t31 96q40 103 171 367l-62 35l-58 -76l-98 -116l-82 -86l-75 -75q-58 -49 -124 -100q-59 -45 -116 -85l-98 -61 q-45 -27 -83 -43q-66 -31 -124 -44l-48 -8l-49 -3q-29 0 -55 5t-57 18q-43 17 -43 65q0 17 5.5 36.5t16.5 40.5l27 49q13 23 33 50l38 47q30 33 46 33l116 -63l3 1l-2 -5q-3 -9 -25 -34l-22 -29q-13 -20 -16 -38q0 -30 18.5 -47.5t58.5 -17.5q43 0 100 24q28 12 59.5 30.5 t67.5 43.5q128 90 311 258q110 120 193.5 232t139.5 219q51 92 90 199t68 225l108 -68l-73 -282q-15 -57 -36 -134q-17 -62 -43 -151l-111 -388q-10 -43 -16 -80t-6 -59q3 -33 26.5 -51t67.5 -18q52 0 137 38l36 18z"/>
<glyph glyph-name="Igrave" horiz-adv-x="1800" unicode="ร" d="M1946 202l-8 -59q-43 -40 -128 -81q-46 -21 -90.5 -33t-80.5 -12q-54 0 -97 34q-18 15 -31 41q-10 25 -16 64q0 54 10 90q8 40 34 100l22 54l21 46l-60 36q-157 -162 -253 -247.5t-165 -133.5q-59 -42 -115.5 -63t-97.5 -21q-57 0 -86 29.5t-29 74.5q0 25 11.5 58.5 t35 82.5t54 104.5t77.5 133.5l-67 20l-57 -46q-42 -34 -69 -61l-41 -41l-41 -35q-21 -18 -78 -57l-77 -53q-168 -102 -307.5 -156t-241.5 -54q-74 0 -111 18t-37 62q0 14 1 21t8.5 27t22.5 43l42 53l48 51q9 9 24 21.5t27 21.5l40 28q17 9 30 9l88 -67l-19 -14 q-27 -18 -46 -40q-15 -19 -26 -44q0 -83 75 -83q149 0 327 130q168 122 338 325q77 92 157 205q73 105 141 216q116 197 178 367l86 -60l-201 -476l-147 -348q-37 -94 -51 -143q-19 -60 -19 -101q0 -46 17.5 -66t51.5 -20q99 0 379 296l95 128q44 63 67.5 107t43.5 95.5 t39 122.5l36 149l49 224l117 -72q-6 -33 -9.5 -50t-13.5 -60l-45 -188l-56 -230l-39 -171q-15 -71 -23 -130.5t-8 -109.5v-18l4 -30q9 -38 36 -61q27 -21 74 -21q28 0 91 22q39 12 89 46zM158 305l4 -3l-1 5z"/>
<glyph glyph-name="Igrave" horiz-adv-x="1800" unicode="ะ" d="M1946 202l-8 -59q-43 -40 -128 -81q-46 -21 -90.5 -33t-80.5 -12q-54 0 -97 34q-18 15 -31 41q-10 25 -16 64q0 54 10 90q8 40 34 100l22 54l21 46l-60 36q-157 -162 -253 -247.5t-165 -133.5q-59 -42 -115.5 -63t-97.5 -21q-57 0 -86 29.5t-29 74.5q0 25 11.5 58.5 t35 82.5t54 104.5t77.5 133.5l-67 20l-57 -46q-42 -34 -69 -61l-41 -41l-41 -35q-21 -18 -78 -57l-77 -53q-168 -102 -307.5 -156t-241.5 -54q-74 0 -111 18t-37 62q0 14 1 21t8.5 27t22.5 43l42 53l48 51q9 9 24 21.5t27 21.5l40 28q17 9 30 9l88 -67l-19 -14 q-27 -18 -46 -40q-15 -19 -26 -44q0 -83 75 -83q149 0 327 130q168 122 338 325q77 92 157 205q73 105 141 216q116 197 178 367l86 -60l-201 -476l-147 -348q-37 -94 -51 -143q-19 -60 -19 -101q0 -46 17.5 -66t51.5 -20q99 0 379 296l95 128q44 63 67.5 107t43.5 95.5 t39 122.5l36 149l49 224l117 -72q-6 -33 -9.5 -50t-13.5 -60l-45 -188l-56 -230l-39 -171q-15 -71 -23 -130.5t-8 -109.5v-18l4 -30q9 -38 36 -61q27 -21 74 -21q28 0 91 22q39 12 89 46zM158 305l4 -3l-1 5z"/>
<glyph glyph-name="Iacute" horiz-adv-x="1309" unicode="ร" d="M1441 1297l-22 -84l-29 -101l-19 -66l-25 -80l-63 -199l98 -10l-14 -64l-81 3q-16 0 -39 -26q-26 -30 -53 -89q-39 -96 -74.5 -216t-35.5 -150q5 -37 26 -57q11 -10 26 -15t38 -5q46 0 138 38l84 38l-21 -79q-66 -31 -182 -70q-128 -35 -181 -35q-54 0 -95 29 q-37 28 -37 78q0 23 4 40l9 38l16 49l24 55l44 98l39 81l100 204q-254 0 -431 -33l-272 -383q-55 -76 -212 -260l-163 41l146 163l175 195l32 37l31 39l35 47l71 105q-30 -5 -67.5 -11.5t-58.5 -11.5q-34 -6 -56 -15l-47 -15l-24 -13q-11 -5 -20 -8l54 87q12 17 54.5 33.5 t228.5 42.5l111 200l41 80l40 80l73 152l61 135l76 -52q-44 -112 -106 -250q-30 -68 -72 -158q-36 -79 -85 -178q88 10 156 15t127 5l90 -4q21 0 33 6t18 19l9 19l7 20l23 58l83 234l79 236zM255 579q-13 -5 -21 -6l2 -7l9 -4z"/>
<glyph glyph-name="Iacute" horiz-adv-x="1309" unicode="ะ" d="M1441 1297l-22 -84l-29 -101l-19 -66l-25 -80l-63 -199l98 -10l-14 -64l-81 3q-16 0 -39 -26q-26 -30 -53 -89q-39 -96 -74.5 -216t-35.5 -150q5 -37 26 -57q11 -10 26 -15t38 -5q46 0 138 38l84 38l-21 -79q-66 -31 -182 -70q-128 -35 -181 -35q-54 0 -95 29 q-37 28 -37 78q0 23 4 40l9 38l16 49l24 55l44 98l39 81l100 204q-254 0 -431 -33l-272 -383q-55 -76 -212 -260l-163 41l146 163l175 195l32 37l31 39l35 47l71 105q-30 -5 -67.5 -11.5t-58.5 -11.5q-34 -6 -56 -15l-47 -15l-24 -13q-11 -5 -20 -8l54 87q12 17 54.5 33.5 t228.5 42.5l111 200l41 80l40 80l73 152l61 135l76 -52q-44 -112 -106 -250q-30 -68 -72 -158q-36 -79 -85 -178q88 10 156 15t127 5l90 -4q21 0 33 6t18 19l9 19l7 20l23 58l83 234l79 236zM255 579q-13 -5 -21 -6l2 -7l9 -4z"/>
<glyph glyph-name="Icircumflex" horiz-adv-x="1252" unicode="ร" d="M1324 842q0 -150 -57.5 -299t-161.5 -266.5t-251 -190.5q-141 -69 -303 -69q-152 0 -253 78q-92 74 -92 208q0 26 3 51.5t11 58.5q15 64 45 139t78.5 165t102.5 173q50 74 118 158q65 79 125 136q65 60 133 108q127 89 233 89q69 0 124.5 -35.5t120.5 -104.5l-42 -64 q-24 30 -58 64q-30 30 -63.5 45.5t-69.5 15.5q-81 0 -195 -90q-106 -85 -214 -225.5t-188 -304.5q-36 -77 -65 -160q-23 -72 -37 -148l-5 -56q0 -114 71 -165.5t150 -51.5q44 0 94 12q23 6 50 16t55 25q107 50 201 149q48 51 87 108t70 128q61 142 61 311q0 46 -1.5 66 t-6.5 55l-12 82l130 -80l8 -57z"/>
<glyph glyph-name="Icircumflex" horiz-adv-x="1252" unicode="ะ" d="M1324 842q0 -150 -57.5 -299t-161.5 -266.5t-251 -190.5q-141 -69 -303 -69q-152 0 -253 78q-92 74 -92 208q0 26 3 51.5t11 58.5q15 64 45 139t78.5 165t102.5 173q50 74 118 158q65 79 125 136q65 60 133 108q127 89 233 89q69 0 124.5 -35.5t120.5 -104.5l-42 -64 q-24 30 -58 64q-30 30 -63.5 45.5t-69.5 15.5q-81 0 -195 -90q-106 -85 -214 -225.5t-188 -304.5q-36 -77 -65 -160q-23 -72 -37 -148l-5 -56q0 -114 71 -165.5t150 -51.5q44 0 94 12q23 6 50 16t55 25q107 50 201 149q48 51 87 108t70 128q61 142 61 311q0 46 -1.5 66 t-6.5 55l-12 82l130 -80l8 -57z"/>
<glyph glyph-name="Idieresis" horiz-adv-x="1473" unicode="ร" d="M1715 1286l-168 3l-181 7q-99 0 -198 -18l-55 -117l-62 -137l-73 -162q-85 -138 -155 -241q-14 -20 -52 -76q-55 -79 -79 -113q-61 -85 -113 -145q-26 -32 -52 -59q-29 -31 -52 -52q-100 -93 -204 -134q-52 -19 -115 -31q-27 -4 -61 -7t-66 -3h-36q-15 3 -31.5 5 t-49.5 11q-58 17 -85 38t-29 36l2 5q3 5 5 6l12 8l125 83q9 6 23 9q7 -5 9 -9q27 -41 69 -64q44 -22 99 -22q98 0 208 81q27 21 48.5 39.5t47.5 43.5q48 47 88 95q77 95 148 202q151 261 253 426q106 174 181 287q-131 -27 -248 -82q-105 -49 -250 -147l-25 89q50 36 117 75 q76 40 181 76q50 17 113 31q28 6 81 16q13 2 57 10q151 22 333 22l108 -4l128 -4zM1568 186l-17 -67l-84 -36q-46 -18 -97 -33q-21 -6 -42 -11t-57 -12q-24 -3 -45.5 -5t-43.5 -2q-50 0 -103 24q-39 20 -39 79q0 62 48 198.5t112 278.5l68 150l84 181l110 241h66 q-7 -30 -20.5 -72t-34.5 -96l-111 -308l-51 -145l-44 -142q-39 -126 -39 -200q0 -45 27 -69t78 -24q70 0 235 70z"/>
<glyph glyph-name="Idieresis" horiz-adv-x="1473" unicode="ะ" d="M1715 1286l-168 3l-181 7q-99 0 -198 -18l-55 -117l-62 -137l-73 -162q-85 -138 -155 -241q-14 -20 -52 -76q-55 -79 -79 -113q-61 -85 -113 -145q-26 -32 -52 -59q-29 -31 -52 -52q-100 -93 -204 -134q-52 -19 -115 -31q-27 -4 -61 -7t-66 -3h-36q-15 3 -31.5 5 t-49.5 11q-58 17 -85 38t-29 36l2 5q3 5 5 6l12 8l125 83q9 6 23 9q7 -5 9 -9q27 -41 69 -64q44 -22 99 -22q98 0 208 81q27 21 48.5 39.5t47.5 43.5q48 47 88 95q77 95 148 202q151 261 253 426q106 174 181 287q-131 -27 -248 -82q-105 -49 -250 -147l-25 89q50 36 117 75 q76 40 181 76q50 17 113 31q28 6 81 16q13 2 57 10q151 22 333 22l108 -4l128 -4zM1568 186l-17 -67l-84 -36q-46 -18 -97 -33q-21 -6 -42 -11t-57 -12q-24 -3 -45.5 -5t-43.5 -2q-50 0 -103 24q-39 20 -39 79q0 62 48 198.5t112 278.5l68 150l84 181l110 241h66 q-7 -30 -20.5 -72t-34.5 -96l-111 -308l-51 -145l-44 -142q-39 -126 -39 -200q0 -45 27 -69t78 -24q70 0 235 70z"/>
<glyph glyph-name="Eth" horiz-adv-x="1233" unicode="ร" d="M1398 967q0 -62 -34 -130q-16 -30 -45 -61q-13 -13 -38 -33q-14 -12 -28 -23q-68 -46 -174 -71l-45 55q27 10 49 21t48 29q38 25 64.5 50t46.5 57q42 66 42 139v12q0 8 -2 16q0 10 -7 27q-9 40 -21.5 71.5t-34 67t-48 57t-74.5 41.5q-34 -60 -54 -100l-35 -78l-88 -247 q-60 -175 -118 -314q-47 -94 -107 -179q-65 -92 -152.5 -171.5t-205 -131t-257.5 -51.5q-94 0 -167 32l-34 15q-24 12 -27 27l8 11l115 92l11 10l3 -5l8 -11q81 -75 186 -75q159 0 291 154q60 71 131 184q33 53 68.5 117.5t69.5 133.5q17 45 31 79q18 44 28 65q19 47 22 53 q7 17 28 59q40 92 71 140l125 203q-144 0 -274 -82q-123 -77 -260 -250l-56 65q72 92 145 159q37 34 76 60q18 13 38 25q10 6 37 22q34 18 73 34q11 4 32 10.5t35 9.5q70 16 140 16q46 0 84.5 -11t72.5 -35q70 -47 121 -126q22 -31 44 -79q5 -11 12 -28t19 -53q3 -9 4.5 -18 t3.5 -18zM-14 207l1 1l2 2v11l-10 4l4 -11z"/>
<glyph glyph-name="Eth" horiz-adv-x="1233" unicode="ะ" d="M1398 967q0 -62 -34 -130q-16 -30 -45 -61q-13 -13 -38 -33q-14 -12 -28 -23q-68 -46 -174 -71l-45 55q27 10 49 21t48 29q38 25 64.5 50t46.5 57q42 66 42 139v12q0 8 -2 16q0 10 -7 27q-9 40 -21.5 71.5t-34 67t-48 57t-74.5 41.5q-34 -60 -54 -100l-35 -78l-88 -247 q-60 -175 -118 -314q-47 -94 -107 -179q-65 -92 -152.5 -171.5t-205 -131t-257.5 -51.5q-94 0 -167 32l-34 15q-24 12 -27 27l8 11l115 92l11 10l3 -5l8 -11q81 -75 186 -75q159 0 291 154q60 71 131 184q33 53 68.5 117.5t69.5 133.5q17 45 31 79q18 44 28 65q19 47 22 53 q7 17 28 59q40 92 71 140l125 203q-144 0 -274 -82q-123 -77 -260 -250l-56 65q72 92 145 159q37 34 76 60q18 13 38 25q10 6 37 22q34 18 73 34q11 4 32 10.5t35 9.5q70 16 140 16q46 0 84.5 -11t72.5 -35q70 -47 121 -126q22 -31 44 -79q5 -11 12 -28t19 -53q3 -9 4.5 -18 t3.5 -18zM-14 207l1 1l2 2v11l-10 4l4 -11z"/>
<glyph glyph-name="Ntilde" horiz-adv-x="1088" unicode="ร" d="M1293 1151q0 -136 -152 -261l-92 56q46 43 95 112q60 89 60 163q-3 24 -13 42q-8 18 -23 35q-33 35 -82 35q-124 0 -285 -156q-75 -76 -144 -168q-64 -87 -131 -203q-123 -225 -150 -400q-6 -36 -6 -72q0 -113 74 -172t222 -59q62 0 145 18l79 23q21 6 39 12t42 17l31 12 l49 24l-18 -60l-45 -25l-53 -23l-76 -28l-51 -16l-63 -15l-75 -14q-31 -5 -64 -8t-61 -3q-93 0 -171.5 30.5t-124 93t-45.5 154.5l3 48q3 27 4 31q5 14 6 20q18 80 50.5 167t83.5 179.5t106 174.5q27 39 57.5 79.5t61.5 76.5q65 76 130.5 135.5t134.5 107.5q128 86 236 86 q71 0 130 -54t80 -145q6 -24 6 -50z"/>
<glyph glyph-name="Ntilde" horiz-adv-x="1088" unicode="ะก" d="M1293 1151q0 -136 -152 -261l-92 56q46 43 95 112q60 89 60 163q-3 24 -13 42q-8 18 -23 35q-33 35 -82 35q-124 0 -285 -156q-75 -76 -144 -168q-64 -87 -131 -203q-123 -225 -150 -400q-6 -36 -6 -72q0 -113 74 -172t222 -59q62 0 145 18l79 23q21 6 39 12t42 17l31 12 l49 24l-18 -60l-45 -25l-53 -23l-76 -28l-51 -16l-63 -15l-75 -14q-31 -5 -64 -8t-61 -3q-93 0 -171.5 30.5t-124 93t-45.5 154.5l3 48q3 27 4 31q5 14 6 20q18 80 50.5 167t83.5 179.5t106 174.5q27 39 57.5 79.5t61.5 76.5q65 76 130.5 135.5t134.5 107.5q128 86 236 86 q71 0 130 -54t80 -145q6 -24 6 -50z"/>
<glyph glyph-name="Ograve" horiz-adv-x="1854" unicode="ร" d="M2050 1284l-291 22l-131 4l-143 4q-97 0 -272 -16l-288 -482q-132 -221 -273 -399q-69 -87 -145 -159q-71 -68 -162 -131q-167 -110 -358 -110q-108 0 -168 42q-23 17 -35.5 32.5t-17.5 35.5l13 7l130 76l21 12q8 0 15 -8l8 -12l22 -36l21 -26q10 -10 36 -19q13 -3 28 -5 t34 -2q121 0 267 126q66 57 133 130q63 69 129 156q26 34 63 85t69 97q39 56 77 111q13 19 75 112l138 200q70 100 118 162q-52 -10 -90.5 -19.5t-63.5 -17.5t-50.5 -18t-58.5 -26q-49 -23 -108 -58l-141 -87l-23 91q62 40 115 69l111 56q59 27 119.5 45t141.5 33 q147 26 323 26q310 0 602 -32zM1529 1185q-46 -90 -89 -206l-114 -302q-32 -81 -71.5 -163.5t-85.5 -157.5q-86 -144 -241 -322l-141 25l43 43l39 42q55 62 107 136l66 97l40 65l59 102l75 132l132 295l98 210zM1990 192l-11 -63l-112 -52q-46 -20 -88 -33q-86 -27 -149 -27 q-76 0 -118 29t-42 87q0 22 3 47t10 59q12 63 48 186q11 35 30 94.5t26 77.5l48 129q59 162 171 438l90 -8l-63 -206l-95 -317l-65 -229l-25 -115q-9 -51 -9 -74q6 -44 36 -70q31 -23 84 -23q82 0 231 70z"/>
<glyph glyph-name="Ograve" horiz-adv-x="1854" unicode="ะข" d="M2050 1284l-291 22l-131 4l-143 4q-97 0 -272 -16l-288 -482q-132 -221 -273 -399q-69 -87 -145 -159q-71 -68 -162 -131q-167 -110 -358 -110q-108 0 -168 42q-23 17 -35.5 32.5t-17.5 35.5l13 7l130 76l21 12q8 0 15 -8l8 -12l22 -36l21 -26q10 -10 36 -19q13 -3 28 -5 t34 -2q121 0 267 126q66 57 133 130q63 69 129 156q26 34 63 85t69 97q39 56 77 111q13 19 75 112l138 200q70 100 118 162q-52 -10 -90.5 -19.5t-63.5 -17.5t-50.5 -18t-58.5 -26q-49 -23 -108 -58l-141 -87l-23 91q62 40 115 69l111 56q59 27 119.5 45t141.5 33 q147 26 323 26q310 0 602 -32zM1529 1185q-46 -90 -89 -206l-114 -302q-32 -81 -71.5 -163.5t-85.5 -157.5q-86 -144 -241 -322l-141 25l43 43l39 42q55 62 107 136l66 97l40 65l59 102l75 132l132 295l98 210zM1990 192l-11 -63l-112 -52q-46 -20 -88 -33q-86 -27 -149 -27 q-76 0 -118 29t-42 87q0 22 3 47t10 59q12 63 48 186q11 35 30 94.5t26 77.5l48 129q59 162 171 438l90 -8l-63 -206l-95 -317l-65 -229l-25 -115q-9 -51 -9 -74q6 -44 36 -70q31 -23 84 -23q82 0 231 70z"/>
<glyph glyph-name="Oacute" horiz-adv-x="1108" unicode="ร" d="M1279 1247l-36 -125l-28 -111l-51 -209q-8 -36 -12 -51t-14 -46q-12 -44 -33 -98q-32 -85 -99 -220q-23 -37 -51 -73t-59 -68q-60 -63 -141 -120q-154 -109 -376 -109q-110 0 -185 38q-37 18 -65 40t-48 49l-25 39q-6 16 -9 32l11 1l150 68l13 4q4 -5 7 -14l8 -26l24 -46 l14 -24l21 -25q25 -23 61 -40q37 -14 93 -14q111 0 200 62q18 13 37 30t40 39q35 37 71 88q56 85 154 273q47 91 82 158q40 75 58 107l-58 52q-18 -27 -34.5 -47t-39.5 -43q-31 -34 -73 -68q-78 -66 -161 -103q-43 -20 -79.5 -29.5t-73.5 -9.5q-29 0 -48 6t-29 23 q-22 36 -22 99q6 45 28 118t86 215q31 71 67 144q20 43 41 87q13 27 48 96l76 -56l-61 -126q-53 -114 -101 -236q-20 -52 -33 -96t-13 -75q0 -89 81 -89q37 0 72 16t83 55q42 33 86.5 85.5t89.5 120.5q20 31 40.5 67t40.5 75q34 67 74 169zM221 288h2l-4 2z"/>
<glyph glyph-name="Oacute" horiz-adv-x="1108" unicode="ะฃ" d="M1279 1247l-36 -125l-28 -111l-51 -209q-8 -36 -12 -51t-14 -46q-12 -44 -33 -98q-32 -85 -99 -220q-23 -37 -51 -73t-59 -68q-60 -63 -141 -120q-154 -109 -376 -109q-110 0 -185 38q-37 18 -65 40t-48 49l-25 39q-6 16 -9 32l11 1l150 68l13 4q4 -5 7 -14l8 -26l24 -46 l14 -24l21 -25q25 -23 61 -40q37 -14 93 -14q111 0 200 62q18 13 37 30t40 39q35 37 71 88q56 85 154 273q47 91 82 158q40 75 58 107l-58 52q-18 -27 -34.5 -47t-39.5 -43q-31 -34 -73 -68q-78 -66 -161 -103q-43 -20 -79.5 -29.5t-73.5 -9.5q-29 0 -48 6t-29 23 q-22 36 -22 99q6 45 28 118t86 215q31 71 67 144q20 43 41 87q13 27 48 96l76 -56l-61 -126q-53 -114 -101 -236q-20 -52 -33 -96t-13 -75q0 -89 81 -89q37 0 72 16t83 55q42 33 86.5 85.5t89.5 120.5q20 31 40.5 67t40.5 75q34 67 74 169zM221 288h2l-4 2z"/>
<glyph glyph-name="Ocircumflex" horiz-adv-x="1698" unicode="ร" d="M1226 1147q-26 53 -65.5 79.5t-95.5 26.5q-19 0 -38.5 -3t-41.5 -10q-37 -11 -86 -39q-41 -23 -85.5 -57t-83.5 -72q-18 -18 -41.5 -44.5t-33.5 -38.5q-34 -42 -63 -86q-25 -37 -47 -83q-19 -46 -30 -83l-4 -36q0 -45 36 -80q34 -28 90 -28q125 0 238 79q105 75 193 197 q76 109 158 278zM1838 903q0 -107 -75 -209t-236 -174q-75 -32 -166 -51t-197 -19l-3 73q67 0 124.5 14.5t123.5 41.5t120 64q27 19 48 38t43 45q81 93 81 216v17v13q-2 10 -2 14q0 19 -8 38q-35 151 -147 151q-83 0 -183 -96.5t-203 -286.5l-115 -182l-127 -209l-133 -211 q-34 -56 -61 -94l-62 -91l-164 52l116 150l85 107q76 96 128 155q60 69 123 135l-43 59q-30 -21 -61 -41q-25 -16 -56 -33q-52 -28 -105 -48q-49 -17 -92 -28q-21 -4 -38 -6t-39 -2q-63 0 -111 36q-39 32 -39 96q0 26 2 37l10 43q19 59 47 114.5t65 108.5q26 38 41.5 58.5 t41.5 49.5q45 53 89.5 91.5t101.5 78.5q49 33 106 64q50 23 100 36.5t89 13.5q47 0 86 -24q18 -11 44 -40q21 -24 70 -90l82 232l47 -37l-64 -197l52 -36q50 53 99.5 76.5t107.5 23.5q80 0 144 -73.5t102 -180.5l8 -40z"/>
<glyph glyph-name="Ocircumflex" horiz-adv-x="1698" unicode="ะค" d="M1226 1147q-26 53 -65.5 79.5t-95.5 26.5q-19 0 -38.5 -3t-41.5 -10q-37 -11 -86 -39q-41 -23 -85.5 -57t-83.5 -72q-18 -18 -41.5 -44.5t-33.5 -38.5q-34 -42 -63 -86q-25 -37 -47 -83q-19 -46 -30 -83l-4 -36q0 -45 36 -80q34 -28 90 -28q125 0 238 79q105 75 193 197 q76 109 158 278zM1838 903q0 -107 -75 -209t-236 -174q-75 -32 -166 -51t-197 -19l-3 73q67 0 124.5 14.5t123.5 41.5t120 64q27 19 48 38t43 45q81 93 81 216v17v13q-2 10 -2 14q0 19 -8 38q-35 151 -147 151q-83 0 -183 -96.5t-203 -286.5l-115 -182l-127 -209l-133 -211 q-34 -56 -61 -94l-62 -91l-164 52l116 150l85 107q76 96 128 155q60 69 123 135l-43 59q-30 -21 -61 -41q-25 -16 -56 -33q-52 -28 -105 -48q-49 -17 -92 -28q-21 -4 -38 -6t-39 -2q-63 0 -111 36q-39 32 -39 96q0 26 2 37l10 43q19 59 47 114.5t65 108.5q26 38 41.5 58.5 t41.5 49.5q45 53 89.5 91.5t101.5 78.5q49 33 106 64q50 23 100 36.5t89 13.5q47 0 86 -24q18 -11 44 -40q21 -24 70 -90l82 232l47 -37l-64 -197l52 -36q50 53 99.5 76.5t107.5 23.5q80 0 144 -73.5t102 -180.5l8 -40z"/>
<glyph glyph-name="Otilde" horiz-adv-x="1321" unicode="ร" d="M1545 1225l-113 -137l-61 -69l-54 -59l-154 -165l-206 -226q0 -81 7 -137q0 -149 63 -232q59 -76 161 -76q67 0 144 38l37 18l34 20l-16 -61q-142 -109 -279 -109q-147 0 -207 106q-32 53 -53 128q-10 36 -16.5 75t-12.5 98l-129 -97q-95 -70 -182 -130q-66 -43 -147 -90 t-153 -79q-155 -73 -261 -73q-53 0 -96 22q-34 19 -34 59q0 13 1 20.5t7 27.5q14 34 51.5 86.5t79.5 90.5q35 32 48 32q6 0 11 -4l87 -57l6 -5l-21 -21q-15 -15 -24 -33q-8 -13 -13 -30q0 -40 11 -54q13 -25 56 -25q70 0 322 164q242 159 382 283q0 86 9 173l18 146l17 138 q5 37 9.5 67t13.5 75q21 127 56 268l87 -47l-39 -219q-17 -109 -28 -233q0 -47 -2 -88q-7 -143 -7 -163l94 104l88 102l65 80l39 52l46 63l43 63l123 180z"/>
<glyph glyph-name="Otilde" horiz-adv-x="1321" unicode="ะฅ" d="M1545 1225l-113 -137l-61 -69l-54 -59l-154 -165l-206 -226q0 -81 7 -137q0 -149 63 -232q59 -76 161 -76q67 0 144 38l37 18l34 20l-16 -61q-142 -109 -279 -109q-147 0 -207 106q-32 53 -53 128q-10 36 -16.5 75t-12.5 98l-129 -97q-95 -70 -182 -130q-66 -43 -147 -90 t-153 -79q-155 -73 -261 -73q-53 0 -96 22q-34 19 -34 59q0 13 1 20.5t7 27.5q14 34 51.5 86.5t79.5 90.5q35 32 48 32q6 0 11 -4l87 -57l6 -5l-21 -21q-15 -15 -24 -33q-8 -13 -13 -30q0 -40 11 -54q13 -25 56 -25q70 0 322 164q242 159 382 283q0 86 9 173l18 146l17 138 q5 37 9.5 67t13.5 75q21 127 56 268l87 -47l-39 -219q-17 -109 -28 -233q0 -47 -2 -88q-7 -143 -7 -163l94 104l88 102l65 80l39 52l46 63l43 63l123 180z"/>
<glyph glyph-name="Odieresis" horiz-adv-x="1379" unicode="ร" d="M1436 205l-92 -201l-88 -191l-56 -132l-193 32l70 95l66 80l73 80l42 51l56 75l-56 57q-185 -134 -273 -134q-70 0 -98 38q-27 41 -27 72q0 55 34.5 137t110.5 206l-73 36q-36 -35 -75 -70q-35 -32 -78 -69q-66 -57 -139 -115q-57 -46 -132 -95q-61 -40 -126 -76 q-58 -30 -109 -48q-54 -16 -90 -16l-37 3q-16 3 -34 18q-22 19 -22 56v18q0 10 4 21q17 59 110 224q29 54 39 71q1 1 28 46l79 133l90 148l253 413l71 119l47 82l63 -50l-330 -606l-110 -205l-66 -128q-21 -47 -33 -77.5t-17 -48.5q0 -69 70 -69q38 0 85 23.5t111.5 72 t126 110t130.5 145t127 169.5q62 91 118 199q103 190 156 392l80 -56q-22 -85 -49 -173q-12 -42 -22.5 -79t-21.5 -72l-104 -322l-79 -254q-23 -77 -23 -117q0 -30 31 -60q14 -11 33.5 -18t41.5 -7q49 0 101 29q21 10 48 31l68 57z"/>
<glyph glyph-name="Odieresis" horiz-adv-x="1379" unicode="ะฆ" d="M1436 205l-92 -201l-88 -191l-56 -132l-193 32l70 95l66 80l73 80l42 51l56 75l-56 57q-185 -134 -273 -134q-70 0 -98 38q-27 41 -27 72q0 55 34.5 137t110.5 206l-73 36q-36 -35 -75 -70q-35 -32 -78 -69q-66 -57 -139 -115q-57 -46 -132 -95q-61 -40 -126 -76 q-58 -30 -109 -48q-54 -16 -90 -16l-37 3q-16 3 -34 18q-22 19 -22 56v18q0 10 4 21q17 59 110 224q29 54 39 71q1 1 28 46l79 133l90 148l253 413l71 119l47 82l63 -50l-330 -606l-110 -205l-66 -128q-21 -47 -33 -77.5t-17 -48.5q0 -69 70 -69q38 0 85 23.5t111.5 72 t126 110t130.5 145t127 169.5q62 91 118 199q103 190 156 392l80 -56q-22 -85 -49 -173q-12 -42 -22.5 -79t-21.5 -72l-104 -322l-79 -254q-23 -77 -23 -117q0 -30 31 -60q14 -11 33.5 -18t41.5 -7q49 0 101 29q21 10 48 31l68 57z"/>
<glyph glyph-name="multiply" horiz-adv-x="1125" unicode="ร" d="M1239 1252l-78 -176l-145 -331l-62 -152l-56 -147q-53 -145 -53 -206q0 -53 42 -82q38 -22 72 -22q29 0 67 13q19 6 49 18.5t68 31.5q21 9 38 23l-23 -67q-97 -60 -186 -94q-43 -15 -81.5 -23t-73.5 -8q-76 0 -124 37.5t-48 96.5q0 15 3.5 33.5t9.5 39.5q10 36 30 79 q18 44 21 50q8 18 20 42q18 38 49 85q58 94 116 182l131 189l-64 47q-77 -74 -138 -119t-109 -65l-86 -29q-17 -4 -34.5 -7t-32.5 -3q-135 0 -135 146q21 110 295 562l69 -55q-209 -356 -220 -442q0 -112 116 -112q71 0 138 44q30 19 62 49q15 14 30 31t30 37q24 32 55 79.5 t54 93.5q45 84 92 190z"/>
<glyph glyph-name="multiply" horiz-adv-x="1125" unicode="ะง" d="M1239 1252l-78 -176l-145 -331l-62 -152l-56 -147q-53 -145 -53 -206q0 -53 42 -82q38 -22 72 -22q29 0 67 13q19 6 49 18.5t68 31.5q21 9 38 23l-23 -67q-97 -60 -186 -94q-43 -15 -81.5 -23t-73.5 -8q-76 0 -124 37.5t-48 96.5q0 15 3.5 33.5t9.5 39.5q10 36 30 79 q18 44 21 50q8 18 20 42q18 38 49 85q58 94 116 182l131 189l-64 47q-77 -74 -138 -119t-109 -65l-86 -29q-17 -4 -34.5 -7t-32.5 -3q-135 0 -135 146q21 110 295 562l69 -55q-209 -356 -220 -442q0 -112 116 -112q71 0 138 44q30 19 62 49q15 14 30 31t30 37q24 32 55 79.5 t54 93.5q45 84 92 190z"/>
<glyph glyph-name="Oslash" horiz-adv-x="1800" unicode="ร" d="M1942 192l-12 -76q-51 -40 -129 -69q-35 -12 -78 -22q-19 -4 -35.5 -6t-34.5 -2q-57 0 -100.5 28.5t-47.5 72.5q0 61 16 121t57 148l-76 24l-140 -119l-116 -91q-102 -75 -182 -118q-66 -34 -125 -53q-54 -13 -89 -13q-107 0 -107 88q8 55 41 110q25 43 49 78 q32 48 88 121l-75 32q-110 -93 -196 -156l-96 -67l-102 -65l-101 -56q-48 -24 -99 -45q-24 -10 -46.5 -18t-44.5 -13q-41 -9 -77 -9q-45 0 -80 18q-25 13 -25 39q0 16 6 31q12 31 44 83.5t87 132.5l126 176l155 209l316 420q122 163 168 233l64 -52q-183 -276 -316 -466 l-246 -358l-131 -189l-16 -25l-12 -31q0 -79 69 -79q48 0 184 79q34 21 43 26q37 23 69 45l85 60q157 132 281 285q113 143 193 298q17 32 46 93q15 32 31 64q38 84 79 185l85 -60l-37 -83l-59 -123l-167 -337l-75 -150l-62 -137q-58 -134 -58 -174q0 -88 71 -88q25 0 63 15 t88 49q101 65 143 106q63 59 102 102q43 47 82 100q32 43 67 100q25 43 56 104q25 51 45 106q8 22 14.5 39.5t23.5 72.5l44 156l31 114l110 -69l-18 -73l-54 -205l-60 -212l-43 -162q-16 -68 -25 -129t-9 -106v-17l4 -26q3 -15 9 -27l19 -24q10 -10 30 -20q18 -6 42 -6 q22 0 66 15q19 7 48 19t62 28z"/>
<glyph glyph-name="Oslash" horiz-adv-x="1800" unicode="ะจ" d="M1942 192l-12 -76q-51 -40 -129 -69q-35 -12 -78 -22q-19 -4 -35.5 -6t-34.5 -2q-57 0 -100.5 28.5t-47.5 72.5q0 61 16 121t57 148l-76 24l-140 -119l-116 -91q-102 -75 -182 -118q-66 -34 -125 -53q-54 -13 -89 -13q-107 0 -107 88q8 55 41 110q25 43 49 78 q32 48 88 121l-75 32q-110 -93 -196 -156l-96 -67l-102 -65l-101 -56q-48 -24 -99 -45q-24 -10 -46.5 -18t-44.5 -13q-41 -9 -77 -9q-45 0 -80 18q-25 13 -25 39q0 16 6 31q12 31 44 83.5t87 132.5l126 176l155 209l316 420q122 163 168 233l64 -52q-183 -276 -316 -466 l-246 -358l-131 -189l-16 -25l-12 -31q0 -79 69 -79q48 0 184 79q34 21 43 26q37 23 69 45l85 60q157 132 281 285q113 143 193 298q17 32 46 93q15 32 31 64q38 84 79 185l85 -60l-37 -83l-59 -123l-167 -337l-75 -150l-62 -137q-58 -134 -58 -174q0 -88 71 -88q25 0 63 15 t88 49q101 65 143 106q63 59 102 102q43 47 82 100q32 43 67 100q25 43 56 104q25 51 45 106q8 22 14.5 39.5t23.5 72.5l44 156l31 114l110 -69l-18 -73l-54 -205l-60 -212l-43 -162q-16 -68 -25 -129t-9 -106v-17l4 -26q3 -15 9 -27l19 -24q10 -10 30 -20q18 -6 42 -6 q22 0 66 15q19 7 48 19t62 28z"/>
<glyph glyph-name="Ugrave" horiz-adv-x="1917" unicode="ร" d="M2059 195l-54 -134l-69 -178l-37 -103l-39 -113l-193 46l42 70l19 30l36 49l75 101q47 61 96 133l-71 32q-94 -63 -152 -91q-20 -10 -44 -15t-56 -5q-116 0 -128 96q0 58 16 119q8 32 21.5 70.5t34.5 88.5l-71 26q-117 -122 -215 -203.5t-173 -121.5q-33 -17 -65 -30.5 t-64 -24.5q-60 -20 -99 -20q-49 0 -78 22q-23 18 -23 50q4 44 36 103q16 32 49 86l92 146l-82 16q-53 -48 -120 -103q-57 -46 -128 -97q-134 -95 -262 -160q-55 -27 -117 -47q-59 -16 -99 -16q-44 0 -67 16.5t-23 44.5q0 17 6 37q26 68 133 226l116 165l129 177l294 400 q141 193 192 271l53 -50l-31 -50l-92 -139l-244 -355l-80 -119l-72 -107l-62 -96q-85 -134 -101 -190q0 -81 62 -81q15 0 26.5 2t31.5 9q37 13 81 37q42 21 97.5 64t119 105.5t134.5 152t149 204.5q72 106 151 245q41 73 78 144t78 155l83 -60l-78 -169l-71 -155l-63 -138 l-135 -304l-37 -90l-25 -66l-14 -41l-9 -41q0 -60 61 -75h20q22 0 37 2t36 9q36 10 74 31q64 30 150 145q39 51 85 135q39 73 97 195q97 216 202 536l107 -60l-51 -202l-40 -169l-57 -258l-28 -155l-7 -87q0 -25 4 -44l1 -15q0 -9 5 -18q23 -67 94 -67q32 0 61 11 q17 7 33 15.5t36 22.5q60 41 93 72z"/>
<glyph glyph-name="Ugrave" horiz-adv-x="1917" unicode="ะฉ" d="M2059 195l-54 -134l-69 -178l-37 -103l-39 -113l-193 46l42 70l19 30l36 49l75 101q47 61 96 133l-71 32q-94 -63 -152 -91q-20 -10 -44 -15t-56 -5q-116 0 -128 96q0 58 16 119q8 32 21.5 70.5t34.5 88.5l-71 26q-117 -122 -215 -203.5t-173 -121.5q-33 -17 -65 -30.5 t-64 -24.5q-60 -20 -99 -20q-49 0 -78 22q-23 18 -23 50q4 44 36 103q16 32 49 86l92 146l-82 16q-53 -48 -120 -103q-57 -46 -128 -97q-134 -95 -262 -160q-55 -27 -117 -47q-59 -16 -99 -16q-44 0 -67 16.5t-23 44.5q0 17 6 37q26 68 133 226l116 165l129 177l294 400 q141 193 192 271l53 -50l-31 -50l-92 -139l-244 -355l-80 -119l-72 -107l-62 -96q-85 -134 -101 -190q0 -81 62 -81q15 0 26.5 2t31.5 9q37 13 81 37q42 21 97.5 64t119 105.5t134.5 152t149 204.5q72 106 151 245q41 73 78 144t78 155l83 -60l-78 -169l-71 -155l-63 -138 l-135 -304l-37 -90l-25 -66l-14 -41l-9 -41q0 -60 61 -75h20q22 0 37 2t36 9q36 10 74 31q64 30 150 145q39 51 85 135q39 73 97 195q97 216 202 536l107 -60l-51 -202l-40 -169l-57 -258l-28 -155l-7 -87q0 -25 4 -44l1 -15q0 -9 5 -18q23 -67 94 -67q32 0 61 11 q17 7 33 15.5t36 22.5q60 41 93 72z"/>
<glyph glyph-name="Uacute" horiz-adv-x="1069" unicode="ร" d="M1210 753l-53 -21l-72 -28l33 -100l16 -69q0 -61 -18.5 -121.5t-55.5 -119.5q-72 -116 -210 -195t-317 -79q-97 0 -195 39q-80 33 -80 146q0 22 6 55q11 64 31.5 126t50 126t68 130t86.5 132q41 56 99 128q51 62 109 119t122 107q59 46 146 101l-32 60l-80 -18 q-35 -6 -53 -6q-21 0 -51 13q-35 10 -54.5 15t-31.5 5q-38 0 -78 -22l-28 -18l-28 94q65 56 144 56q23 0 38.5 -3.5t26.5 -16.5l32 -28l30 -17q14 -5 49 -9l91 -4l40 1q19 0 34 5l40 -66q-36 -33 -79 -74q-39 -38 -77 -77q-74 -75 -135 -148q-66 -81 -114.5 -147.5 t-88.5 -132.5q-74 -125 -107.5 -216.5t-42.5 -169.5q0 -198 175 -198q96 0 192 69q87 63 144 168.5t57 202.5q0 30 -6 58.5t-21 65.5l-46 -1l-25 -1q-31 0 -60.5 3t-60.5 10l-9 69q18 18 48 30q47 15 80 15q25 0 36.5 -1t31.5 -7q30 -7 60 -27q22 2 41.5 5.5t41.5 10.5 q38 11 75 30z"/>
<glyph glyph-name="Uacute" horiz-adv-x="1069" unicode="ะช" d="M1210 753l-53 -21l-72 -28l33 -100l16 -69q0 -61 -18.5 -121.5t-55.5 -119.5q-72 -116 -210 -195t-317 -79q-97 0 -195 39q-80 33 -80 146q0 22 6 55q11 64 31.5 126t50 126t68 130t86.5 132q41 56 99 128q51 62 109 119t122 107q59 46 146 101l-32 60l-80 -18 q-35 -6 -53 -6q-21 0 -51 13q-35 10 -54.5 15t-31.5 5q-38 0 -78 -22l-28 -18l-28 94q65 56 144 56q23 0 38.5 -3.5t26.5 -16.5l32 -28l30 -17q14 -5 49 -9l91 -4l40 1q19 0 34 5l40 -66q-36 -33 -79 -74q-39 -38 -77 -77q-74 -75 -135 -148q-66 -81 -114.5 -147.5 t-88.5 -132.5q-74 -125 -107.5 -216.5t-42.5 -169.5q0 -198 175 -198q96 0 192 69q87 63 144 168.5t57 202.5q0 30 -6 58.5t-21 65.5l-46 -1l-25 -1q-31 0 -60.5 3t-60.5 10l-9 69q18 18 48 30q47 15 80 15q25 0 36.5 -1t31.5 -7q30 -7 60 -27q22 2 41.5 5.5t41.5 10.5 q38 11 75 30z"/>
<glyph glyph-name="Ucircumflex" horiz-adv-x="1575" unicode="ร" d="M1684 196l-14 -66q-54 -34 -148 -68q-12 -4 -39 -12q-18 -5 -49 -12.5t-57 -7.5q-65 0 -117 36t-52 98q0 33 5 65.5t18 77t29.5 89t41.5 98.5l87 199q35 77 75 198l-61 20q-76 -70 -162.5 -116t-214.5 -89q28 -115 28 -165q0 -109 -85.5 -232t-241 -207.5t-340.5 -84.5 q-90 0 -176 35q-72 29 -72 122q0 35 12 82q15 47 43 104q11 23 31.5 60.5t39.5 68.5q81 135 177 283l238 344l174 255l67 -58q-62 -107 -168 -268l-202 -300l-82 -125l-68 -114q-14 -25 -28 -53q-8 -15 -25 -52q-9 -20 -17 -43t-15 -47q-6 -30 -6 -59q0 -73 51 -112 q48 -33 108 -33q45 0 93 15q23 8 48 19.5t51 27.5q50 31 94 72q38 37 80 93q37 50 58 103q10 26 15 51t5 53q0 73 -14 130h-98h-18h-15q-10 2 -14 2l-46 8v66q23 22 57 34q47 15 79 15q67 0 122 -35q69 8 129.5 30.5t123.5 62.5t117 87t102 105q40 49 68 94.5t51 98.5 l89 -54q-16 -81 -46 -187l-90 -311l-48 -167l-35 -129q-27 -116 -27 -172q4 -39 31.5 -61t76.5 -22q15 0 32 3t39 11q44 14 105 46z"/>
<glyph glyph-name="Ucircumflex" horiz-adv-x="1575" unicode="ะซ" d="M1684 196l-14 -66q-54 -34 -148 -68q-12 -4 -39 -12q-18 -5 -49 -12.5t-57 -7.5q-65 0 -117 36t-52 98q0 33 5 65.5t18 77t29.5 89t41.5 98.5l87 199q35 77 75 198l-61 20q-76 -70 -162.5 -116t-214.5 -89q28 -115 28 -165q0 -109 -85.5 -232t-241 -207.5t-340.5 -84.5 q-90 0 -176 35q-72 29 -72 122q0 35 12 82q15 47 43 104q11 23 31.5 60.5t39.5 68.5q81 135 177 283l238 344l174 255l67 -58q-62 -107 -168 -268l-202 -300l-82 -125l-68 -114q-14 -25 -28 -53q-8 -15 -25 -52q-9 -20 -17 -43t-15 -47q-6 -30 -6 -59q0 -73 51 -112 q48 -33 108 -33q45 0 93 15q23 8 48 19.5t51 27.5q50 31 94 72q38 37 80 93q37 50 58 103q10 26 15 51t5 53q0 73 -14 130h-98h-18h-15q-10 2 -14 2l-46 8v66q23 22 57 34q47 15 79 15q67 0 122 -35q69 8 129.5 30.5t123.5 62.5t117 87t102 105q40 49 68 94.5t51 98.5 l89 -54q-16 -81 -46 -187l-90 -311l-48 -167l-35 -129q-27 -116 -27 -172q4 -39 31.5 -61t76.5 -22q15 0 32 3t39 11q44 14 105 46z"/>
<glyph glyph-name="Udieresis" horiz-adv-x="1012" unicode="ร" d="M1149 753l-50 -21l-74 -28l32 -97l17 -70q0 -63 -17.5 -123.5t-55.5 -119.5q-71 -117 -209 -195.5t-317 -78.5q-51 0 -98 10q-26 5 -47 11.5t-48 17.5q-80 33 -80 144q0 22 7.5 62t22 88.5t39 105t53.5 114.5t67 125l91 156l126 207l185 300l70 -60l-180 -323l-71 -129 l-60 -109l-48 -90q-62 -117 -97 -201l-28 -77q-8 -32 -13 -67q0 -198 173 -198q95 0 191 69q86 63 145 170q56 103 56 203q0 32 -6 59q-2 13 -7 29t-13 34l-46 -1l-26 -1q-31 0 -60.5 3t-60.5 10l-8 69l20 16l28 13q48 16 78 16q73 0 128 -35q47 5 82.5 16t75.5 30z"/>
<glyph glyph-name="Udieresis" horiz-adv-x="1012" unicode="ะฌ" d="M1149 753l-50 -21l-74 -28l32 -97l17 -70q0 -63 -17.5 -123.5t-55.5 -119.5q-71 -117 -209 -195.5t-317 -78.5q-51 0 -98 10q-26 5 -47 11.5t-48 17.5q-80 33 -80 144q0 22 7.5 62t22 88.5t39 105t53.5 114.5t67 125l91 156l126 207l185 300l70 -60l-180 -323l-71 -129 l-60 -109l-48 -90q-62 -117 -97 -201l-28 -77q-8 -32 -13 -67q0 -198 173 -198q95 0 191 69q86 63 145 170q56 103 56 203q0 32 -6 59q-2 13 -7 29t-13 34l-46 -1l-26 -1q-31 0 -60.5 3t-60.5 10l-8 69l20 16l28 13q48 16 78 16q73 0 128 -35q47 5 82.5 16t75.5 30z"/>
<glyph glyph-name="Yacute" horiz-adv-x="1145" unicode="ร" d="M1228 889q0 -145 -53 -301t-154 -284q-27 -34 -53.5 -62.5t-59.5 -54.5q-58 -48 -138 -91q-150 -79 -334 -79q-170 0 -271 64q-94 59 -94 159q0 21 6 51l6 27l7 27l162 -14l-1 -5q0 -98 51 -159.5t155 -61.5q34 0 61 4t61 15t65 25t65 35q123 78 215 200 q47 60 79.5 121.5t56.5 136.5q-58 40 -113 57q-27 9 -55 14t-58 5q-111 0 -213 -96l-70 85q117 87 240 87q30 0 55.5 -4t63.5 -16q31 -9 76 -27t99 -43q33 182 33 263q0 45 -1.5 61.5t-6.5 45.5q-25 148 -77 206.5t-115 58.5q-68 0 -135.5 -56t-135.5 -172l-68 65 q73 120 151 181t167 61q73 0 136 -50.5t110 -140.5t68 -186q17 -65 17 -152z"/>
<glyph glyph-name="Yacute" horiz-adv-x="1145" unicode="ะญ" d="M1228 889q0 -145 -53 -301t-154 -284q-27 -34 -53.5 -62.5t-59.5 -54.5q-58 -48 -138 -91q-150 -79 -334 -79q-170 0 -271 64q-94 59 -94 159q0 21 6 51l6 27l7 27l162 -14l-1 -5q0 -98 51 -159.5t155 -61.5q34 0 61 4t61 15t65 25t65 35q123 78 215 200 q47 60 79.5 121.5t56.5 136.5q-58 40 -113 57q-27 9 -55 14t-58 5q-111 0 -213 -96l-70 85q117 87 240 87q30 0 55.5 -4t63.5 -16q31 -9 76 -27t99 -43q33 182 33 263q0 45 -1.5 61.5t-6.5 45.5q-25 148 -77 206.5t-115 58.5q-68 0 -135.5 -56t-135.5 -172l-68 65 q73 120 151 181t167 61q73 0 136 -50.5t110 -140.5t68 -186q17 -65 17 -152z"/>
<glyph glyph-name="Thorn" horiz-adv-x="1719" unicode="ร" d="M1795 756q0 -132 -52 -270q-24 -65 -60 -124q-32 -53 -81 -113q-45 -54 -99 -96.5t-116 -74.5q-120 -61 -250 -61q-68 0 -144 24t-130 89q-27 33 -41 80t-14 110l3 37q0 86 30 167.5t88 167.5l-46 41q-38 -18 -77 -43q-19 -11 -40 -25.5t-42 -30.5l-88 -69 q-54 -42 -104 -89q-110 -95 -232 -214q-59 -57 -116 -116l-110 -120l-160 28l111 129l102 120l91 112q143 177 249 329q49 69 103 155l95 154q77 135 153 289l76 -45q-24 -56 -70.5 -150.5t-100.5 -195.5q-67 -124 -122 -211q-62 -100 -121 -179l49 -42l205 170l218 172 l77 58l63 44l80 -82q-51 -59 -97 -143q-26 -45 -48 -93t-41 -103q-35 -102 -35 -181q0 -116 42.5 -190t163.5 -74q143 0 261 115q56 57 98.5 125t77.5 159q62 169 62 336q0 102 -24 180q-33 125 -88 188t-122 63q-54 0 -108.5 -54.5t-110.5 -169.5l-76 31q29 68 66 126 q46 66 104 108q53 38 108 38q73 0 138 -50q31 -23 65 -60q30 -33 59.5 -76.5t51.5 -89.5t43 -103q33 -96 33 -207z"/>
<glyph glyph-name="Thorn" horiz-adv-x="1719" unicode="ะฎ" d="M1795 756q0 -132 -52 -270q-24 -65 -60 -124q-32 -53 -81 -113q-45 -54 -99 -96.5t-116 -74.5q-120 -61 -250 -61q-68 0 -144 24t-130 89q-27 33 -41 80t-14 110l3 37q0 86 30 167.5t88 167.5l-46 41q-38 -18 -77 -43q-19 -11 -40 -25.5t-42 -30.5l-88 -69 q-54 -42 -104 -89q-110 -95 -232 -214q-59 -57 -116 -116l-110 -120l-160 28l111 129l102 120l91 112q143 177 249 329q49 69 103 155l95 154q77 135 153 289l76 -45q-24 -56 -70.5 -150.5t-100.5 -195.5q-67 -124 -122 -211q-62 -100 -121 -179l49 -42l205 170l218 172 l77 58l63 44l80 -82q-51 -59 -97 -143q-26 -45 -48 -93t-41 -103q-35 -102 -35 -181q0 -116 42.5 -190t163.5 -74q143 0 261 115q56 57 98.5 125t77.5 159q62 169 62 336q0 102 -24 180q-33 125 -88 188t-122 63q-54 0 -108.5 -54.5t-110.5 -169.5l-76 31q29 68 66 126 q46 66 104 108q53 38 108 38q73 0 138 -50q31 -23 65 -60q30 -33 59.5 -76.5t51.5 -89.5t43 -103q33 -96 33 -207z"/>
<glyph glyph-name="germandbls" horiz-adv-x="1374" unicode="ร" d="M1204 1108l-4 45q-12 54 -39 89q-35 38 -75 38q-94 0 -209 -152q-26 -35 -57.5 -84.5t-55.5 -100.5q-50 -106 -50 -179q0 -57 32 -87.5t98 -30.5q44 0 94 15.5t104 45.5l41 56q20 31 40 70q35 67 58 141.5t23 133.5zM1494 196l-12 -68q-106 -60 -191 -92 q-81 -29 -146 -29q-49 0 -84 23q-31 22 -31 64q0 79 46 192q8 20 26.5 62.5t23.5 52.5l60 112l84 148l72 122q-94 -25 -143 -47q-37 -16 -66 -39q-39 -32 -97 -117q-51 -78 -93 -128q-55 -51 -111 -96l-120 -89q-128 -84 -246 -138.5t-223 -83.5l-95 -21q-19 -3 -39 -5 t-39 -2q-78 0 -130 34q-43 28 -43 76l1 16q0 10 5 23q10 30 11 31l9 18q10 23 30 51q9 13 17 23t21 23l39 41q29 26 44 29l9 -4l94 -59l2 -8l-15 -12l-11 -9l-10 -8q-19 -19 -32.5 -39.5t-21.5 -49.5q0 -36 16 -57t63 -29h35q47 0 113 25q56 21 144 69q43 23 75.5 42 t75.5 47q60 39 145 102q78 58 133 108q65 60 139 146l-182 -52l-68 -18l-32 -6l-33 -3q-61 0 -106 35q-21 15 -30.5 43t-9.5 70q0 32 9 70q2 9 12 43q15 57 45 117q53 121 134.5 220.5t167.5 160.5q81 57 147 57q61 0 107 -58q50 -64 71 -150l7 -35l2 -34q0 -34 -4 -62 t-16 -69q-18 -74 -76 -211q38 23 72 45.5t59 41.5q34 26 68 61l83 -41l-79 -214l-80 -214l-27 -75l-20 -64q-17 -59 -17 -97q9 -71 81 -71q42 0 119 31z"/>
<glyph glyph-name="germandbls" horiz-adv-x="1374" unicode="ะฏ" d="M1204 1108l-4 45q-12 54 -39 89q-35 38 -75 38q-94 0 -209 -152q-26 -35 -57.5 -84.5t-55.5 -100.5q-50 -106 -50 -179q0 -57 32 -87.5t98 -30.5q44 0 94 15.5t104 45.5l41 56q20 31 40 70q35 67 58 141.5t23 133.5zM1494 196l-12 -68q-106 -60 -191 -92 q-81 -29 -146 -29q-49 0 -84 23q-31 22 -31 64q0 79 46 192q8 20 26.5 62.5t23.5 52.5l60 112l84 148l72 122q-94 -25 -143 -47q-37 -16 -66 -39q-39 -32 -97 -117q-51 -78 -93 -128q-55 -51 -111 -96l-120 -89q-128 -84 -246 -138.5t-223 -83.5l-95 -21q-19 -3 -39 -5 t-39 -2q-78 0 -130 34q-43 28 -43 76l1 16q0 10 5 23q10 30 11 31l9 18q10 23 30 51q9 13 17 23t21 23l39 41q29 26 44 29l9 -4l94 -59l2 -8l-15 -12l-11 -9l-10 -8q-19 -19 -32.5 -39.5t-21.5 -49.5q0 -36 16 -57t63 -29h35q47 0 113 25q56 21 144 69q43 23 75.5 42 t75.5 47q60 39 145 102q78 58 133 108q65 60 139 146l-182 -52l-68 -18l-32 -6l-33 -3q-61 0 -106 35q-21 15 -30.5 43t-9.5 70q0 32 9 70q2 9 12 43q15 57 45 117q53 121 134.5 220.5t167.5 160.5q81 57 147 57q61 0 107 -58q50 -64 71 -150l7 -35l2 -34q0 -34 -4 -62 t-16 -69q-18 -74 -76 -211q38 23 72 45.5t59 41.5q34 26 68 61l83 -41l-79 -214l-80 -214l-27 -75l-20 -64q-17 -59 -17 -97q9 -71 81 -71q42 0 119 31z"/>
<glyph glyph-name="agrave" horiz-adv-x="983" unicode="ร" d="M823 646q-31 34 -61.5 50t-60.5 16t-62.5 -11.5t-73.5 -37.5q-70 -46 -142 -122q-33 -33 -63 -72l-55 -78q-48 -81 -56 -139q0 -120 85 -120q28 0 60 13t80 43l85 60q39 30 76 67q76 73 97 116zM1020 214l-11 -69l-57 -36l-72 -39q-15 -8 -32.5 -15t-39.5 -14 q-36 -11 -60 -11q-44 0 -73.5 21t-29.5 48q0 18 5 37l22 53l36 79l-58 14l-108 -88q-25 -20 -36 -28.5t-54 -39.5q-20 -14 -42 -27q-12 -7 -45 -26q-81 -43 -162 -43q-51 0 -90 33q-36 33 -36 95q0 26 4.5 56t35.5 86.5t83 124.5q107 140 236.5 238t221.5 98q43 0 80 -23 q38 -20 89 -79l20 59l88 -48l-115 -326q-39 -98 -39 -136q12 -66 61 -66q13 0 19.5 1.5t22.5 6.5q24 8 62 27z"/>
<glyph glyph-name="agrave" horiz-adv-x="983" unicode="ะฐ" d="M823 646q-31 34 -61.5 50t-60.5 16t-62.5 -11.5t-73.5 -37.5q-70 -46 -142 -122q-33 -33 -63 -72l-55 -78q-48 -81 -56 -139q0 -120 85 -120q28 0 60 13t80 43l85 60q39 30 76 67q76 73 97 116zM1020 214l-11 -69l-57 -36l-72 -39q-15 -8 -32.5 -15t-39.5 -14 q-36 -11 -60 -11q-44 0 -73.5 21t-29.5 48q0 18 5 37l22 53l36 79l-58 14l-108 -88q-25 -20 -36 -28.5t-54 -39.5q-20 -14 -42 -27q-12 -7 -45 -26q-81 -43 -162 -43q-51 0 -90 33q-36 33 -36 95q0 26 4.5 56t35.5 86.5t83 124.5q107 140 236.5 238t221.5 98q43 0 80 -23 q38 -20 89 -79l20 59l88 -48l-115 -326q-39 -98 -39 -136q12 -66 61 -66q13 0 19.5 1.5t22.5 6.5q24 8 62 27z"/>
<glyph glyph-name="aacute" horiz-adv-x="772" unicode="รก" d="M1045 1244l-2 -114l-91 -22q-19 -5 -34.5 -9.5t-32.5 -10.5q-68 -22 -89 -43q-25 -28 -25 -64q0 -33 7.5 -70t24.5 -85l14 -65q5 -27 7 -40t2 -31l2 -49q0 -169 -89 -310q-42 -67 -99 -122.5t-127 -98.5q-33 -19 -68 -34.5t-69 -25.5q-69 -20 -134 -20q-99 0 -160.5 42 t-61.5 111q0 16 6 43q18 91 100 194q40 52 95 100q46 41 119 89q68 43 127.5 68.5t134.5 44.5l23 -48q-67 -30 -116.5 -58t-95.5 -64q-99 -75 -157 -154q-24 -34 -43 -75q-17 -40 -24 -71q0 -138 106 -138q72 0 167 56.5t180 159.5q39 51 63 107q12 28 21 56.5t17 63.5l2 78 q0 55 -6 121l-14 69l-9 38l-11 36l-17 66q-19 57 -19 86l1 23l6 22q3 11 17 22l20 15q10 6 20 11.5t32 14.5l72 27q69 24 208 58z"/>
<glyph glyph-name="aacute" horiz-adv-x="772" unicode="ะฑ" d="M1045 1244l-2 -114l-91 -22q-19 -5 -34.5 -9.5t-32.5 -10.5q-68 -22 -89 -43q-25 -28 -25 -64q0 -33 7.5 -70t24.5 -85l14 -65q5 -27 7 -40t2 -31l2 -49q0 -169 -89 -310q-42 -67 -99 -122.5t-127 -98.5q-33 -19 -68 -34.5t-69 -25.5q-69 -20 -134 -20q-99 0 -160.5 42 t-61.5 111q0 16 6 43q18 91 100 194q40 52 95 100q46 41 119 89q68 43 127.5 68.5t134.5 44.5l23 -48q-67 -30 -116.5 -58t-95.5 -64q-99 -75 -157 -154q-24 -34 -43 -75q-17 -40 -24 -71q0 -138 106 -138q72 0 167 56.5t180 159.5q39 51 63 107q12 28 21 56.5t17 63.5l2 78 q0 55 -6 121l-14 69l-9 38l-11 36l-17 66q-19 57 -19 86l1 23l6 22q3 11 17 22l20 15q10 6 20 11.5t32 14.5l72 27q69 24 208 58z"/>
<glyph glyph-name="acircumflex" horiz-adv-x="760" unicode="รข" d="M868 991q-4 42 -24.5 65t-46.5 23q-37 0 -92 -43.5t-116 -131.5q-73 -90 -109 -140l-48 -70l-29 -44l-127 -231q117 61 187 107q62 40 123.5 89.5t109.5 96.5q24 23 46.5 47.5t43.5 50.5q82 106 82 181zM943 1014q0 -103 -97 -221.5t-253 -234.5q-26 -19 -60 -43t-99 -67 q-78 -50 -175 -102l-28 -76l-11 -55q0 -18 6 -35.5t20 -36.5q15 -16 38 -28q27 -10 56 -10q107 0 181 102q30 45 48.5 98t18.5 114l128 20l2 -18v-17q0 -52 -13 -96.5t-43 -90.5q-54 -85 -151.5 -136t-215.5 -51q-120 0 -168 51q-13 15 -23 30.5t-16 31.5q-15 39 -15 102 l-95 -48l27 48l85 51q31 91 68 170.5t86 158.5t99 146.5t107 130.5q112 123 221 192q47 32 93.5 50t83.5 18q67 0 91 -113z"/>
<glyph glyph-name="acircumflex" horiz-adv-x="760" unicode="ะฒ" d="M868 991q-4 42 -24.5 65t-46.5 23q-37 0 -92 -43.5t-116 -131.5q-73 -90 -109 -140l-48 -70l-29 -44l-127 -231q117 61 187 107q62 40 123.5 89.5t109.5 96.5q24 23 46.5 47.5t43.5 50.5q82 106 82 181zM943 1014q0 -103 -97 -221.5t-253 -234.5q-26 -19 -60 -43t-99 -67 q-78 -50 -175 -102l-28 -76l-11 -55q0 -18 6 -35.5t20 -36.5q15 -16 38 -28q27 -10 56 -10q107 0 181 102q30 45 48.5 98t18.5 114l128 20l2 -18v-17q0 -52 -13 -96.5t-43 -90.5q-54 -85 -151.5 -136t-215.5 -51q-120 0 -168 51q-13 15 -23 30.5t-16 31.5q-15 39 -15 102 l-95 -48l27 48l85 51q31 91 68 170.5t86 158.5t99 146.5t107 130.5q112 123 221 192q47 32 93.5 50t83.5 18q67 0 91 -113z"/>
<glyph glyph-name="atilde" horiz-adv-x="535" unicode="รฃ" d="M570 686q0 -57 -27.5 -102.5t-87.5 -108.5q-227 -218 -227 -286q0 -13 4.5 -24.5t16.5 -23.5q23 -21 56 -21q20 0 55.5 9t86.5 31q29 11 67 30l37 19l-16 -62l-71 -37l-90 -39q-49 -19 -98 -31q-19 -4 -42.5 -7t-40.5 -3q-67 0 -101.5 21.5t-34.5 69.5q15 121 270 355 l57 56l25 25l22 25q23 31 23 55q0 31 -38 49h-32l-15 -4l-20 -7l-35 -18l-42 -23l-19 38q141 91 237 91q70 0 80 -77z"/>
<glyph glyph-name="atilde" horiz-adv-x="535" unicode="ะณ" d="M570 686q0 -57 -27.5 -102.5t-87.5 -108.5q-227 -218 -227 -286q0 -13 4.5 -24.5t16.5 -23.5q23 -21 56 -21q20 0 55.5 9t86.5 31q29 11 67 30l37 19l-16 -62l-71 -37l-90 -39q-49 -19 -98 -31q-19 -4 -42.5 -7t-40.5 -3q-67 0 -101.5 21.5t-34.5 69.5q15 121 270 355 l57 56l25 25l22 25q23 31 23 55q0 31 -38 49h-32l-15 -4l-20 -7l-35 -18l-42 -23l-19 38q141 91 237 91q70 0 80 -77z"/>
<glyph glyph-name="adieresis" horiz-adv-x="920" unicode="รค" d="M823 625q-21 42 -46.5 61.5t-55.5 19.5q-37 0 -80 -20q-42 -18 -95 -62q-43 -36 -89 -86q-41 -43 -83 -102q-78 -112 -88 -200q0 -51 19.5 -75.5t55.5 -24.5q46 0 108 34q57 30 125 92q18 17 32 32t30 35t30 39t31 44q27 40 56 97q23 46 50 116zM925 668l-88 -209 l-79 -185l-73 -169q-108 -247 -173 -380q-25 -54 -45.5 -97t-35.5 -73l-168 45l82 120l68 96l133 186l74 103l41 59q6 9 21 36q10 18 14 26l-52 25q-28 -20 -48 -36q-9 -7 -36 -32l-58 -46l-36 -28l-48 -30l-56 -26q-34 -12 -61 -18q-25 -4 -38 -4.5t-21 -0.5q-27 0 -47 5.5 t-45 21.5q-34 20 -34 74l4 37q8 50 29 98q11 26 24.5 51t31.5 53t35.5 52t38.5 49q37 46 86.5 94t95 83t91.5 61q19 11 38 20t41 18q37 14 61 14q30 0 57 -20.5t78 -82.5l25 54z"/>
<glyph glyph-name="adieresis" horiz-adv-x="920" unicode="ะด" d="M823 625q-21 42 -46.5 61.5t-55.5 19.5q-37 0 -80 -20q-42 -18 -95 -62q-43 -36 -89 -86q-41 -43 -83 -102q-78 -112 -88 -200q0 -51 19.5 -75.5t55.5 -24.5q46 0 108 34q57 30 125 92q18 17 32 32t30 35t30 39t31 44q27 40 56 97q23 46 50 116zM925 668l-88 -209 l-79 -185l-73 -169q-108 -247 -173 -380q-25 -54 -45.5 -97t-35.5 -73l-168 45l82 120l68 96l133 186l74 103l41 59q6 9 21 36q10 18 14 26l-52 25q-28 -20 -48 -36q-9 -7 -36 -32l-58 -46l-36 -28l-48 -30l-56 -26q-34 -12 -61 -18q-25 -4 -38 -4.5t-21 -0.5q-27 0 -47 5.5 t-45 21.5q-34 20 -34 74l4 37q8 50 29 98q11 26 24.5 51t31.5 53t35.5 52t38.5 49q37 46 86.5 94t95 83t91.5 61q19 11 38 20t41 18q37 14 61 14q30 0 57 -20.5t78 -82.5l25 54z"/>
<glyph glyph-name="aring" horiz-adv-x="707" unicode="รฅ" d="M688 625q-6 65 -65 65q-28 0 -58.5 -13t-64.5 -41q-62 -49 -124 -125q-36 -47 -54 -76q-28 -45 -63 -118q101 27 169.5 55t132.5 68t95.5 87t31.5 98zM798 656q0 -69 -39.5 -132.5t-155.5 -129.5q-56 -29 -150 -65q-77 -27 -213 -59l-6 -39q0 -126 157 -126q36 0 83 9 q27 5 49 11t56 18q76 24 141 59l-13 -53q-37 -22 -93 -45l-110 -38q-135 -36 -233 -36q-102 0 -146 41q-21 23 -32.5 42t-11.5 41v72l-56 -30l22 42l55 32q24 58 60 114.5t86 114.5q98 116 210.5 189t207.5 73q55 0 92 -31q17 -15 26 -33t14 -41z"/>
<glyph glyph-name="aring" horiz-adv-x="707" unicode="ะต" d="M688 625q-6 65 -65 65q-28 0 -58.5 -13t-64.5 -41q-62 -49 -124 -125q-36 -47 -54 -76q-28 -45 -63 -118q101 27 169.5 55t132.5 68t95.5 87t31.5 98zM798 656q0 -69 -39.5 -132.5t-155.5 -129.5q-56 -29 -150 -65q-77 -27 -213 -59l-6 -39q0 -126 157 -126q36 0 83 9 q27 5 49 11t56 18q76 24 141 59l-13 -53q-37 -22 -93 -45l-110 -38q-135 -36 -233 -36q-102 0 -146 41q-21 23 -32.5 42t-11.5 41v72l-56 -30l22 42l55 32q24 58 60 114.5t86 114.5q98 116 210.5 189t207.5 73q55 0 92 -31q17 -15 26 -33t14 -41z"/>
<glyph glyph-name="ae" horiz-adv-x="1354" unicode="รฆ" d="M1404 214l-6 -69q-16 -10 -32.5 -20t-38.5 -22q-38 -21 -77 -37q-84 -36 -146 -36q-68 0 -105 31.5t-37 94.5v21t2 21q0 10 2 16t7 15l19 42l41 79l-49 34l-100 -86l-31 -30l-28 -30l-37 -39l-43 -56l-49 -71l-34 -51l-73 32l210 357l-55 28l-146 -120 q-114 -95 -200 -158q-40 -27 -85 -52t-82.5 -41.5t-77.5 -26.5q-18 -4 -39 -7t-38 -3q-61 0 -89.5 27.5t-28.5 67.5l1 20q0 12 5 25q9 33 27 60l97 35l-11 -36l-4 -34q0 -88 83 -88q24 0 53.5 13t70.5 42q21 15 41.5 32.5t45.5 44t48.5 55.5t55.5 71q68 98 100.5 166 t32.5 110t-17 60.5t-48 18.5q-15 0 -22 -2q-10 0 -22 -8l-47 -25l-34 -20l-17 38q62 41 116 63.5t93 22.5q83 0 83 -115q0 -66 -20 -102q-8 -17 -129 -203l62 -14q43 30 92 76q40 38 95 98q79 89 145 189l36 -23l-76 -189l-35 -78q-11 -28 -22 -71l54 -10l137 126l85 79 l73 63q52 45 112 81l50 -64q-130 -90 -200 -195q-66 -102 -66 -211q9 -58 32 -84t58 -26q14 0 51 12t88 39z"/>
<glyph glyph-name="ae" horiz-adv-x="1354" unicode="ะถ" d="M1404 214l-6 -69q-16 -10 -32.5 -20t-38.5 -22q-38 -21 -77 -37q-84 -36 -146 -36q-68 0 -105 31.5t-37 94.5v21t2 21q0 10 2 16t7 15l19 42l41 79l-49 34l-100 -86l-31 -30l-28 -30l-37 -39l-43 -56l-49 -71l-34 -51l-73 32l210 357l-55 28l-146 -120 q-114 -95 -200 -158q-40 -27 -85 -52t-82.5 -41.5t-77.5 -26.5q-18 -4 -39 -7t-38 -3q-61 0 -89.5 27.5t-28.5 67.5l1 20q0 12 5 25q9 33 27 60l97 35l-11 -36l-4 -34q0 -88 83 -88q24 0 53.5 13t70.5 42q21 15 41.5 32.5t45.5 44t48.5 55.5t55.5 71q68 98 100.5 166 t32.5 110t-17 60.5t-48 18.5q-15 0 -22 -2q-10 0 -22 -8l-47 -25l-34 -20l-17 38q62 41 116 63.5t93 22.5q83 0 83 -115q0 -66 -20 -102q-8 -17 -129 -203l62 -14q43 30 92 76q40 38 95 98q79 89 145 189l36 -23l-76 -189l-35 -78q-11 -28 -22 -71l54 -10l137 126l85 79 l73 63q52 45 112 81l50 -64q-130 -90 -200 -195q-66 -102 -66 -211q9 -58 32 -84t58 -26q14 0 51 12t88 39z"/>
<glyph glyph-name="ccedilla" horiz-adv-x="676" unicode="รง" d="M693 668q0 -87 -65 -146q-17 -14 -36 -26t-42 -24q-40 -17 -103 -28v-64h43q63 0 96.5 -21.5t39.5 -69.5q0 -28 -14 -58.5t-43 -62.5q-56 -59 -156 -100q-25 -9 -47 -15.5t-62 -14.5t-91 -8q-93 0 -161 37q-57 32 -57 109l2 12l7 28q0 6 9 23l38 13l67 22l-6 -36 q0 -139 142 -139q56 0 112.5 31.5t90.5 80t34 94.5q0 78 -100 78l-33 -1l-10 46q125 45 187.5 102.5t62.5 123.5q0 29 -19 46.5t-59 17.5q-28 0 -79.5 -25t-118.5 -75l-26 36q35 32 59.5 50t65.5 43q78 42 138 42q53 0 90 -35t44 -86z"/>
<glyph glyph-name="ccedilla" horiz-adv-x="676" unicode="ะท" d="M693 668q0 -87 -65 -146q-17 -14 -36 -26t-42 -24q-40 -17 -103 -28v-64h43q63 0 96.5 -21.5t39.5 -69.5q0 -28 -14 -58.5t-43 -62.5q-56 -59 -156 -100q-25 -9 -47 -15.5t-62 -14.5t-91 -8q-93 0 -161 37q-57 32 -57 109l2 12l7 28q0 6 9 23l38 13l67 22l-6 -36 q0 -139 142 -139q56 0 112.5 31.5t90.5 80t34 94.5q0 78 -100 78l-33 -1l-10 46q125 45 187.5 102.5t62.5 123.5q0 29 -19 46.5t-59 17.5q-28 0 -79.5 -25t-118.5 -75l-26 36q35 32 59.5 50t65.5 43q78 42 138 42q53 0 90 -35t44 -86z"/>
<glyph glyph-name="egrave" horiz-adv-x="901" unicode="รจ" d="M931 216l-13 -68q-58 -34 -149 -72q-50 -22 -87.5 -34t-58.5 -12q-27 0 -50 15q-19 15 -25 39v29q0 31 28 77q9 19 34 55l61 92l-40 49l-152 -121l-83 -69l-71 -56q-53 -39 -127 -80q-13 -7 -25.5 -12t-31.5 -11q-14 -3 -26 -5t-25 -2q-56 0 -56 70q6 33 34 86 q35 69 118 201l240 399l69 -42l-230 -425l-14 -24l-15 -29v-16q0 -54 53 -54q32 0 75 25t104 81q47 44 103 105q25 28 51 59q22 27 53 65q76 98 115 168l80 -43l-150 -391q-12 -24 -12 -54q14 -61 66 -61q28 0 51 11l65 34z"/>
<glyph glyph-name="egrave" horiz-adv-x="901" unicode="ะธ" d="M931 216l-13 -68q-58 -34 -149 -72q-50 -22 -87.5 -34t-58.5 -12q-27 0 -50 15q-19 15 -25 39v29q0 31 28 77q9 19 34 55l61 92l-40 49l-152 -121l-83 -69l-71 -56q-53 -39 -127 -80q-13 -7 -25.5 -12t-31.5 -11q-14 -3 -26 -5t-25 -2q-56 0 -56 70q6 33 34 86 q35 69 118 201l240 399l69 -42l-230 -425l-14 -24l-15 -29v-16q0 -54 53 -54q32 0 75 25t104 81q47 44 103 105q25 28 51 59q22 27 53 65q76 98 115 168l80 -43l-150 -391q-12 -24 -12 -54q14 -61 66 -61q28 0 51 11l65 34z"/>
<glyph glyph-name="eacute" horiz-adv-x="901" unicode="รฉ" d="M948 216l-17 -68q-48 -25 -162.5 -71.5t-159.5 -46.5q-32 0 -57 16q-17 13 -22 36v29q6 32 38.5 83.5t106.5 143.5l-46 46q-60 -41 -154 -113l-94 -70l-81 -57l-74 -46q-40 -23 -68 -36q-11 -5 -31 -12q-11 -4 -38 -12t-50 -8q-60 0 -60 69q3 23 24 60q4 8 15.5 27.5 t22.5 35.5l33 51q33 54 38 61q14 21 39 57l67 96l206 303l77 -44l-265 -425l-17 -27l-13 -30v-14q0 -54 52 -54q66 0 190.5 104.5t235.5 228.5q47 53 79 95q17 22 31.5 43t22.5 34l89 -45l-182 -388q-12 -23 -12 -55q0 -63 66 -63q28 0 51 11l31 13l45 22zM984 1164l-38 -59 q-8 -13 -15.5 -22.5t-15.5 -18.5q-27 -33 -66 -54q-9 -5 -22 -8.5t-31 -6.5t-29.5 -3.5t-18.5 -0.5q-44 0 -74.5 12t-46.5 41q-34 63 -34 122v15l72 4q18 -138 126 -138q41 0 83 34.5t82 106.5z"/>
<glyph glyph-name="eacute" horiz-adv-x="901" unicode="ะน" d="M948 216l-17 -68q-48 -25 -162.5 -71.5t-159.5 -46.5q-32 0 -57 16q-17 13 -22 36v29q6 32 38.5 83.5t106.5 143.5l-46 46q-60 -41 -154 -113l-94 -70l-81 -57l-74 -46q-40 -23 -68 -36q-11 -5 -31 -12q-11 -4 -38 -12t-50 -8q-60 0 -60 69q3 23 24 60q4 8 15.5 27.5 t22.5 35.5l33 51q33 54 38 61q14 21 39 57l67 96l206 303l77 -44l-265 -425l-17 -27l-13 -30v-14q0 -54 52 -54q66 0 190.5 104.5t235.5 228.5q47 53 79 95q17 22 31.5 43t22.5 34l89 -45l-182 -388q-12 -23 -12 -55q0 -63 66 -63q28 0 51 11l31 13l45 22zM984 1164l-38 -59 q-8 -13 -15.5 -22.5t-15.5 -18.5q-27 -33 -66 -54q-9 -5 -22 -8.5t-31 -6.5t-29.5 -3.5t-18.5 -0.5q-44 0 -74.5 12t-46.5 41q-34 63 -34 122v15l72 4q18 -138 126 -138q41 0 83 34.5t82 106.5z"/>
<glyph glyph-name="ecircumflex" horiz-adv-x="865" unicode="รช" d="M894 201l-10 -56q-86 -71 -173.5 -107.5t-179.5 -36.5q-103 0 -103 96v22q3 11 5 22t14 35l11 18l8 11l4 8l4 13l5 18l-2 16q-12 36 -45 36q-17 0 -42 -14q-27 -13 -63 -43q-28 -24 -64 -57q-26 -24 -64 -60l-54 -56l-48 -51l-109 30l442 720l68 -48l-228 -406l59 -23 l79 74l80 78l121 124l46 42l57 51l122 94l51 -79l-103 -63l-109 -73q-121 -81 -183 -159l17 -53l40 9l27 2q33 0 33 -44l-2 -10l-10 -19q-9 -13 -12 -24l-10 -26l-5 -34v-18q0 -71 69 -71q28 0 65.5 14t97.5 45q35 19 52 28q25 14 42 25z"/>
<glyph glyph-name="ecircumflex" horiz-adv-x="865" unicode="ะบ" d="M894 201l-10 -56q-86 -71 -173.5 -107.5t-179.5 -36.5q-103 0 -103 96v22q3 11 5 22t14 35l11 18l8 11l4 8l4 13l5 18l-2 16q-12 36 -45 36q-17 0 -42 -14q-27 -13 -63 -43q-28 -24 -64 -57q-26 -24 -64 -60l-54 -56l-48 -51l-109 30l442 720l68 -48l-228 -406l59 -23 l79 74l80 78l121 124l46 42l57 51l122 94l51 -79l-103 -63l-109 -73q-121 -81 -183 -159l17 -53l40 9l27 2q33 0 33 -44l-2 -10l-10 -19q-9 -13 -12 -24l-10 -26l-5 -34v-18q0 -71 69 -71q28 0 65.5 14t97.5 45q35 19 52 28q25 14 42 25z"/>
<glyph glyph-name="edieresis" horiz-adv-x="826" unicode="รซ" d="M862 209l-11 -62q-191 -117 -257 -117q-38 0 -73 23q-28 20 -28 58q0 42 22 93q5 14 12 29.5t20 39.5l56 110l-70 40q-82 -108 -142 -174q-28 -33 -59.5 -64t-66.5 -61q-55 -46 -111 -70t-113 -24q-122 0 -122 97q3 20 9 37l12 29l113 49l-1 -10q0 -37 13 -62 q8 -12 23.5 -22t36.5 -10q30 0 77.5 28.5t105.5 86.5q50 50 113 126q57 69 111 147q50 72 90.5 140t71.5 131l85 -46l-67 -239q-74 -196 -74 -284q0 -54 69 -71h28q14 1 37 9q11 4 25 10.5t30 15.5z"/>
<glyph glyph-name="edieresis" horiz-adv-x="826" unicode="ะป" d="M862 209l-11 -62q-191 -117 -257 -117q-38 0 -73 23q-28 20 -28 58q0 42 22 93q5 14 12 29.5t20 39.5l56 110l-70 40q-82 -108 -142 -174q-28 -33 -59.5 -64t-66.5 -61q-55 -46 -111 -70t-113 -24q-122 0 -122 97q3 20 9 37l12 29l113 49l-1 -10q0 -37 13 -62 q8 -12 23.5 -22t36.5 -10q30 0 77.5 28.5t105.5 86.5q50 50 113 126q57 69 111 147q50 72 90.5 140t71.5 131l85 -46l-67 -239q-74 -196 -74 -284q0 -54 69 -71h28q14 1 37 9q11 4 25 10.5t30 15.5z"/>
<glyph glyph-name="igrave" horiz-adv-x="1211" unicode="รฌ" d="M1263 217l-7 -71l-62 -37l-76 -38q-39 -18 -76 -31q-35 -10 -57 -10q-43 0 -72 22q-24 20 -27 43q0 32 21.5 87.5t66.5 136.5l-62 45l-142 -143l-98 -92q-73 -64 -117 -91q-16 -10 -31.5 -15.5t-25.5 -5.5q-31 0 -49 18q-17 15 -17 41q0 56 153 293l-77 28 q-76 -83 -151 -155q-26 -25 -66 -60q-33 -29 -66 -56q-113 -96 -217 -96q-47 0 -83 21q-28 16 -28 50l2 25q6 37 25 65l118 51l-2 -8q0 -48 11 -66q6 -12 22 -22q16 -8 36 -8q28 0 76 29q53 33 118 92q62 54 126 123.5t128 150.5q61 75 103 134.5t78 127.5l65 -41l-134 -340 q-52 -110 -58 -146v-24q3 -17 15 -27.5t32 -10.5q28 0 63.5 21.5t81.5 70.5q77 80 160 213q67 113 108 215l83 -43l-100 -329q-35 -103 -35 -137q9 -67 75 -67l24 1q13 2 32 11q23 7 82 39zM42 242l38 16l-1 31q0 15 -8 15q-5 0 -17 -22z"/>
<glyph glyph-name="igrave" horiz-adv-x="1211" unicode="ะผ" d="M1263 217l-7 -71l-62 -37l-76 -38q-39 -18 -76 -31q-35 -10 -57 -10q-43 0 -72 22q-24 20 -27 43q0 32 21.5 87.5t66.5 136.5l-62 45l-142 -143l-98 -92q-73 -64 -117 -91q-16 -10 -31.5 -15.5t-25.5 -5.5q-31 0 -49 18q-17 15 -17 41q0 56 153 293l-77 28 q-76 -83 -151 -155q-26 -25 -66 -60q-33 -29 -66 -56q-113 -96 -217 -96q-47 0 -83 21q-28 16 -28 50l2 25q6 37 25 65l118 51l-2 -8q0 -48 11 -66q6 -12 22 -22q16 -8 36 -8q28 0 76 29q53 33 118 92q62 54 126 123.5t128 150.5q61 75 103 134.5t78 127.5l65 -41l-134 -340 q-52 -110 -58 -146v-24q3 -17 15 -27.5t32 -10.5q28 0 63.5 21.5t81.5 70.5q77 80 160 213q67 113 108 215l83 -43l-100 -329q-35 -103 -35 -137q9 -67 75 -67l24 1q13 2 32 11q23 7 82 39zM42 242l38 16l-1 31q0 15 -8 15q-5 0 -17 -22z"/>
<glyph glyph-name="iacute" horiz-adv-x="924" unicode="รญ" d="M962 216l-9 -69q-53 -28 -99 -50t-84 -38q-73 -29 -110 -29q-51 0 -86 28q-30 24 -30 63l1 17l8 25l37 81l78 153q-108 -10 -186.5 -26t-177.5 -48l-191 -304l-125 36l450 726l70 -37l-177 -364q55 20 97 31t84 18l68 11l45 3h61l90 269l81 -36l-119 -352 q-37 -91 -37 -123q12 -61 67 -61q29 0 76 18l45 19l54 29z"/>
<glyph glyph-name="iacute" horiz-adv-x="924" unicode="ะฝ" d="M962 216l-9 -69q-53 -28 -99 -50t-84 -38q-73 -29 -110 -29q-51 0 -86 28q-30 24 -30 63l1 17l8 25l37 81l78 153q-108 -10 -186.5 -26t-177.5 -48l-191 -304l-125 36l450 726l70 -37l-177 -364q55 20 97 31t84 18l68 11l45 3h61l90 269l81 -36l-119 -352 q-37 -91 -37 -123q12 -61 67 -61q29 0 76 18l45 19l54 29z"/>
<glyph glyph-name="icircumflex" horiz-adv-x="774" unicode="รฎ" d="M781 531q0 -129 -69.5 -245.5t-181 -186t-245.5 -69.5q-202 0 -202 146l5 41q4 31 7 44.5t13 40.5q14 42 39 87q47 87 125.5 167.5t180.5 149.5q13 8 54 33q24 14 34 19.5t45 23.5q27 13 50 24l21 -61q-46 -18 -95 -49q-42 -27 -93 -69q-100 -87 -167 -190 q-31 -51 -51.5 -103t-20.5 -90q0 -141 123 -141q69 0 146 59q36 30 65 67.5t54 94.5q45 102 45 233l-5 58l108 33l6 -30l5 -26l3 -32z"/>
<glyph glyph-name="icircumflex" horiz-adv-x="774" unicode="ะพ" d="M781 531q0 -129 -69.5 -245.5t-181 -186t-245.5 -69.5q-202 0 -202 146l5 41q4 31 7 44.5t13 40.5q14 42 39 87q47 87 125.5 167.5t180.5 149.5q13 8 54 33q24 14 34 19.5t45 23.5q27 13 50 24l21 -61q-46 -18 -95 -49q-42 -27 -93 -69q-100 -87 -167 -190 q-31 -51 -51.5 -103t-20.5 -90q0 -141 123 -141q69 0 146 59q36 30 65 67.5t54 94.5q45 102 45 233l-5 58l108 33l6 -30l5 -26l3 -32z"/>
<glyph glyph-name="idieresis" horiz-adv-x="903" unicode="รฏ" d="M941 220l-10 -73l-87 -45l-102 -48l-37 -14q-33 -10 -51 -10q-36 0 -69 23q-28 16 -28 58q0 76 118 293q33 75 33 100q0 14 -7 25q-5 11 -25 26h-24q-33 -3 -60 -23l-31 -24l-48 -45l-155 -160l-271 -279l-97 28l436 727l65 -37l-164 -338l54 -45q113 132 193 215 q24 25 37 38q3 3 25 22l51 42q41 27 69 27t53 -26q30 -32 36 -77q0 -18 -1.5 -26t-6.5 -24l-7 -27q-3 -16 -10 -31l-24 -56l-39 -90q-39 -87 -39 -125q0 -56 58 -56q31 0 165 55z"/>
<glyph glyph-name="idieresis" horiz-adv-x="903" unicode="ะฟ" d="M941 220l-10 -73l-87 -45l-102 -48l-37 -14q-33 -10 -51 -10q-36 0 -69 23q-28 16 -28 58q0 76 118 293q33 75 33 100q0 14 -7 25q-5 11 -25 26h-24q-33 -3 -60 -23l-31 -24l-48 -45l-155 -160l-271 -279l-97 28l436 727l65 -37l-164 -338l54 -45q113 132 193 215 q24 25 37 38q3 3 25 22l51 42q41 27 69 27t53 -26q30 -32 36 -77q0 -18 -1.5 -26t-6.5 -24l-7 -27q-3 -16 -10 -31l-24 -56l-39 -90q-39 -87 -39 -125q0 -56 58 -56q31 0 165 55z"/>
<glyph glyph-name="eth" horiz-adv-x="862" unicode="รฐ" d="M878 217l-9 -72l-58 -35l-72 -39q-37 -18 -75 -31q-37 -10 -60 -10q-90 0 -90 71q0 17 4 39.5t13 47.5q18 55 50 114l47 98l22 50q1 4 4 16.5t4 16.5l-3 17q-15 50 -61 50q-37 0 -76 -29l-18 -14q-15 -12 -24 -21l-23 -25l-65 -86l-41 -56q-100 -118 -168 -219.5 t-181 -283.5l-169 -270l-122 25l113 186l109 185l76 134l72 130l67 126l94 181l89 181l48 104l44 97l42 96l50 -32l-211 -545l61 -38q123 143 181 204q63 66 96.5 88.5t58.5 22.5q20 0 44 -24l20 -30q7 -12 10 -31q0 -76 -19 -145q-28 -89 -55 -150q-32 -78 -32 -102 q0 -56 58 -56l25 3l33 12l73 37z"/>
<glyph glyph-name="eth" horiz-adv-x="862" unicode="ั" d="M878 217l-9 -72l-58 -35l-72 -39q-37 -18 -75 -31q-37 -10 -60 -10q-90 0 -90 71q0 17 4 39.5t13 47.5q18 55 50 114l47 98l22 50q1 4 4 16.5t4 16.5l-3 17q-15 50 -61 50q-37 0 -76 -29l-18 -14q-15 -12 -24 -21l-23 -25l-65 -86l-41 -56q-100 -118 -168 -219.5 t-181 -283.5l-169 -270l-122 25l113 186l109 185l76 134l72 130l67 126l94 181l89 181l48 104l44 97l42 96l50 -32l-211 -545l61 -38q123 143 181 204q63 66 96.5 88.5t58.5 22.5q20 0 44 -24l20 -30q7 -12 10 -31q0 -76 -19 -145q-28 -89 -55 -150q-32 -78 -32 -102 q0 -56 58 -56l25 3l33 12l73 37z"/>
<glyph glyph-name="ntilde" horiz-adv-x="719" unicode="รฑ" d="M789 652q0 -74 -39 -128l-86 50q13 36 13 61q-3 17 -8 25t-17 18q-6 5 -14 9q-14 7 -32 7q-26 0 -59 -19.5t-81 -64.5q-79 -80 -144 -187q-33 -57 -52 -107.5t-19 -94.5q0 -43 27.5 -75t88.5 -32q59 0 151 25.5t221 77.5l-17 -66l-142 -53l-118 -37q-57 -15 -108 -24 q-24 -3 -48.5 -5t-47.5 -2q-88 0 -132.5 29.5t-44.5 92.5l5 39q17 116 116 254t239 240q64 46 123 70t112 24q50 0 75 -34q15 -21 24 -45q5 -12 7 -18.5t7 -29.5z"/>
<glyph glyph-name="ntilde" horiz-adv-x="719" unicode="ั" d="M789 652q0 -74 -39 -128l-86 50q13 36 13 61q-3 17 -8 25t-17 18q-6 5 -14 9q-14 7 -32 7q-26 0 -59 -19.5t-81 -64.5q-79 -80 -144 -187q-33 -57 -52 -107.5t-19 -94.5q0 -43 27.5 -75t88.5 -32q59 0 151 25.5t221 77.5l-17 -66l-142 -53l-118 -37q-57 -15 -108 -24 q-24 -3 -48.5 -5t-47.5 -2q-88 0 -132.5 29.5t-44.5 92.5l5 39q17 116 116 254t239 240q64 46 123 70t112 24q50 0 75 -34q15 -21 24 -45q5 -12 7 -18.5t7 -29.5z"/>
<glyph glyph-name="ograve" horiz-adv-x="1286" unicode="รฒ" d="M1359 221l-10 -72l-133 -63l-94 -41q-40 -14 -68.5 -21t-53.5 -7q-69 0 -87 43l-3 12l-1 14q0 13 4 28q3 26 17 49q5 11 11 22t12 20l16 25l36 57q45 86 45 104q-6 41 -52 47q-20 0 -51 -16q-14 -7 -33.5 -19.5t-44.5 -32.5l-86 -71q-40 -35 -97 -90q-42 -44 -94 -100 q-43 -47 -82 -90l-118 28l265 396q8 15 10 28q0 24 -11 35.5t-27 11.5q-14 0 -50.5 -20t-96.5 -64q-41 -30 -109 -87q-23 -20 -61 -53q-30 -26 -62 -56q-121 -111 -223 -223l-112 30l534 730l70 -43l-195 -304l61 -39q60 42 161 134l89 77l72 56q56 41 100 41 q35 0 50.5 -18.5t20.5 -44.5q0 -20 -10 -43.5t-31 -60.5q-10 -17 -22 -36t-23 -35q-20 -27 -64 -76l79 -40q77 82 134 134q28 26 49.5 43t43.5 31q36 21 63.5 33.5t49.5 12.5q18 0 42 -15q18 -10 24 -42q0 -40 -11 -79t-37 -94l-21 -41l-27 -50q-35 -61 -35 -85 q6 -45 51 -51q17 0 226 81zM1286 1076l-11 -119q-20 3 -45 5t-54 2q-71 0 -132.5 -12t-121.5 -40q-56 -25 -103 -52q-25 -14 -47 -27.5t-52 -33.5l-30 45q32 21 77 48q35 21 76 44q69 36 147 70q38 16 72 27.5t72 22.5q80 20 152 20z"/>
<glyph glyph-name="ograve" horiz-adv-x="1286" unicode="ั" d="M1359 221l-10 -72l-133 -63l-94 -41q-40 -14 -68.5 -21t-53.5 -7q-69 0 -87 43l-3 12l-1 14q0 13 4 28q3 26 17 49q5 11 11 22t12 20l16 25l36 57q45 86 45 104q-6 41 -52 47q-20 0 -51 -16q-14 -7 -33.5 -19.5t-44.5 -32.5l-86 -71q-40 -35 -97 -90q-42 -44 -94 -100 q-43 -47 -82 -90l-118 28l265 396q8 15 10 28q0 24 -11 35.5t-27 11.5q-14 0 -50.5 -20t-96.5 -64q-41 -30 -109 -87q-23 -20 -61 -53q-30 -26 -62 -56q-121 -111 -223 -223l-112 30l534 730l70 -43l-195 -304l61 -39q60 42 161 134l89 77l72 56q56 41 100 41 q35 0 50.5 -18.5t20.5 -44.5q0 -20 -10 -43.5t-31 -60.5q-10 -17 -22 -36t-23 -35q-20 -27 -64 -76l79 -40q77 82 134 134q28 26 49.5 43t43.5 31q36 21 63.5 33.5t49.5 12.5q18 0 42 -15q18 -10 24 -42q0 -40 -11 -79t-37 -94l-21 -41l-27 -50q-35 -61 -35 -85 q6 -45 51 -51q17 0 226 81zM1286 1076l-11 -119q-20 3 -45 5t-54 2q-71 0 -132.5 -12t-121.5 -40q-56 -25 -103 -52q-25 -14 -47 -27.5t-52 -33.5l-30 45q32 21 77 48q35 21 76 44q69 36 147 70q38 16 72 27.5t72 22.5q80 20 152 20z"/>
<glyph glyph-name="oacute" horiz-adv-x="785" unicode="รณ" d="M810 654q-34 -92 -99 -244q-60 -141 -144 -323l-143 -316l-50 -111l-39 -91l-149 27q21 51 52 104l76 127l118 184l169 267l-64 33q-56 -59 -116 -112q-53 -47 -112 -90q-107 -77 -182 -77q-13 0 -32 16q-18 21 -18 71q9 63 83.5 207t175.5 312l90 158l61 -41l-155 -324 q-92 -161 -98 -197q0 -30 13.5 -45.5t37.5 -15.5h17q33 0 91 44q54 40 112 107t125 173q48 80 107 200z"/>
<glyph glyph-name="oacute" horiz-adv-x="785" unicode="ั" d="M810 654q-34 -92 -99 -244q-60 -141 -144 -323l-143 -316l-50 -111l-39 -91l-149 27q21 51 52 104l76 127l118 184l169 267l-64 33q-56 -59 -116 -112q-53 -47 -112 -90q-107 -77 -182 -77q-13 0 -32 16q-18 21 -18 71q9 63 83.5 207t175.5 312l90 158l61 -41l-155 -324 q-92 -161 -98 -197q0 -30 13.5 -45.5t37.5 -15.5h17q33 0 91 44q54 40 112 107t125 173q48 80 107 200z"/>
<glyph glyph-name="ocircumflex" horiz-adv-x="1227" unicode="รด" d="M751 582q-19 36 -44.5 52.5t-57.5 16.5q-69 0 -161 -72q-19 -16 -38.5 -34t-39.5 -40q-37 -42 -72 -90q-68 -98 -87 -167l-6 -23l-2 -26q0 -85 75 -85q112 0 209 110t159 227zM1203 439q0 -101 -62 -198.5t-175.5 -158t-246.5 -60.5h-21l2 46q107 9 189 72 q91 70 141.5 175t50.5 194q-6 32 -30 53t-60 21q-46 0 -92.5 -26t-96.5 -84q-87 -101 -161 -236l-82 -156l-105 -208l-95 -191q-44 -87 -70 -129l-147 22l136 187l140 191l120 168l-46 48q-88 -71 -167 -107q-37 -16 -74.5 -25t-74.5 -9h-16l-12 4l-35 15q-25 14 -25 68v12 q0 7 3 18.5t5 18.5q27 132 125 260q45 61 98.5 114.5t113.5 93.5q116 76 198 76q33 0 60.5 -21t74.5 -88l119 352l44 -26l-92 -326l42 -35q38 34 64.5 57t47.5 38q26 18 64 18q47 0 82 -44q40 -52 58 -126l6 -30z"/>
<glyph glyph-name="ocircumflex" horiz-adv-x="1227" unicode="ั" d="M751 582q-19 36 -44.5 52.5t-57.5 16.5q-69 0 -161 -72q-19 -16 -38.5 -34t-39.5 -40q-37 -42 -72 -90q-68 -98 -87 -167l-6 -23l-2 -26q0 -85 75 -85q112 0 209 110t159 227zM1203 439q0 -101 -62 -198.5t-175.5 -158t-246.5 -60.5h-21l2 46q107 9 189 72 q91 70 141.5 175t50.5 194q-6 32 -30 53t-60 21q-46 0 -92.5 -26t-96.5 -84q-87 -101 -161 -236l-82 -156l-105 -208l-95 -191q-44 -87 -70 -129l-147 22l136 187l140 191l120 168l-46 48q-88 -71 -167 -107q-37 -16 -74.5 -25t-74.5 -9h-16l-12 4l-35 15q-25 14 -25 68v12 q0 7 3 18.5t5 18.5q27 132 125 260q45 61 98.5 114.5t113.5 93.5q116 76 198 76q33 0 60.5 -21t74.5 -88l119 352l44 -26l-92 -326l42 -35q38 34 64.5 57t47.5 38q26 18 64 18q47 0 82 -44q40 -52 58 -126l6 -30z"/>
<glyph glyph-name="otilde" horiz-adv-x="821" unicode="รต" d="M866 717l-32 -31l-83 -80l-56 -56l-100 -104l-72 -75q18 -115 62 -172q39 -53 101 -53q41 0 114 35l52 26l-13 -64l-51 -40l-55 -36q-60 -37 -108 -37q-55 0 -102 50q-27 29 -44 79.5t-39 168.5l-109 -112q-43 -44 -71 -68q-52 -46 -124 -86q-61 -32 -130 -32 q-36 0 -74 17q-25 11 -25 54l4 26q6 36 21 66l116 48l-2 -8q0 -46 18.5 -70.5t54.5 -24.5q23 0 51.5 14.5t66.5 45.5q10 9 34 30.5t44 40.5l113 109q-9 86 -14 170.5t-5 169.5l4 104l73 -43l2 -51l2 -68l19 -228l177 187l48 55l65 79z"/>
<glyph glyph-name="otilde" horiz-adv-x="821" unicode="ั" d="M866 717l-32 -31l-83 -80l-56 -56l-100 -104l-72 -75q18 -115 62 -172q39 -53 101 -53q41 0 114 35l52 26l-13 -64l-51 -40l-55 -36q-60 -37 -108 -37q-55 0 -102 50q-27 29 -44 79.5t-39 168.5l-109 -112q-43 -44 -71 -68q-52 -46 -124 -86q-61 -32 -130 -32 q-36 0 -74 17q-25 11 -25 54l4 26q6 36 21 66l116 48l-2 -8q0 -46 18.5 -70.5t54.5 -24.5q23 0 51.5 14.5t66.5 45.5q10 9 34 30.5t44 40.5l113 109q-9 86 -14 170.5t-5 169.5l4 104l73 -43l2 -51l2 -68l19 -228l177 187l48 55l65 79z"/>
<glyph glyph-name="odieresis" horiz-adv-x="936" unicode="รถ" d="M942 150q-37 -83 -81 -192t-86 -221l-112 41q23 52 47 86q29 46 60 85l47 58l11 28q5 20 5 45l-44 32l-51 -37l-45 -24q-47 -21 -80 -21q-24 0 -50 15q-15 9 -15 39q0 27 16 65l28 59l25 47l54 99l-58 30q-66 -69 -165 -150q-58 -50 -97 -78q-47 -35 -99 -66t-85 -45.5 t-58 -14.5q-50 0 -50 63q18 113 381 695l59 -39l-211 -411q-39 -65 -39 -84q0 -30 12 -45q13 -13 36 -13q24 0 65 25q20 13 44.5 33t54.5 50q105 99 208 229l67 88q32 43 45 68l76 -39l-76 -220q-19 -43 -43 -100q-16 -39 -31 -77q-24 -63 -24 -81q3 -25 19 -39.5t44 -14.5 q10 0 15 1t16 6q17 8 42.5 27t47.5 41z"/>
<glyph glyph-name="odieresis" horiz-adv-x="936" unicode="ั" d="M942 150q-37 -83 -81 -192t-86 -221l-112 41q23 52 47 86q29 46 60 85l47 58l11 28q5 20 5 45l-44 32l-51 -37l-45 -24q-47 -21 -80 -21q-24 0 -50 15q-15 9 -15 39q0 27 16 65l28 59l25 47l54 99l-58 30q-66 -69 -165 -150q-58 -50 -97 -78q-47 -35 -99 -66t-85 -45.5 t-58 -14.5q-50 0 -50 63q18 113 381 695l59 -39l-211 -411q-39 -65 -39 -84q0 -30 12 -45q13 -13 36 -13q24 0 65 25q20 13 44.5 33t54.5 50q105 99 208 229l67 88q32 43 45 68l76 -39l-76 -220q-19 -43 -43 -100q-16 -39 -31 -77q-24 -63 -24 -81q3 -25 19 -39.5t44 -14.5 q10 0 15 1t16 6q17 8 42.5 27t47.5 41z"/>
<glyph glyph-name="divide" horiz-adv-x="752" unicode="รท" d="M780 213l-15 -66l-96 -52q-39 -21 -75 -36q-15 -6 -31 -11.5t-33 -10.5q-16 -3 -28 -5t-25 -2q-47 0 -76 22q-23 18 -23 49q0 39 21 72l38 61l34 49q11 15 25 36.5t24 38.5l44 83l-50 33q-40 -36 -86 -68q-38 -26 -86 -52q-43 -21 -78 -33q-15 -4 -32.5 -7t-32.5 -3 q-68 0 -68 80q6 40 40 93l171 314l59 -34l-113 -230l-26 -48l-9 -27q0 -69 54 -69q22 0 50 11.5t65 36.5q14 9 28 21t34 30q35 33 64 68q53 59 97 138l64 -36l-135 -344q-16 -36 -26 -70.5t-10 -55.5q0 -51 50 -57h16l59 24z"/>
<glyph glyph-name="divide" horiz-adv-x="752" unicode="ั" d="M780 213l-15 -66l-96 -52q-39 -21 -75 -36q-15 -6 -31 -11.5t-33 -10.5q-16 -3 -28 -5t-25 -2q-47 0 -76 22q-23 18 -23 49q0 39 21 72l38 61l34 49q11 15 25 36.5t24 38.5l44 83l-50 33q-40 -36 -86 -68q-38 -26 -86 -52q-43 -21 -78 -33q-15 -4 -32.5 -7t-32.5 -3 q-68 0 -68 80q6 40 40 93l171 314l59 -34l-113 -230l-26 -48l-9 -27q0 -69 54 -69q22 0 50 11.5t65 36.5q14 9 28 21t34 30q35 33 64 68q53 59 97 138l64 -36l-135 -344q-16 -36 -26 -70.5t-10 -55.5q0 -51 50 -57h16l59 24z"/>
<glyph glyph-name="oslash" horiz-adv-x="1278" unicode="รธ" d="M1331 219l-7 -72l-69 -36l-87 -40l-82 -30q-38 -11 -64 -11q-37 0 -63.5 20t-29.5 43q0 35 14 66l72 144l-64 36q-85 -85 -163 -158q-26 -25 -56 -51q-24 -21 -49 -41q-70 -59 -132 -59q-27 0 -50 15q-20 15 -20 39q0 21 14 45l18 31l23 35l88 120l-59 47l-233 -196 l-42 -34l-49 -37q-48 -30 -90.5 -47.5t-81.5 -17.5q-31 0 -47.5 10.5t-16.5 33.5l2 14q14 60 59 113l395 587l56 -36l-288 -472q-10 -10 -20 -28l-11 -33q0 -50 44 -50q23 0 61 22q38 20 91 69q95 83 209 218q98 115 184 246l64 -33l-175 -382l-13 -28l-9 -29v-14 q0 -47 47 -47q15 0 40 15t62 52l62 65l69 82q68 83 127 166l36 52l27 42l75 -40l-104 -338q-15 -36 -15 -80q15 -63 65 -63q14 0 61 18q23 9 53.5 23t71.5 34z"/>
<glyph glyph-name="oslash" horiz-adv-x="1278" unicode="ั" d="M1331 219l-7 -72l-69 -36l-87 -40l-82 -30q-38 -11 -64 -11q-37 0 -63.5 20t-29.5 43q0 35 14 66l72 144l-64 36q-85 -85 -163 -158q-26 -25 -56 -51q-24 -21 -49 -41q-70 -59 -132 -59q-27 0 -50 15q-20 15 -20 39q0 21 14 45l18 31l23 35l88 120l-59 47l-233 -196 l-42 -34l-49 -37q-48 -30 -90.5 -47.5t-81.5 -17.5q-31 0 -47.5 10.5t-16.5 33.5l2 14q14 60 59 113l395 587l56 -36l-288 -472q-10 -10 -20 -28l-11 -33q0 -50 44 -50q23 0 61 22q38 20 91 69q95 83 209 218q98 115 184 246l64 -33l-175 -382l-13 -28l-9 -29v-14 q0 -47 47 -47q15 0 40 15t62 52l62 65l69 82q68 83 127 166l36 52l27 42l75 -40l-104 -338q-15 -36 -15 -80q15 -63 65 -63q14 0 61 18q23 9 53.5 23t71.5 34z"/>
<glyph glyph-name="ugrave" horiz-adv-x="1284" unicode="รน" d="M1300 158l-32 -89l-28 -84l-51 -154l-33 -111l-117 42q8 19 14 30.5t24 41.5l59 99l34 56l23 45l21 56l-55 34l-25 -16l-35 -25l-26 -18l-19 -12l-17 -8l-20 -9l-24 -5l-16 -1q-30 0 -53 17q-19 16 -19 37q0 23 7 47l26 59l59 115l-63 40l-145 -146q-60 -57 -107 -94 t-82.5 -56t-64.5 -19l-19 3l-23 9q-10 7 -10 26q0 13 4 27.5t15 34.5q6 17 19 37q1 3 10 17q6 10 13 19l92 133l-68 30l-144 -127q-54 -47 -98 -82l-73 -56l-63 -41q-54 -30 -96 -30q-51 0 -51 38l4 23q3 22 22 58q17 40 62 113.5t142 220.5q39 62 97 145l120 170l51 -40 l-108 -183l-111 -179l-65 -105q-13 -25 -16 -45q0 -23 12 -40q11 -12 28 -17h10q16 3 47 23t76 59t87 81q26 27 48 51t51 59q98 114 178 254l63 -42l-107 -232l-20 -40l-21 -39l-39 -69l-11 -31l-3 -27q0 -47 46 -47q18 0 48.5 20t71.5 61t83 89l85 105q18 24 34.5 47 t31.5 48q27 43 56 98l81 -52l-64 -199l-42 -120q-26 -83 -26 -103q6 -51 61 -51q18 0 47 16.5t66 51.5z"/>
<glyph glyph-name="ugrave" horiz-adv-x="1284" unicode="ั" d="M1300 158l-32 -89l-28 -84l-51 -154l-33 -111l-117 42q8 19 14 30.5t24 41.5l59 99l34 56l23 45l21 56l-55 34l-25 -16l-35 -25l-26 -18l-19 -12l-17 -8l-20 -9l-24 -5l-16 -1q-30 0 -53 17q-19 16 -19 37q0 23 7 47l26 59l59 115l-63 40l-145 -146q-60 -57 -107 -94 t-82.5 -56t-64.5 -19l-19 3l-23 9q-10 7 -10 26q0 13 4 27.5t15 34.5q6 17 19 37q1 3 10 17q6 10 13 19l92 133l-68 30l-144 -127q-54 -47 -98 -82l-73 -56l-63 -41q-54 -30 -96 -30q-51 0 -51 38l4 23q3 22 22 58q17 40 62 113.5t142 220.5q39 62 97 145l120 170l51 -40 l-108 -183l-111 -179l-65 -105q-13 -25 -16 -45q0 -23 12 -40q11 -12 28 -17h10q16 3 47 23t76 59t87 81q26 27 48 51t51 59q98 114 178 254l63 -42l-107 -232l-20 -40l-21 -39l-39 -69l-11 -31l-3 -27q0 -47 46 -47q18 0 48.5 20t71.5 61t83 89l85 105q18 24 34.5 47 t31.5 48q27 43 56 98l81 -52l-64 -199l-42 -120q-26 -83 -26 -103q6 -51 61 -51q18 0 47 16.5t66 51.5z"/>
<glyph glyph-name="uacute" horiz-adv-x="686" unicode="รบ" d="M712 365q0 -65 -41.5 -125.5t-106.5 -107t-148 -76.5l-75 -20q-35 -6 -66 -6q-95 0 -145 48q-47 49 -47 127q15 118 118 238t233 191l29 13l21 12l17 13q23 17 23 39q0 24 -22 42.5t-72 27.5l-64 9q-35 6 -66 6l40 94q83 -28 157 -60q84 -37 155 -80l-14 -66 q-75 -28 -152 -81.5t-145 -126.5t-107 -145.5t-47 -139.5q0 -106 88 -106q70 0 142 50q30 19 62 51q15 14 28 29q10 11 25 31q49 72 49 127q0 31 -20 49t-61 18l-13 36q41 21 99 21q108 0 126 -132z"/>
<glyph glyph-name="uacute" horiz-adv-x="686" unicode="ั" d="M712 365q0 -65 -41.5 -125.5t-106.5 -107t-148 -76.5l-75 -20q-35 -6 -66 -6q-95 0 -145 48q-47 49 -47 127q15 118 118 238t233 191l29 13l21 12l17 13q23 17 23 39q0 24 -22 42.5t-72 27.5l-64 9q-35 6 -66 6l40 94q83 -28 157 -60q84 -37 155 -80l-14 -66 q-75 -28 -152 -81.5t-145 -126.5t-107 -145.5t-47 -139.5q0 -106 88 -106q70 0 142 50q30 19 62 51q15 14 28 29q10 11 25 31q49 72 49 127q0 31 -20 49t-61 18l-13 36q41 21 99 21q108 0 126 -132z"/>
<glyph glyph-name="ucircumflex" horiz-adv-x="1129" unicode="รป" d="M1164 204l-8 -60q-26 -20 -58 -39t-71 -38q-39 -17 -77 -27q-17 -4 -36 -7t-35 -3q-99 0 -99 70q0 19 6 44t21 63.5t16 40.5q10 18 14 27l36 73l39 68q22 35 50 71l-48 42l-41 -20l-47 -28l-31 -16l-43 -15l-31 -7l-24 -9q-9 -6 -15.5 -16t-6.5 -31q0 -31 -15.5 -64 t-52 -78.5t-77.5 -81t-101 -70.5q-105 -63 -214 -63q-72 0 -122 38q-42 35 -42 88l4 31q2 13 5 25t10 29t15 33.5t19 35.5l43 72l50 81l75 108l55 76l97 138l65 -41q-306 -458 -322 -557q0 -102 81 -102q59 0 131 54q61 48 113 115q26 35 39.5 63t18.5 48v6q0 38 -38 38h-10 l-74 -9l-13 37q3 19 47 42q22 13 45 22.5t38 9.5q43 0 66 -8q24 -6 48 -30q43 5 80 16q15 5 37.5 13t38.5 16q72 35 128 89q42 41 66 91l80 -44l-111 -309q-22 -43 -33.5 -82.5t-11.5 -63.5q6 -65 69 -65q58 0 162 70z"/>
<glyph glyph-name="ucircumflex" horiz-adv-x="1129" unicode="ั" d="M1164 204l-8 -60q-26 -20 -58 -39t-71 -38q-39 -17 -77 -27q-17 -4 -36 -7t-35 -3q-99 0 -99 70q0 19 6 44t21 63.5t16 40.5q10 18 14 27l36 73l39 68q22 35 50 71l-48 42l-41 -20l-47 -28l-31 -16l-43 -15l-31 -7l-24 -9q-9 -6 -15.5 -16t-6.5 -31q0 -31 -15.5 -64 t-52 -78.5t-77.5 -81t-101 -70.5q-105 -63 -214 -63q-72 0 -122 38q-42 35 -42 88l4 31q2 13 5 25t10 29t15 33.5t19 35.5l43 72l50 81l75 108l55 76l97 138l65 -41q-306 -458 -322 -557q0 -102 81 -102q59 0 131 54q61 48 113 115q26 35 39.5 63t18.5 48v6q0 38 -38 38h-10 l-74 -9l-13 37q3 19 47 42q22 13 45 22.5t38 9.5q43 0 66 -8q24 -6 48 -30q43 5 80 16q15 5 37.5 13t38.5 16q72 35 128 89q42 41 66 91l80 -44l-111 -309q-22 -43 -33.5 -82.5t-11.5 -63.5q6 -65 69 -65q58 0 162 70z"/>
<glyph glyph-name="udieresis" horiz-adv-x="662" unicode="รผ" d="M571 375q0 30 -23 51.5t-56 21.5q-63 0 -135 -47q-38 -24 -66.5 -49t-54 -57.5t-40 -62t-17.5 -58.5q0 -95 87 -95q65 0 138 55q67 51 116 119q24 34 38 68q5 12 9 27.5t4 26.5zM708 396q0 -95 -67 -177q-33 -42 -74.5 -75t-100.5 -62q-52 -26 -104.5 -39t-107.5 -13 q-95 0 -139 42.5t-44 110.5q3 30 11 53t27 65q12 25 21 44t23 43q24 45 66 111q37 59 88.5 137t108.5 160l69 -50l-177 -275l55 -42q64 45 123 66.5t114 21.5q38 0 69.5 -28.5t38.5 -92.5z"/>
<glyph glyph-name="udieresis" horiz-adv-x="662" unicode="ั" d="M571 375q0 30 -23 51.5t-56 21.5q-63 0 -135 -47q-38 -24 -66.5 -49t-54 -57.5t-40 -62t-17.5 -58.5q0 -95 87 -95q65 0 138 55q67 51 116 119q24 34 38 68q5 12 9 27.5t4 26.5zM708 396q0 -95 -67 -177q-33 -42 -74.5 -75t-100.5 -62q-52 -26 -104.5 -39t-107.5 -13 q-95 0 -139 42.5t-44 110.5q3 30 11 53t27 65q12 25 21 44t23 43q24 45 66 111q37 59 88.5 137t108.5 160l69 -50l-177 -275l55 -42q64 45 123 66.5t114 21.5q38 0 69.5 -28.5t38.5 -92.5z"/>
<glyph glyph-name="yacute" horiz-adv-x="733" unicode="รฝ" d="M744 488q0 -122 -67.5 -225t-195.5 -168t-288 -65q-103 0 -151.5 39.5t-48.5 101.5l7 31l9 28l106 41l-5 -31q0 -141 126 -141q104 0 203 75q48 38 85 85t80 128l-61 17q-16 3 -27 5t-22 2q-71 0 -118 -30l-46 57q49 22 98 22q31 0 44 -1.5t45.5 -7.5t94.5 -26 q7 22 12 41t10 45t7 45t2 42q-12 124 -114 124q-33 0 -69 -20q-36 -18 -80 -62l-35 46q101 101 192 101q75 0 130.5 -66.5t72.5 -175.5z"/>
<glyph glyph-name="yacute" horiz-adv-x="733" unicode="ั" d="M744 488q0 -122 -67.5 -225t-195.5 -168t-288 -65q-103 0 -151.5 39.5t-48.5 101.5l7 31l9 28l106 41l-5 -31q0 -141 126 -141q104 0 203 75q48 38 85 85t80 128l-61 17q-16 3 -27 5t-22 2q-71 0 -118 -30l-46 57q49 22 98 22q31 0 44 -1.5t45.5 -7.5t94.5 -26 q7 22 12 41t10 45t7 45t2 42q-12 124 -114 124q-33 0 -69 -20q-36 -18 -80 -62l-35 46q101 101 192 101q75 0 130.5 -66.5t72.5 -175.5z"/>
<glyph glyph-name="thorn" horiz-adv-x="1176" unicode="รพ" d="M1170 500q0 -89 -36 -174.5t-101 -151.5t-151 -105q-37 -16 -88 -29q-19 -4 -44.5 -7t-48.5 -3q-114 0 -162 48q-44 52 -44 111q0 21 3 39.5t11 40.5q14 44 49 102l-62 26q-150 -82 -231 -159q-39 -36 -87.5 -87.5t-103.5 -116.5l-104 30l485 726l66 -46l-182 -322 l46 -46q50 34 100 64l119 64q79 115 177.5 185.5t220.5 104.5l19 -57q-23 -9 -38 -16.5t-39 -21.5q-18 -10 -39.5 -24.5t-41.5 -31.5q-97 -74 -166 -181.5t-69 -217.5q0 -34 13 -61t38 -44q46 -32 96 -32q31 0 66.5 15.5t67.5 42t63 64.5q27 36 49 80q41 88 41 191l-13 64 l-12 48l106 35q11 -27 15 -51q12 -47 12 -96z"/>
<glyph glyph-name="thorn" horiz-adv-x="1176" unicode="ั" d="M1170 500q0 -89 -36 -174.5t-101 -151.5t-151 -105q-37 -16 -88 -29q-19 -4 -44.5 -7t-48.5 -3q-114 0 -162 48q-44 52 -44 111q0 21 3 39.5t11 40.5q14 44 49 102l-62 26q-150 -82 -231 -159q-39 -36 -87.5 -87.5t-103.5 -116.5l-104 30l485 726l66 -46l-182 -322 l46 -46q50 34 100 64l119 64q79 115 177.5 185.5t220.5 104.5l19 -57q-23 -9 -38 -16.5t-39 -21.5q-18 -10 -39.5 -24.5t-41.5 -31.5q-97 -74 -166 -181.5t-69 -217.5q0 -34 13 -61t38 -44q46 -32 96 -32q31 0 66.5 15.5t67.5 42t63 64.5q27 36 49 80q41 88 41 191l-13 64 l-12 48l106 35q11 -27 15 -51q12 -47 12 -96z"/>
<glyph glyph-name="OE" horiz-adv-x="1704" unicode="ล" d="M1838 750l-116 -47q8 -15 24 -51q11 -24 20 -45q17 -39 28 -74q11 -44 11 -84q0 -107 -62 -203q-29 -49 -74.5 -88.5t-107.5 -74.5q-120 -63 -285 -63q-100 0 -214 51q-47 21 -73 69q-23 49 -23 124q0 77 37 187.5t112 250.5q-46 0 -158 -5q-45 -2 -78 -2q-49 0 -119 -11 q-24 -4 -77 -13l-132 -176l-94 -124l-59 -76q-14 -19 -33.5 -42.5t-54.5 -62.5l-144 -164l-159 41l191 201l124 130l47 54l39 45l41 51q30 37 78 103q-80 -10 -130 -21q-19 -3 -30.5 -6t-25.5 -8q-39 -13 -71 -28q-11 -5 -20 -9l59 87q6 9 21 18q5 3 15 7.5t23 9.5 q37 13 228 41l118 197q58 99 90 164q44 80 84 162l62 125l73 -52l-26 -58l-32 -68q-41 -91 -52 -111l-40 -79l-140 -271q182 20 285 20l90 -4q21 0 32.5 6t17.5 16l9 17l10 24l26 57l89 223l94 249l79 -60l-59 -141l-54 -133l-49 -121q-37 -94 -63 -163q-29 -77 -48 -133 l-33 -103l-23 -83q-17 -76 -17 -119q0 -52 16 -87.5t49 -62.5q58 -46 135 -46q96 0 176 61.5t122.5 150t42.5 173.5q0 27 -6.5 56t-16 55t-32.5 68h-93l-54 3q-10 1 -24.5 4t-26.5 7l-19 68q14 16 42 28q42 15 75 15q77 0 134 -35q47 4 82 15t71 32zM250 579q-16 -6 -24 -6 l3 -10l10 -4l1 5z"/>
<glyph glyph-name="oe" horiz-adv-x="1164" unicode="ล" d="M1189 328q0 -62 -54 -132.5t-145 -118t-191 -47.5q-109 0 -160.5 44t-51.5 119q0 12 4 31t14 44t22.5 53.5t35.5 73.5q-90 0 -179 -20q-71 -16 -180 -52l-207 -304l-125 36l483 728l68 -39l-189 -357l117 29l82 14l80 10l73 3l104 269l75 -36l-116 -298l-37 -107 q-17 -51 -17 -82q11 -104 102 -104q54 0 116 46q28 21 55 48q22 24 46 60q42 72 42 136q-3 30 -23.5 47.5t-59.5 17.5q-16 0 -34 -7l-12 31q51 33 116 33q58 0 94 -39q19 -22 30.5 -44.5t17.5 -49.5z"/>
<glyph glyph-name="Scaron" horiz-adv-x="1665" unicode="ล" d="M1793 750l-114 -48l48 -100q2 -4 17 -40q10 -25 12 -29l8 -39l4 -53q0 -53 -14 -101t-45 -98t-74.5 -90.5t-103.5 -72.5q-119 -62 -279 -62q-105 0 -218 52q-48 21 -72 70t-24 125q0 34 7 77t22 94q29 97 93 242l-60 35q-42 -53 -84 -101.5t-86 -93.5l-86 -85l-78 -72 q-274 -216 -416 -278q-37 -16 -71 -27.5t-66 -20.5q-65 -17 -111 -17q-54 0 -108 22q-40 15 -40 58q0 11 1.5 17.5t6.5 23.5q22 62 88 146l38 44q31 31 49 31l111 -61v-6l-28 -33l-27 -37l-14 -29q0 -29 18 -48t57 -19q46 0 103 24t128.5 72t149.5 112q71 55 177 148 q165 170 264 304q56 78 99 148q38 63 80 149q58 124 101 274l107 -68l-108 -345l-96 -300l-32 -106l-23 -86q-8 -46 -12 -79.5t-4 -69.5q0 -54 18 -92t51 -62q60 -42 133 -42q99 0 174 60q37 29 68 67q27 34 50 82q20 44 30 85t10 85v18q0 10 -2 18q0 6 -1 10t-6 18 q-13 47 -23 68q-5 14 -10.5 24.5t-16.5 28.5h-92l-54 3q-29 3 -51 10l-21 70q12 15 38 25l42 13l37 4q14 0 30 -0.5t42 -7.5t60 -27q22 3 42.5 7t40.5 10q35 12 70 30z"/>
<glyph glyph-name="scaron" horiz-adv-x="1088" unicode="ลก" d="M1119 324q0 -72 -59 -140q-30 -36 -68.5 -62.5t-88.5 -48.5q-98 -43 -180 -43q-50 0 -88.5 12t-67.5 41q-53 50 -53 126q0 16 8 35l14 33l21 37q30 54 30 76l-54 33q-86 -106 -153 -175.5t-130 -120.5q-115 -97 -231 -97q-30 0 -49.5 4t-39.5 16q-27 14 -27 51l4 26 q3 19 9 35q3 15 13 30l115 49l-2 -7q0 -45 13 -68q8 -12 22 -21q16 -7 36 -7q27 0 59 16t78 55q38 32 79 73q47 47 88 95q93 107 174 223q33 47 42 61q17 27 24 40l56 97l83 -46q-39 -116 -68 -188l-67 -168l-49 -129l-10 -40l-3 -38q0 -104 106 -104q70 0 136.5 47.5 t104.5 111.5q20 36 30.5 69.5t10.5 61.5q-4 30 -25.5 47.5t-60.5 17.5q-17 0 -34 -7l-14 32q55 32 120 32q57 0 92.5 -37t47.5 -97l4 -20zM44 241l36 16q9 26 9 37q0 12 -8 12q-7 0 -15 -8l-9 -11q-5 -20 -8 -24z"/>
<glyph glyph-name="Ydieresis" horiz-adv-x="901" unicode="ลธ" d="M444 37l-185 -368l-112 46l259 335zM900 214l-10 -67l-59 -33q-19 -10 -39 -20q-5 -3 -40 -18q-100 -46 -138 -46q-23 0 -44 15q-18 15 -24 39v29q3 26 10 44l14 29q13 29 94 152l-45 48l-64 -54l-76 -68l-79 -69l-67 -55l-59 -43q-27 -19 -60 -37q-14 -7 -23.5 -11 t-30.5 -12q-26 -7 -45 -7q-50 0 -50 69l7 29l12 28q8 18 19 41t25 46l150 266l156 276l61 -41l-216 -425q-9 -15 -12 -21q-6 -13 -14 -33v-15q0 -54 50 -54q28 0 71.5 27t98.5 81q96 99 191 228q68 97 104 165l71 -41l-136 -390q-10 -22 -10 -51q0 -65 63 -65q22 0 49 13 l63 33z"/>
<glyph glyph-name="endash" horiz-adv-x="1377" unicode="โ" d="M1365 632h-981l11 55h959z"/>
<glyph glyph-name="emdash" horiz-adv-x="1405" unicode="โ" d="M1328 475q0 12 -3 15h-12l-100 -12l-113 -13q-30 0 -80 -3.5t-62 -3.5l-238 -6l-183 -3h-141h-66l-6 1l-11 -15l-59 -74l-3 -4q4 -1 9 -1q8 -1 26 -1l38 -1h131l535 3q43 0 92 1t105 3q35 0 60.5 3t49.5 8l9 1q3 3 4 14zM251 357l-5 -7l-1 -3v8l-1 4q3 -1 7 -2z"/>
<glyph glyph-name="quoteleft" horiz-adv-x="631" unicode="โ" d="M881 1350q-5 -12 -39 -61q-11 -15 -20.5 -30t-21.5 -35l-37 -67l-19 -35l-11 -21l-11 -25h3q-7 -9 -27 -9h-13l-66 6q-21 0 -21 9q0 15 12 41q7 14 15.5 27.5t22.5 33.5q26 38 55 72.5t61 65.5q58 55 76 55q12 0 25 -11t16 -16zM725 1076h3l-2 2q0 -1 -1 -2z"/>
<glyph glyph-name="quotesinglbase" horiz-adv-x="717" unicode="โ" d="M449 154q0 -31 -50 -106q-21 -31 -54 -71q-27 -32 -60 -64q-58 -53 -80 -53q-14 0 -27 10q-7 6 -13 17v9q9 21 31 43l30 31l27 31q13 17 30.5 48t37.5 72q15 40 22 45t26 5l57 -6q20 -3 23 -11z"/>
<glyph glyph-name="quotedblleft" horiz-adv-x="903" unicode="โ" d="M890 1349q-1 -6 -18 -27l-25 -33l-47 -66l-39 -67l-29 -52l-16 -31q-3 -6 -23 -6h-14l-67 4q-15 1 -19 14q3 15 10 29q4 10 7.5 15.5t15.5 22.5q33 48 83.5 103.5t90.5 88.5l24 18q17 11 28 13q15 0 26 -11q9 -6 12 -15zM1127 1277l-49 -54q-30 -32 -57 -109l-10 -38 q-3 -12 -9 -14l-9 2l-22 3l-70 4q-18 0 -21 16q3 18 47 91t104 141q12 13 22.5 23.5t19.5 17.5q18 15 33 15q12 0 24 -11l9 -9l9 -13q0 -20 -5.5 -37t-15.5 -28z"/>
<glyph glyph-name="quotedblright" horiz-adv-x="903" unicode="โ" d="M886 1354q0 -24 -51 -96q-13 -18 -29 -37.5t-30 -35.5q-27 -32 -63 -65q-31 -28 -51 -41t-37 -15q-13 0 -27 13l-10 12l9 12l10 12l61 72q29 36 71 100l43 86q6 2 10 2h19l58 -4q15 -1 17 -15zM1144 1354q-3 -17 -13 -39.5t-31 -57.5q-41 -74 -99 -139q-23 -26 -44 -41 q-4 -3 -15 -8t-22 -5q-15 0 -31 13q-11 9 -13 15l34 44l26 34l24 36q21 32 45 79l13 28l9 22l9 25l3 12q4 2 8 2l16 -1l60 -4q17 -1 19 -4z"/>
<glyph glyph-name="dagger" horiz-adv-x="1118" unicode="โ" d="M1160 973q0 -19 -6 -42q-4 -21 -15 -42q-9 -21 -15 -30t-20 -12h-29l-38 3l-36 3l-43 6q-56 6 -59 8l-50 11l-441 -1055l-65 -118l-21 -34l-19 -25q-13 -16 -25.5 -22.5t-29.5 -6.5l-27 -1q-73 0 -95 11l-8 12l7 19l11 21l23 34l35 49q22 30 39.5 54.5t38.5 58.5 l520 1007q-92 -15 -146.5 -20.5t-98.5 -5.5h-18h-15q-48 0 -54 17q2 9 4 17t7 20l22 44q22 40 46 40q10 0 61 -13q32 -8 108 -19l101 -13l51 313q5 42 21.5 65.5t46.5 23.5q10 0 13 -5q8 -16 8 -60l-96 -337q21 0 52 1t41 1l72 7q16 0 28.5 2.5t24.5 6.5l25 5l59 2z"/>
<glyph glyph-name="daggerdbl" horiz-adv-x="1118" unicode="โก" d="M307 316h-18h-15q-48 0 -54 17q2 9 4 17t7 20l22 44q22 40 46 40q10 0 61 -13l81 -15l111 -14l240 470q-92 -15 -146.5 -20.5t-98.5 -5.5h-18h-15q-48 0 -54 17q2 9 4 17t7 20l22 44q22 40 46 40q10 0 61 -13q32 -8 108 -19l101 -13l51 313q5 42 21.5 65.5t46.5 23.5 q10 0 13 -5q8 -16 8 -60l-96 -337q21 0 52 1t41 1l72 7q16 0 28.5 2.5t24.5 6.5l25 5l59 2l5 -1q0 -19 -6 -42q-4 -21 -15 -42q-9 -21 -15 -30t-20 -12h-29l-38 3l-36 3l-43 6q-56 6 -59 8l-50 11l-197 -466h18h15h12q21 0 39 1t34 4q46 5 61 10l25 5l59 2l5 -1 q0 -19 -6 -42q-4 -21 -15 -42q-9 -22 -15 -30.5t-20 -11.5h-29l-38 3l-36 3l-41 5l-46 8q-13 1 -20.5 2.5t-33.5 7.5l-212 -513q-14 -35 -33 -65l-31 -51q-13 -25 -22 -36l-19 -25q-13 -16 -25.5 -22.5t-29.5 -6.5l-27 -1q-73 0 -95 11l-8 12l7 19l11 21l23 34l35 49l42 56 q21 27 36 57l238 461l-118 -18z"/>
<glyph glyph-name="ellipsis" horiz-adv-x="2151" unicode="โฆ" d="M675 147q-6 -27 -35 -57q-11 -15 -30 -31l-40 -26q-35 -22 -66 -22l-18 -1q-11 0 -13 9l2 10q7 18 21 44q11 20 30 43.5t32.5 33t29.5 11.5h68q15 0 19 -14zM1377 141q0 -38 -41.5 -84t-85.5 -46q-42 0 -42 25q0 36 27 86q9 17 18.5 27.5t22.5 11.5h68q33 0 33 -20z M2084 107q0 -37 -26 -66.5t-62 -29.5q-25 0 -39 6.5t-19 27.5l-3 37q0 43 5.5 62t23.5 19h68q18 0 30 -6t18 -21z"/>
<glyph glyph-name="perthousand" horiz-adv-x="2161" unicode="โฐ" d="M1313 1251l-101 -139l-115 -151q-77 -100 -89 -115q-49 -62 -93 -117l-99 -121l-270 -327l-300 -354l-163 40l76 79l137 136l296 292l155 159q43 45 73 77q42 45 71 78l141 162l161 201l-30 65q-40 -35 -75 -48t-72 -13q-11 0 -26 6l-55 28q-6 -31 -13 -56.5t-16 -45.5 q-16 -37 -45 -72q-48 -62 -119 -100q-33 -17 -67 -27t-64 -10q-48 0 -76 28q-26 24 -26 75q0 39 17 86q6 19 11.5 32t14.5 33q16 34 35 62q40 54 99 107q56 48 119 74q42 18 91 24l-5 -37q-83 -18 -147 -68q-34 -25 -59.5 -52.5t-48.5 -63.5q-41 -65 -58 -124l-6 -24l-2 -24 q0 -34 14 -52q3 -5 7 -10t13 -11q12 -6 25 -6q80 0 151 67q36 33 58 75t34 101l2 62l66 40l13 -30q41 -33 118 -33q44 0 91 24q22 12 46.5 30t49.5 43zM1435 317q0 -82 -45 -155.5t-128.5 -124t-200.5 -50.5q-99 0 -154.5 45t-55.5 124q12 88 76.5 172.5t165.5 135.5t218 51 h22l5 -42q-116 -15 -196 -62q-44 -23 -79 -54t-58 -66.5t-35.5 -68t-12.5 -62.5q0 -132 135 -132q59 0 111.5 35.5t83.5 95.5t31 122q0 36 -10 66l106 37q17 -29 21 -67zM2248 230q0 -61 -31 -115.5t-97 -91t-164 -36.5q-108 0 -180.5 48.5t-84.5 128.5l-4 43q0 80 45 151 q22 37 52.5 64t72.5 50q83 43 187 43h27l18 -43q-143 -24 -215 -93q-81 -84 -81 -182l4 -43q26 -126 161 -126q76 0 127 54.5t51 136.5q0 15 -3 32t-10 38q-3 15 -9 29l-16 33l89 34q26 -28 46 -75q15 -45 15 -80z"/>
<glyph glyph-name="guilsinglleft" horiz-adv-x="664" unicode="โน" d="M573 647l-88 -87l-40 -41l-34 -31l-43 -39q-17 -19 -17 -39q0 -12 9.5 -32.5t31.5 -49.5l156 -197l-75 -50l-58 88l-58 85l-80 125q-15 23 -15 31q0 6 11 16l76 75l57 56l50 53l34 37l37 45z"/>
<glyph glyph-name="guilsinglright" horiz-adv-x="666" unicode="โบ" d="M551 365l-12 -9l-35 -35l-32 -29q-41 -34 -109 -99l-40 -38l-71 -74l-54 46l83 71l76 63q48 39 76 70q21 24 23 36q0 12 -3.5 23.5t-14.5 28.5l-25 38l-49 71l-43 62l-37 56l60 47l38 -67q10 -18 24 -40q10 -15 24 -37l79 -118l22 -33z"/>
<glyph glyph-name="trademark" horiz-adv-x="1698" unicode="โข" d="M832 1404l-4 -47h-200l-91 -577h-103l124 577h-200l14 47h460zM1851 780h-100l-101 412l-20 110h-58l-101 -522h-70l-250 522h-64l14 -120l18 -402h-104l9 624h120l217 -451l34 -90h55l10 96l82 445h122z"/>
</font>
</defs>
</svg>
